<?xml version="1.0" encoding="UTF-8"?>
<svg xmlns="http://www.w3.org/2000/svg" viewBox="0 0 512 512">
  <defs>
    <linearGradient id="bg" x1="0" y1="0" x2="0" y2="1">
      <stop offset="0%" stop-color="#070b12"/>
      <stop offset="55%" stop-color="#0e1421"/>
      <stop offset="100%" stop-color="#060910"/>
    </linearGradient>
    <linearGradient id="shaftGlow" x1="0" y1="0" x2="0" y2="1">
      <stop offset="0%" stop-color="#5ad6ff" stop-opacity="0.18"/>
      <stop offset="100%" stop-color="#5ad6ff" stop-opacity="0.02"/>
    </linearGradient>
    <pattern id="grid" width="64" height="64" patternUnits="userSpaceOnUse">
      <rect width="64" height="64" fill="none"/>
      <path d="M0 0h64M0 64h64M0 0v64M64 0v64" stroke="#253041" stroke-opacity="0.35" stroke-width="1"/>
      <path d="M0 32h64M32 0v64" stroke="#1a2230" stroke-opacity="0.55" stroke-width="1"/>
    </pattern>
    <pattern id="vents" width="96" height="96" patternUnits="userSpaceOnUse">
      <rect width="96" height="96" fill="none"/>
      <rect x="10" y="22" width="76" height="8" fill="#121a27"/>
      <rect x="10" y="42" width="76" height="8" fill="#121a27"/>
      <rect x="10" y="62" width="76" height="8" fill="#121a27"/>
    </pattern>
  </defs>

  <rect width="512" height="512" fill="url(#bg)"/>
  <rect width="512" height="512" fill="url(#grid)"/>
  <rect width="512" height="512" fill="url(#vents)" opacity="0.45"/>

  <rect x="84" y="0" width="24" height="512" fill="#121a27"/>
  <rect x="180" y="0" width="28" height="512" fill="#141d2b"/>
  <rect x="302" y="0" width="20" height="512" fill="#111926"/>
  <rect x="396" y="0" width="26" height="512" fill="#141e2d"/>

  <rect x="106" y="0" width="2" height="512" fill="url(#shaftGlow)"/>
  <rect x="206" y="0" width="2" height="512" fill="url(#shaftGlow)"/>
  <rect x="320" y="0" width="2" height="512" fill="url(#shaftGlow)"/>
  <rect x="420" y="0" width="2" height="512" fill="url(#shaftGlow)"/>

  <circle cx="92" cy="106" r="3" fill="#ff5a5a" fill-opacity="0.65"/>
  <circle cx="194" cy="326" r="3" fill="#ff5a5a" fill-opacity="0.55"/>
  <circle cx="408" cy="224" r="3" fill="#ff5a5a" fill-opacity="0.6"/>
</svg>
