<?xml version="1.0" encoding="UTF-8"?>
<svg xmlns="http://www.w3.org/2000/svg" viewBox="0 0 256 64">
  <defs>
    <linearGradient id="ceilingBase" x1="0" y1="0" x2="0" y2="1">
      <stop offset="0%" stop-color="#1a2433"/>
      <stop offset="45%" stop-color="#141d2a"/>
      <stop offset="100%" stop-color="#0c131e"/>
    </linearGradient>
  </defs>
  <rect width="256" height="64" fill="url(#ceilingBase)"/>
  <rect x="0" y="0" width="256" height="3" fill="#2e3a4d"/>
  <rect x="0" y="61" width="256" height="3" fill="#0a0f18"/>

  <g stroke="#3f4c5e" stroke-width="1.2" stroke-opacity="0.95">
    <line x1="16" y1="6" x2="16" y2="58"/>
    <line x1="48" y1="6" x2="48" y2="58"/>
    <line x1="80" y1="6" x2="80" y2="58"/>
    <line x1="112" y1="6" x2="112" y2="58"/>
    <line x1="144" y1="6" x2="144" y2="58"/>
    <line x1="176" y1="6" x2="176" y2="58"/>
    <line x1="208" y1="6" x2="208" y2="58"/>
    <line x1="240" y1="6" x2="240" y2="58"/>
  </g>

  <g fill="#5ad6ff" fill-opacity="0.18">
    <rect x="14" y="20" width="4" height="10"/>
    <rect x="78" y="20" width="4" height="10"/>
    <rect x="142" y="20" width="4" height="10"/>
    <rect x="206" y="20" width="4" height="10"/>
  </g>
</svg>
