<?xml version="1.0" encoding="UTF-8"?>
<svg xmlns="http://www.w3.org/2000/svg" viewBox="0 0 128 128">
  <defs>
    <linearGradient id="bg" x1="0" y1="0" x2="0" y2="1">
      <stop offset="0%" stop-color="#1b2432"/>
      <stop offset="100%" stop-color="#121927"/>
    </linearGradient>
  </defs>
  <rect width="128" height="128" fill="url(#bg)"/>
  <rect x="2" y="2" width="124" height="124" fill="none" stroke="#495a71" stroke-width="2"/>

  <g fill="#2c394b">
    <rect x="12" y="100" width="104" height="8"/>
    <rect x="22" y="88" width="94" height="8"/>
    <rect x="32" y="76" width="84" height="8"/>
    <rect x="42" y="64" width="74" height="8"/>
    <rect x="52" y="52" width="64" height="8"/>
    <rect x="62" y="40" width="54" height="8"/>
    <rect x="72" y="28" width="44" height="8"/>
  </g>

  <g fill="#f4a340" fill-opacity="0.7">
    <rect x="12" y="100" width="104" height="2"/>
    <rect x="22" y="88" width="94" height="2"/>
    <rect x="32" y="76" width="84" height="2"/>
    <rect x="42" y="64" width="74" height="2"/>
    <rect x="52" y="52" width="64" height="2"/>
    <rect x="62" y="40" width="54" height="2"/>
    <rect x="72" y="28" width="44" height="2"/>
  </g>

  <rect x="10" y="14" width="3" height="96" fill="#5ad6ff" fill-opacity="0.5"/>
  <rect x="112" y="14" width="3" height="96" fill="#5ad6ff" fill-opacity="0.5"/>
</svg>
