<?xml version="1.0" encoding="UTF-8"?>
<svg xmlns="http://www.w3.org/2000/svg" viewBox="0 0 48 96">
  <defs>
    <linearGradient id="cageBg" x1="0" y1="0" x2="0" y2="1">
      <stop offset="0%" stop-color="#1d2736"/>
      <stop offset="100%" stop-color="#111927"/>
    </linearGradient>
  </defs>

  <rect x="0" y="0" width="48" height="96" fill="url(#cageBg)"/>
  <rect x="2" y="0" width="4" height="96" fill="#4e6078"/>
  <rect x="42" y="0" width="4" height="96" fill="#4e6078"/>
  <rect x="5" y="0" width="1.5" height="96" fill="#5ad6ff" fill-opacity="0.55"/>
  <rect x="41.5" y="0" width="1.5" height="96" fill="#5ad6ff" fill-opacity="0.55"/>

  <g stroke="#5a687b" stroke-width="1.5">
    <line x1="6" y1="8" x2="42" y2="8"/>
    <line x1="6" y1="20" x2="42" y2="20"/>
    <line x1="6" y1="32" x2="42" y2="32"/>
    <line x1="6" y1="44" x2="42" y2="44"/>
    <line x1="6" y1="56" x2="42" y2="56"/>
    <line x1="6" y1="68" x2="42" y2="68"/>
    <line x1="6" y1="80" x2="42" y2="80"/>
    <line x1="6" y1="92" x2="42" y2="92"/>
  </g>

  <g fill="#f4a340" fill-opacity="0.28">
    <rect x="8" y="7" width="32" height="2"/>
    <rect x="8" y="31" width="32" height="2"/>
    <rect x="8" y="55" width="32" height="2"/>
    <rect x="8" y="79" width="32" height="2"/>
  </g>
</svg>
