<?xml version="1.0" encoding="UTF-8"?>
<svg xmlns="http://www.w3.org/2000/svg" viewBox="0 0 56 96">
  <defs>
    <linearGradient id="shaft" x1="0" y1="0" x2="0" y2="1">
      <stop offset="0%" stop-color="#1a2432"/>
      <stop offset="100%" stop-color="#101724"/>
    </linearGradient>
  </defs>

  <rect x="0" y="0" width="56" height="96" fill="url(#shaft)"/>
  <rect x="2" y="0" width="6" height="96" fill="#4c607b"/>
  <rect x="48" y="0" width="6" height="96" fill="#4c607b"/>
  <rect x="6" y="0" width="2" height="96" fill="#5ad6ff" fill-opacity="0.5"/>
  <rect x="48" y="0" width="2" height="96" fill="#5ad6ff" fill-opacity="0.5"/>

  <g stroke="#5e6f86" stroke-width="1.7">
    <line x1="8" y1="8" x2="48" y2="18"/>
    <line x1="8" y1="30" x2="48" y2="40"/>
    <line x1="8" y1="52" x2="48" y2="62"/>
    <line x1="8" y1="74" x2="48" y2="84"/>

    <line x1="48" y1="8" x2="8" y2="18"/>
    <line x1="48" y1="30" x2="8" y2="40"/>
    <line x1="48" y1="52" x2="8" y2="62"/>
    <line x1="48" y1="74" x2="8" y2="84"/>
  </g>

  <g fill="#f4a340" fill-opacity="0.3">
    <rect x="10" y="10" width="36" height="2"/>
    <rect x="10" y="32" width="36" height="2"/>
    <rect x="10" y="54" width="36" height="2"/>
    <rect x="10" y="76" width="36" height="2"/>
  </g>
</svg>
