# Wangan Zero Aonami GT grand tourer
# Procedurally authored low-poly source model
mtllib aonami-gt-low-poly.mtl
v -0.980000 0.300000 -2.320000
v 0.980000 0.300000 -2.320000
v 0.980000 0.910000 -2.320000
v -0.980000 0.910000 -2.320000
v -0.970000 0.300000 -1.860000
v 0.970000 0.300000 -1.860000
v 0.970000 0.900000 -1.860000
v -0.970000 0.900000 -1.860000
v -0.950000 0.300000 -1.000000
v 0.950000 0.300000 -1.000000
v 0.950000 0.890000 -1.000000
v -0.950000 0.890000 -1.000000
v -0.920000 0.300000 1.020000
v 0.920000 0.300000 1.020000
v 0.920000 0.850000 1.020000
v -0.920000 0.850000 1.020000
v -0.910000 0.300000 1.890000
v 0.910000 0.300000 1.890000
v 0.910000 0.830000 1.890000
v -0.910000 0.830000 1.890000
v -0.900000 0.300000 2.360000
v 0.900000 0.300000 2.360000
v 0.900000 0.820000 2.360000
v -0.900000 0.820000 2.360000
v -0.810000 0.880000 -1.420000
v 0.810000 0.880000 -1.420000
v -0.760000 0.880000 1.080000
v 0.760000 0.880000 1.080000
v -0.620000 1.480000 -0.720000
v 0.620000 1.480000 -0.720000
v -0.580000 1.460000 0.580000
v 0.580000 1.460000 0.580000
v -0.680000 0.960000 -1.431000
v -0.520000 1.400000 -0.731000
v 0.520000 1.400000 -0.731000
v 0.680000 0.960000 -1.431000
v -0.650000 0.960000 1.091000
v 0.650000 0.960000 1.091000
v 0.510000 1.390000 0.591000
v -0.510000 1.390000 0.591000
v -0.800000 0.960000 -0.240000
v -0.632000 1.390000 -0.240000
v -0.635000 1.390000 -0.680000
v -0.802000 0.960000 -1.280000
v -0.768000 0.960000 0.960000
v -0.615000 1.370000 0.500000
v -0.631000 1.390000 -0.130000
v -0.799000 0.960000 -0.130000
v -0.805000 0.940000 -0.130000
v -0.637000 1.420000 -0.130000
v -0.638000 1.420000 -0.240000
v -0.806000 0.940000 -0.240000
v -0.986000 0.420000 -1.880000
v -0.986000 0.560000 -1.880000
v -0.986000 0.560000 -2.040000
v -0.986000 0.420000 -2.040000
v -0.986000 0.420000 1.010000
v -0.986000 0.560000 1.010000
v -0.986000 0.560000 -0.980000
v -0.986000 0.420000 -0.980000
v -0.986000 0.420000 2.080000
v -0.986000 0.560000 2.080000
v -0.986000 0.560000 1.900000
v -0.986000 0.420000 1.900000
v -0.990000 0.610000 1.960000
v -0.990000 0.790000 1.960000
v -0.990000 0.790000 1.680000
v -0.990000 0.610000 1.680000
v -1.070000 1.025000 0.645000
v -0.850000 1.025000 0.645000
v -0.850000 1.155000 0.645000
v -1.070000 1.155000 0.645000
v -1.070000 1.025000 0.915000
v -0.850000 1.025000 0.915000
v -0.850000 1.155000 0.915000
v -1.070000 1.155000 0.915000
v -1.007000 0.957500 0.075000
v -0.977000 0.957500 0.075000
v -0.977000 1.002500 0.075000
v -1.007000 1.002500 0.075000
v -1.007000 0.957500 0.325000
v -0.977000 0.957500 0.325000
v -0.977000 1.002500 0.325000
v -1.007000 1.002500 0.325000
v 0.802000 0.960000 -1.280000
v 0.635000 1.390000 -0.680000
v 0.632000 1.390000 -0.240000
v 0.800000 0.960000 -0.240000
v 0.799000 0.960000 -0.130000
v 0.631000 1.390000 -0.130000
v 0.615000 1.370000 0.500000
v 0.768000 0.960000 0.960000
v 0.806000 0.940000 -0.240000
v 0.638000 1.420000 -0.240000
v 0.637000 1.420000 -0.130000
v 0.805000 0.940000 -0.130000
v 0.986000 0.420000 -2.040000
v 0.986000 0.560000 -2.040000
v 0.986000 0.560000 -1.880000
v 0.986000 0.420000 -1.880000
v 0.986000 0.420000 -0.980000
v 0.986000 0.560000 -0.980000
v 0.986000 0.560000 1.010000
v 0.986000 0.420000 1.010000
v 0.986000 0.420000 1.900000
v 0.986000 0.560000 1.900000
v 0.986000 0.560000 2.080000
v 0.986000 0.420000 2.080000
v 0.990000 0.610000 1.680000
v 0.990000 0.790000 1.680000
v 0.990000 0.790000 1.960000
v 0.990000 0.610000 1.960000
v 0.850000 1.025000 0.645000
v 1.070000 1.025000 0.645000
v 1.070000 1.155000 0.645000
v 0.850000 1.155000 0.645000
v 0.850000 1.025000 0.915000
v 1.070000 1.025000 0.915000
v 1.070000 1.155000 0.915000
v 0.850000 1.155000 0.915000
v 0.977000 0.957500 0.075000
v 1.007000 0.957500 0.075000
v 1.007000 1.002500 0.075000
v 0.977000 1.002500 0.075000
v 0.977000 0.957500 0.325000
v 1.007000 0.957500 0.325000
v 1.007000 1.002500 0.325000
v 0.977000 1.002500 0.325000
v -1.010000 0.330000 -2.470000
v 1.010000 0.330000 -2.470000
v 1.010000 0.530000 -2.470000
v -1.010000 0.530000 -2.470000
v -1.010000 0.330000 -2.310000
v 1.010000 0.330000 -2.310000
v 1.010000 0.530000 -2.310000
v -1.010000 0.530000 -2.310000
v -0.860000 0.590000 -2.407000
v -0.860000 0.890000 -2.407000
v 0.860000 0.890000 -2.407000
v 0.860000 0.590000 -2.407000
v -0.840000 0.680000 -2.414000
v -0.840000 0.860000 -2.414000
v -0.500000 0.860000 -2.414000
v -0.500000 0.680000 -2.414000
v 0.500000 0.680000 -2.414000
v 0.500000 0.860000 -2.414000
v 0.840000 0.860000 -2.414000
v 0.840000 0.680000 -2.414000
v -0.490000 0.680000 -2.416000
v -0.490000 0.860000 -2.416000
v -0.370000 0.860000 -2.416000
v -0.370000 0.680000 -2.416000
v 0.370000 0.680000 -2.416000
v 0.370000 0.860000 -2.416000
v 0.490000 0.860000 -2.416000
v 0.490000 0.680000 -2.416000
v -0.345000 0.680000 -2.418000
v -0.345000 0.860000 -2.418000
v -0.235000 0.860000 -2.418000
v -0.235000 0.680000 -2.418000
v 0.235000 0.680000 -2.418000
v 0.235000 0.860000 -2.418000
v 0.345000 0.860000 -2.418000
v 0.345000 0.680000 -2.418000
v -0.210000 0.455000 -2.419000
v -0.210000 0.625000 -2.419000
v 0.210000 0.625000 -2.419000
v 0.210000 0.455000 -2.419000
v -0.750000 0.185000 -2.500000
v -0.550000 0.185000 -2.500000
v -0.550000 0.295000 -2.500000
v -0.750000 0.295000 -2.500000
v -0.750000 0.185000 -2.300000
v -0.550000 0.185000 -2.300000
v -0.550000 0.295000 -2.300000
v -0.750000 0.295000 -2.300000
v 0.550000 0.185000 -2.500000
v 0.750000 0.185000 -2.500000
v 0.750000 0.295000 -2.500000
v 0.550000 0.295000 -2.500000
v 0.550000 0.185000 -2.300000
v 0.750000 0.185000 -2.300000
v 0.750000 0.295000 -2.300000
v 0.550000 0.295000 -2.300000
v -0.860000 0.320000 2.320000
v 0.860000 0.320000 2.320000
v 0.860000 0.520000 2.320000
v -0.860000 0.520000 2.320000
v -0.860000 0.320000 2.440000
v 0.860000 0.320000 2.440000
v 0.860000 0.520000 2.440000
v -0.860000 0.520000 2.440000
v -0.860000 0.625000 2.367000
v -0.300000 0.625000 2.367000
v -0.300000 0.855000 2.367000
v -0.860000 0.855000 2.367000
v 0.300000 0.625000 2.367000
v 0.860000 0.625000 2.367000
v 0.860000 0.855000 2.367000
v 0.300000 0.855000 2.367000
v -0.810000 0.685000 2.373000
v -0.430000 0.685000 2.373000
v -0.430000 0.835000 2.373000
v -0.810000 0.835000 2.373000
v 0.430000 0.685000 2.373000
v 0.810000 0.685000 2.373000
v 0.810000 0.835000 2.373000
v 0.430000 0.835000 2.373000
v -0.385000 0.675000 2.375000
v -0.295000 0.675000 2.375000
v -0.295000 0.825000 2.375000
v -0.385000 0.825000 2.375000
v 0.295000 0.675000 2.375000
v 0.385000 0.675000 2.375000
v 0.385000 0.825000 2.375000
v 0.295000 0.825000 2.375000
v -0.330000 0.465000 2.376000
v 0.330000 0.465000 2.376000
v 0.330000 0.635000 2.376000
v -0.330000 0.635000 2.376000
v -0.840000 0.220000 2.300000
v 0.840000 0.220000 2.300000
v 0.840000 0.320000 2.300000
v -0.840000 0.320000 2.300000
v -0.840000 0.220000 2.420000
v 0.840000 0.220000 2.420000
v 0.840000 0.320000 2.420000
v -0.840000 0.320000 2.420000
v -0.630000 0.870000 -2.170000
v -0.530000 0.870000 -2.170000
v -0.530000 1.190000 -2.170000
v -0.630000 1.190000 -2.170000
v -0.630000 0.870000 -2.050000
v -0.530000 0.870000 -2.050000
v -0.530000 1.190000 -2.050000
v -0.630000 1.190000 -2.050000
v 0.530000 0.870000 -2.170000
v 0.630000 0.870000 -2.170000
v 0.630000 1.190000 -2.170000
v 0.530000 1.190000 -2.170000
v 0.530000 0.870000 -2.050000
v 0.630000 0.870000 -2.050000
v 0.630000 1.190000 -2.050000
v 0.530000 1.190000 -2.050000
v -0.890000 1.150000 -2.330000
v 0.890000 1.150000 -2.330000
v 0.890000 1.250000 -2.330000
v -0.890000 1.250000 -2.330000
v -0.890000 1.150000 -1.990000
v 0.890000 1.150000 -1.990000
v 0.890000 1.250000 -1.990000
v -0.890000 1.250000 -1.990000
v -1.085000 0.830000 -1.430000
v -0.835000 0.830000 -1.430000
v -1.085000 0.775070 -1.225000
v -0.835000 0.775070 -1.225000
v -1.085000 0.625000 -1.074930
v -0.835000 0.625000 -1.074930
v -1.085000 0.420000 -1.020000
v -0.835000 0.420000 -1.020000
v -1.085000 0.215000 -1.074930
v -0.835000 0.215000 -1.074930
v -1.085000 0.064930 -1.225000
v -0.835000 0.064930 -1.225000
v -1.085000 0.010000 -1.430000
v -0.835000 0.010000 -1.430000
v -1.085000 0.064930 -1.635000
v -0.835000 0.064930 -1.635000
v -1.085000 0.215000 -1.785070
v -0.835000 0.215000 -1.785070
v -1.085000 0.420000 -1.840000
v -0.835000 0.420000 -1.840000
v -1.085000 0.625000 -1.785070
v -0.835000 0.625000 -1.785070
v -1.085000 0.775070 -1.635000
v -0.835000 0.775070 -1.635000
v -1.091000 0.636506 -1.555000
v -1.091000 0.545000 -1.646506
v -1.091000 0.420000 -1.680000
v -1.091000 0.295000 -1.646506
v -1.091000 0.203494 -1.555000
v -1.091000 0.170000 -1.430000
v -1.091000 0.203494 -1.305000
v -1.091000 0.295000 -1.213494
v -1.091000 0.420000 -1.180000
v -1.091000 0.545000 -1.213494
v -1.091000 0.636506 -1.305000
v -1.091000 0.670000 -1.430000
v -1.094000 0.497942 -1.475000
v -1.094000 0.465000 -1.507942
v -1.094000 0.420000 -1.520000
v -1.094000 0.375000 -1.507942
v -1.094000 0.342058 -1.475000
v -1.094000 0.330000 -1.430000
v -1.094000 0.342058 -1.385000
v -1.094000 0.375000 -1.352058
v -1.094000 0.420000 -1.340000
v -1.094000 0.465000 -1.352058
v -1.094000 0.497942 -1.385000
v -1.094000 0.510000 -1.430000
v -1.085000 0.830000 1.460000
v -0.835000 0.830000 1.460000
v -1.085000 0.775070 1.665000
v -0.835000 0.775070 1.665000
v -1.085000 0.625000 1.815070
v -0.835000 0.625000 1.815070
v -1.085000 0.420000 1.870000
v -0.835000 0.420000 1.870000
v -1.085000 0.215000 1.815070
v -0.835000 0.215000 1.815070
v -1.085000 0.064930 1.665000
v -0.835000 0.064930 1.665000
v -1.085000 0.010000 1.460000
v -0.835000 0.010000 1.460000
v -1.085000 0.064930 1.255000
v -0.835000 0.064930 1.255000
v -1.085000 0.215000 1.104930
v -0.835000 0.215000 1.104930
v -1.085000 0.420000 1.050000
v -0.835000 0.420000 1.050000
v -1.085000 0.625000 1.104930
v -0.835000 0.625000 1.104930
v -1.085000 0.775070 1.255000
v -0.835000 0.775070 1.255000
v -1.091000 0.636506 1.335000
v -1.091000 0.545000 1.243494
v -1.091000 0.420000 1.210000
v -1.091000 0.295000 1.243494
v -1.091000 0.203494 1.335000
v -1.091000 0.170000 1.460000
v -1.091000 0.203494 1.585000
v -1.091000 0.295000 1.676506
v -1.091000 0.420000 1.710000
v -1.091000 0.545000 1.676506
v -1.091000 0.636506 1.585000
v -1.091000 0.670000 1.460000
v -1.094000 0.497942 1.415000
v -1.094000 0.465000 1.382058
v -1.094000 0.420000 1.370000
v -1.094000 0.375000 1.382058
v -1.094000 0.342058 1.415000
v -1.094000 0.330000 1.460000
v -1.094000 0.342058 1.505000
v -1.094000 0.375000 1.537942
v -1.094000 0.420000 1.550000
v -1.094000 0.465000 1.537942
v -1.094000 0.497942 1.505000
v -1.094000 0.510000 1.460000
v 0.835000 0.830000 -1.430000
v 1.085000 0.830000 -1.430000
v 0.835000 0.775070 -1.225000
v 1.085000 0.775070 -1.225000
v 0.835000 0.625000 -1.074930
v 1.085000 0.625000 -1.074930
v 0.835000 0.420000 -1.020000
v 1.085000 0.420000 -1.020000
v 0.835000 0.215000 -1.074930
v 1.085000 0.215000 -1.074930
v 0.835000 0.064930 -1.225000
v 1.085000 0.064930 -1.225000
v 0.835000 0.010000 -1.430000
v 1.085000 0.010000 -1.430000
v 0.835000 0.064930 -1.635000
v 1.085000 0.064930 -1.635000
v 0.835000 0.215000 -1.785070
v 1.085000 0.215000 -1.785070
v 0.835000 0.420000 -1.840000
v 1.085000 0.420000 -1.840000
v 0.835000 0.625000 -1.785070
v 1.085000 0.625000 -1.785070
v 0.835000 0.775070 -1.635000
v 1.085000 0.775070 -1.635000
v 1.091000 0.670000 -1.430000
v 1.091000 0.636506 -1.305000
v 1.091000 0.545000 -1.213494
v 1.091000 0.420000 -1.180000
v 1.091000 0.295000 -1.213494
v 1.091000 0.203494 -1.305000
v 1.091000 0.170000 -1.430000
v 1.091000 0.203494 -1.555000
v 1.091000 0.295000 -1.646506
v 1.091000 0.420000 -1.680000
v 1.091000 0.545000 -1.646506
v 1.091000 0.636506 -1.555000
v 1.094000 0.510000 -1.430000
v 1.094000 0.497942 -1.385000
v 1.094000 0.465000 -1.352058
v 1.094000 0.420000 -1.340000
v 1.094000 0.375000 -1.352058
v 1.094000 0.342058 -1.385000
v 1.094000 0.330000 -1.430000
v 1.094000 0.342058 -1.475000
v 1.094000 0.375000 -1.507942
v 1.094000 0.420000 -1.520000
v 1.094000 0.465000 -1.507942
v 1.094000 0.497942 -1.475000
v 0.835000 0.830000 1.460000
v 1.085000 0.830000 1.460000
v 0.835000 0.775070 1.665000
v 1.085000 0.775070 1.665000
v 0.835000 0.625000 1.815070
v 1.085000 0.625000 1.815070
v 0.835000 0.420000 1.870000
v 1.085000 0.420000 1.870000
v 0.835000 0.215000 1.815070
v 1.085000 0.215000 1.815070
v 0.835000 0.064930 1.665000
v 1.085000 0.064930 1.665000
v 0.835000 0.010000 1.460000
v 1.085000 0.010000 1.460000
v 0.835000 0.064930 1.255000
v 1.085000 0.064930 1.255000
v 0.835000 0.215000 1.104930
v 1.085000 0.215000 1.104930
v 0.835000 0.420000 1.050000
v 1.085000 0.420000 1.050000
v 0.835000 0.625000 1.104930
v 1.085000 0.625000 1.104930
v 0.835000 0.775070 1.255000
v 1.085000 0.775070 1.255000
v 1.091000 0.670000 1.460000
v 1.091000 0.636506 1.585000
v 1.091000 0.545000 1.676506
v 1.091000 0.420000 1.710000
v 1.091000 0.295000 1.676506
v 1.091000 0.203494 1.585000
v 1.091000 0.170000 1.460000
v 1.091000 0.203494 1.335000
v 1.091000 0.295000 1.243494
v 1.091000 0.420000 1.210000
v 1.091000 0.545000 1.243494
v 1.091000 0.636506 1.335000
v 1.094000 0.510000 1.460000
v 1.094000 0.497942 1.505000
v 1.094000 0.465000 1.537942
v 1.094000 0.420000 1.550000
v 1.094000 0.375000 1.537942
v 1.094000 0.342058 1.505000
v 1.094000 0.330000 1.460000
v 1.094000 0.342058 1.415000
v 1.094000 0.375000 1.382058
v 1.094000 0.420000 1.370000
v 1.094000 0.465000 1.382058
v 1.094000 0.497942 1.415000
g aonami-body-shell
usemtl body
f 1 4 3 2
f 21 22 23 24
f 1 2 6 5
f 4 8 7 3
f 1 5 8 4
f 2 3 7 6
f 5 6 10 9
f 8 12 11 7
f 5 9 12 8
f 6 7 11 10
f 9 10 14 13
f 12 16 15 11
f 9 13 16 12
f 10 11 15 14
f 13 14 18 17
f 16 20 19 15
f 13 17 20 16
f 14 15 19 18
f 17 18 22 21
f 20 24 23 19
f 17 21 24 20
f 18 19 23 22
g aonami-fastback-cabin
usemtl bodyDark
f 25 29 30 26
f 27 28 32 31
f 25 27 31 29
f 26 30 32 28
f 29 31 32 30
g aonami-rear-window
usemtl glass
f 33 34 35 36
g aonami-windshield
f 37 38 39 40
g aonami-rear-side-window--1
f 41 42 43 44
g aonami-front-side-window--1
f 45 46 47 48
g aonami-b-pillar--1
usemtl bodyDark
f 49 50 51 52
g aonami-rear-side-skirt--1
usemtl accent
f 53 54 55 56
g aonami-center-side-skirt--1
f 57 58 59 60
g aonami-front-side-skirt--1
f 61 62 63 64
g aonami-front-vent--1
usemtl trim
f 65 66 67 68
g aonami-mirror--1
usemtl bodyDark
f 69 72 71 70
f 73 74 75 76
f 69 73 76 72
f 70 71 75 74
f 69 70 74 73
f 72 76 75 71
g aonami-door-handle--1
usemtl trim
f 77 80 79 78
f 81 82 83 84
f 77 81 84 80
f 78 79 83 82
f 77 78 82 81
f 80 84 83 79
g aonami-rear-side-window-1
usemtl glass
f 85 86 87 88
g aonami-front-side-window-1
f 89 90 91 92
g aonami-b-pillar-1
usemtl bodyDark
f 93 94 95 96
g aonami-rear-side-skirt-1
usemtl accent
f 97 98 99 100
g aonami-center-side-skirt-1
f 101 102 103 104
g aonami-front-side-skirt-1
f 105 106 107 108
g aonami-front-vent-1
usemtl trim
f 109 110 111 112
g aonami-mirror-1
usemtl bodyDark
f 113 116 115 114
f 117 118 119 120
f 113 117 120 116
f 114 115 119 118
f 113 114 118 117
f 116 120 119 115
g aonami-door-handle-1
usemtl trim
f 121 124 123 122
f 125 126 127 128
f 121 125 128 124
f 122 123 127 126
f 121 122 126 125
f 124 128 127 123
g aonami-rear-bumper
usemtl bodyDark
f 129 132 131 130
f 133 134 135 136
f 129 133 136 132
f 130 131 135 134
f 129 130 134 133
f 132 136 135 131
g aonami-rear-garnish
usemtl trim
f 137 138 139 140
g aonami-left-tail
usemtl tail
f 141 142 143 144
g aonami-right-tail
f 145 146 147 148
g aonami-left-indicator
usemtl indicator
f 149 150 151 152
g aonami-right-indicator
f 153 154 155 156
g aonami-left-reverse
usemtl reverse
f 157 158 159 160
g aonami-right-reverse
f 161 162 163 164
g aonami-rear-plate
usemtl plate
f 165 166 167 168
g aonami-left-exhaust
usemtl exhaust
f 169 172 171 170
f 173 174 175 176
f 169 173 176 172
f 170 171 175 174
f 169 170 174 173
f 172 176 175 171
g aonami-right-exhaust
f 177 180 179 178
f 181 182 183 184
f 177 181 184 180
f 178 179 183 182
f 177 178 182 181
f 180 184 183 179
g aonami-front-bumper
usemtl bodyDark
f 185 188 187 186
f 189 190 191 192
f 185 189 192 188
f 186 187 191 190
f 185 186 190 189
f 188 192 191 187
g aonami-left-headlight-housing
usemtl trim
f 193 194 195 196
g aonami-right-headlight-housing
f 197 198 199 200
g aonami-left-headlight
usemtl headlight
f 201 202 203 204
g aonami-right-headlight
f 205 206 207 208
g aonami-left-front-indicator
usemtl indicator
f 209 210 211 212
g aonami-right-front-indicator
f 213 214 215 216
g aonami-front-grille
usemtl trim
f 217 218 219 220
g aonami-front-lip
usemtl accent
f 221 224 223 222
f 225 226 227 228
f 221 225 228 224
f 222 223 227 226
f 221 222 226 225
f 224 228 227 223
g aonami-wing-left-support
usemtl bodyDark
f 229 232 231 230
f 233 234 235 236
f 229 233 236 232
f 230 231 235 234
f 229 230 234 233
f 232 236 235 231
g aonami-wing-right-support
f 237 240 239 238
f 241 242 243 244
f 237 241 244 240
f 238 239 243 242
f 237 238 242 241
f 240 244 243 239
g aonami-rear-wing
f 245 248 247 246
f 249 250 251 252
f 245 249 252 248
f 246 247 251 250
f 245 246 250 249
f 248 252 251 247
g aonami-rear-wheel--1-tread
usemtl tire
f 253 255 256 254
f 255 257 258 256
f 257 259 260 258
f 259 261 262 260
f 261 263 264 262
f 263 265 266 264
f 265 267 268 266
f 267 269 270 268
f 269 271 272 270
f 271 273 274 272
f 273 275 276 274
f 275 253 254 276
g aonami-rear-wheel--1-cap-a
f 275 273 271 269 267 265 263 261 259 257 255 253
g aonami-rear-wheel--1-cap-b
f 254 256 258 260 262 264 266 268 270 272 274 276
g aonami-rear-wheel--1-hub
usemtl wheel
f 277 278 279 280 281 282 283 284 285 286 287 288
g aonami-rear-wheel--1-hub-center
usemtl wheelDark
f 289 290 291 292 293 294 295 296 297 298 299 300
g aonami-front-wheel--1-tread
usemtl tire
f 301 303 304 302
f 303 305 306 304
f 305 307 308 306
f 307 309 310 308
f 309 311 312 310
f 311 313 314 312
f 313 315 316 314
f 315 317 318 316
f 317 319 320 318
f 319 321 322 320
f 321 323 324 322
f 323 301 302 324
g aonami-front-wheel--1-cap-a
f 323 321 319 317 315 313 311 309 307 305 303 301
g aonami-front-wheel--1-cap-b
f 302 304 306 308 310 312 314 316 318 320 322 324
g aonami-front-wheel--1-hub
usemtl wheel
f 325 326 327 328 329 330 331 332 333 334 335 336
g aonami-front-wheel--1-hub-center
usemtl wheelDark
f 337 338 339 340 341 342 343 344 345 346 347 348
g aonami-rear-wheel-1-tread
usemtl tire
f 349 351 352 350
f 351 353 354 352
f 353 355 356 354
f 355 357 358 356
f 357 359 360 358
f 359 361 362 360
f 361 363 364 362
f 363 365 366 364
f 365 367 368 366
f 367 369 370 368
f 369 371 372 370
f 371 349 350 372
g aonami-rear-wheel-1-cap-a
f 371 369 367 365 363 361 359 357 355 353 351 349
g aonami-rear-wheel-1-cap-b
f 350 352 354 356 358 360 362 364 366 368 370 372
g aonami-rear-wheel-1-hub
usemtl wheel
f 373 374 375 376 377 378 379 380 381 382 383 384
g aonami-rear-wheel-1-hub-center
usemtl wheelDark
f 385 386 387 388 389 390 391 392 393 394 395 396
g aonami-front-wheel-1-tread
usemtl tire
f 397 399 400 398
f 399 401 402 400
f 401 403 404 402
f 403 405 406 404
f 405 407 408 406
f 407 409 410 408
f 409 411 412 410
f 411 413 414 412
f 413 415 416 414
f 415 417 418 416
f 417 419 420 418
f 419 397 398 420
g aonami-front-wheel-1-cap-a
f 419 417 415 413 411 409 407 405 403 401 399 397
g aonami-front-wheel-1-cap-b
f 398 400 402 404 406 408 410 412 414 416 418 420
g aonami-front-wheel-1-hub
usemtl wheel
f 421 422 423 424 425 426 427 428 429 430 431 432
g aonami-front-wheel-1-hub-center
usemtl wheelDark
f 433 434 435 436 437 438 439 440 441 442 443 444
