# Wangan Zero Hibana RS compact liftback coupe
# Procedurally authored low-poly source model
mtllib hibana-rs-low-poly.mtl
v -0.940000 0.310000 -2.150000
v 0.940000 0.310000 -2.150000
v 0.940000 0.960000 -2.150000
v -0.940000 0.960000 -2.150000
v -0.950000 0.310000 -1.720000
v 0.950000 0.310000 -1.720000
v 0.950000 0.940000 -1.720000
v -0.950000 0.940000 -1.720000
v -0.940000 0.310000 -0.900000
v 0.940000 0.310000 -0.900000
v 0.940000 0.910000 -0.900000
v -0.940000 0.910000 -0.900000
v -0.920000 0.310000 0.940000
v 0.920000 0.310000 0.940000
v 0.920000 0.850000 0.940000
v -0.920000 0.850000 0.940000
v -0.890000 0.310000 1.720000
v 0.890000 0.310000 1.720000
v 0.890000 0.780000 1.720000
v -0.890000 0.780000 1.720000
v -0.840000 0.310000 2.180000
v 0.840000 0.310000 2.180000
v 0.840000 0.720000 2.180000
v -0.840000 0.720000 2.180000
v -0.800000 0.890000 -1.600000
v 0.800000 0.890000 -1.600000
v -0.740000 0.860000 0.920000
v 0.740000 0.860000 0.920000
v -0.600000 1.500000 -0.820000
v 0.600000 1.500000 -0.820000
v -0.560000 1.480000 0.420000
v 0.560000 1.480000 0.420000
v -0.680000 0.970000 -1.611000
v -0.500000 1.420000 -0.831000
v 0.500000 1.420000 -0.831000
v 0.680000 0.970000 -1.611000
v -0.630000 0.940000 0.931000
v 0.630000 0.940000 0.931000
v 0.490000 1.400000 0.431000
v -0.490000 1.400000 0.431000
v -0.780000 0.960000 -0.280000
v -0.600000 1.410000 -0.280000
v -0.612000 1.410000 -0.760000
v -0.792000 0.970000 -1.440000
v -0.742000 0.940000 0.820000
v -0.572000 1.390000 0.350000
v -0.598000 1.410000 -0.160000
v -0.778000 0.960000 -0.160000
v -0.784000 0.940000 -0.160000
v -0.606000 1.440000 -0.160000
v -0.608000 1.440000 -0.280000
v -0.786000 0.940000 -0.280000
v -0.956000 0.430000 -1.720000
v -0.956000 0.550000 -1.720000
v -0.956000 0.550000 -1.980000
v -0.956000 0.430000 -1.980000
v -0.956000 0.430000 0.910000
v -0.956000 0.550000 0.910000
v -0.956000 0.550000 -0.880000
v -0.956000 0.430000 -0.880000
v -0.946000 0.430000 1.980000
v -0.946000 0.550000 1.980000
v -0.946000 0.550000 1.740000
v -0.946000 0.430000 1.740000
v -1.020000 1.015000 0.500000
v -0.820000 1.015000 0.500000
v -0.820000 1.145000 0.500000
v -1.020000 1.145000 0.500000
v -1.020000 1.015000 0.740000
v -0.820000 1.015000 0.740000
v -0.820000 1.145000 0.740000
v -1.020000 1.145000 0.740000
v -0.967000 0.957500 -0.010000
v -0.937000 0.957500 -0.010000
v -0.937000 1.002500 -0.010000
v -0.967000 1.002500 -0.010000
v -0.967000 0.957500 0.210000
v -0.937000 0.957500 0.210000
v -0.937000 1.002500 0.210000
v -0.967000 1.002500 0.210000
v 0.792000 0.970000 -1.440000
v 0.612000 1.410000 -0.760000
v 0.600000 1.410000 -0.280000
v 0.780000 0.960000 -0.280000
v 0.778000 0.960000 -0.160000
v 0.598000 1.410000 -0.160000
v 0.572000 1.390000 0.350000
v 0.742000 0.940000 0.820000
v 0.786000 0.940000 -0.280000
v 0.608000 1.440000 -0.280000
v 0.606000 1.440000 -0.160000
v 0.784000 0.940000 -0.160000
v 0.956000 0.430000 -1.980000
v 0.956000 0.550000 -1.980000
v 0.956000 0.550000 -1.720000
v 0.956000 0.430000 -1.720000
v 0.956000 0.430000 -0.880000
v 0.956000 0.550000 -0.880000
v 0.956000 0.550000 0.910000
v 0.956000 0.430000 0.910000
v 0.946000 0.430000 1.740000
v 0.946000 0.550000 1.740000
v 0.946000 0.550000 1.980000
v 0.946000 0.430000 1.980000
v 0.820000 1.015000 0.500000
v 1.020000 1.015000 0.500000
v 1.020000 1.145000 0.500000
v 0.820000 1.145000 0.500000
v 0.820000 1.015000 0.740000
v 1.020000 1.015000 0.740000
v 1.020000 1.145000 0.740000
v 0.820000 1.145000 0.740000
v 0.937000 0.957500 -0.010000
v 0.967000 0.957500 -0.010000
v 0.967000 1.002500 -0.010000
v 0.937000 1.002500 -0.010000
v 0.937000 0.957500 0.210000
v 0.967000 0.957500 0.210000
v 0.967000 1.002500 0.210000
v 0.937000 1.002500 0.210000
v -0.940000 0.335000 -2.240000
v 0.940000 0.335000 -2.240000
v 0.940000 0.525000 -2.240000
v -0.940000 0.525000 -2.240000
v -0.940000 0.335000 -2.140000
v 0.940000 0.335000 -2.140000
v 0.940000 0.525000 -2.140000
v -0.940000 0.525000 -2.140000
v -0.810000 0.580000 -2.207000
v -0.810000 0.960000 -2.207000
v 0.810000 0.960000 -2.207000
v 0.810000 0.580000 -2.207000
v -0.530000 0.790000 -2.216000
v -0.547417 0.725000 -2.216000
v -0.595000 0.677417 -2.216000
v -0.660000 0.660000 -2.216000
v -0.725000 0.677417 -2.216000
v -0.772583 0.725000 -2.216000
v -0.790000 0.790000 -2.216000
v -0.772583 0.855000 -2.216000
v -0.725000 0.902583 -2.216000
v -0.660000 0.920000 -2.216000
v -0.595000 0.902583 -2.216000
v -0.547417 0.855000 -2.216000
v -0.270000 0.790000 -2.216000
v -0.286077 0.730000 -2.216000
v -0.330000 0.686077 -2.216000
v -0.390000 0.670000 -2.216000
v -0.450000 0.686077 -2.216000
v -0.493923 0.730000 -2.216000
v -0.510000 0.790000 -2.216000
v -0.493923 0.850000 -2.216000
v -0.450000 0.893923 -2.216000
v -0.390000 0.910000 -2.216000
v -0.330000 0.893923 -2.216000
v -0.286077 0.850000 -2.216000
v 0.510000 0.790000 -2.216000
v 0.493923 0.730000 -2.216000
v 0.450000 0.686077 -2.216000
v 0.390000 0.670000 -2.216000
v 0.330000 0.686077 -2.216000
v 0.286077 0.730000 -2.216000
v 0.270000 0.790000 -2.216000
v 0.286077 0.850000 -2.216000
v 0.330000 0.893923 -2.216000
v 0.390000 0.910000 -2.216000
v 0.450000 0.893923 -2.216000
v 0.493923 0.850000 -2.216000
v 0.790000 0.790000 -2.216000
v 0.772583 0.725000 -2.216000
v 0.725000 0.677417 -2.216000
v 0.660000 0.660000 -2.216000
v 0.595000 0.677417 -2.216000
v 0.547417 0.725000 -2.216000
v 0.530000 0.790000 -2.216000
v 0.547417 0.855000 -2.216000
v 0.595000 0.902583 -2.216000
v 0.660000 0.920000 -2.216000
v 0.725000 0.902583 -2.216000
v 0.772583 0.855000 -2.216000
v -0.275000 0.705000 -2.219000
v -0.275000 0.855000 -2.219000
v -0.185000 0.855000 -2.219000
v -0.185000 0.705000 -2.219000
v 0.185000 0.705000 -2.219000
v 0.185000 0.855000 -2.219000
v 0.275000 0.855000 -2.219000
v 0.275000 0.705000 -2.219000
v -0.200000 0.440000 -2.221000
v -0.200000 0.600000 -2.221000
v 0.200000 0.600000 -2.221000
v 0.200000 0.440000 -2.221000
v -0.670000 0.190000 -2.290000
v -0.490000 0.190000 -2.290000
v -0.490000 0.290000 -2.290000
v -0.670000 0.290000 -2.290000
v -0.670000 0.190000 -2.110000
v -0.490000 0.190000 -2.110000
v -0.490000 0.290000 -2.110000
v -0.670000 0.290000 -2.110000
v 0.490000 0.190000 -2.290000
v 0.670000 0.190000 -2.290000
v 0.670000 0.290000 -2.290000
v 0.490000 0.290000 -2.290000
v 0.490000 0.190000 -2.110000
v 0.670000 0.190000 -2.110000
v 0.670000 0.290000 -2.110000
v 0.490000 0.290000 -2.110000
v -0.790000 0.320000 2.140000
v 0.790000 0.320000 2.140000
v 0.790000 0.500000 2.140000
v -0.790000 0.500000 2.140000
v -0.790000 0.320000 2.240000
v 0.790000 0.320000 2.240000
v 0.790000 0.500000 2.240000
v -0.790000 0.500000 2.240000
v -0.790000 0.575000 2.187000
v -0.310000 0.575000 2.187000
v -0.310000 0.785000 2.187000
v -0.790000 0.785000 2.187000
v 0.310000 0.575000 2.187000
v 0.790000 0.575000 2.187000
v 0.790000 0.785000 2.187000
v 0.310000 0.785000 2.187000
v -0.750000 0.620000 2.194000
v -0.410000 0.620000 2.194000
v -0.410000 0.760000 2.194000
v -0.750000 0.760000 2.194000
v 0.410000 0.620000 2.194000
v 0.750000 0.620000 2.194000
v 0.750000 0.760000 2.194000
v 0.410000 0.760000 2.194000
v -0.365000 0.610000 2.196000
v -0.275000 0.610000 2.196000
v -0.275000 0.750000 2.196000
v -0.365000 0.750000 2.196000
v 0.275000 0.610000 2.196000
v 0.365000 0.610000 2.196000
v 0.365000 0.750000 2.196000
v 0.275000 0.750000 2.196000
v -0.290000 0.400000 2.197000
v 0.290000 0.400000 2.197000
v 0.290000 0.560000 2.197000
v -0.290000 0.560000 2.197000
v -0.760000 0.225000 2.130000
v 0.760000 0.225000 2.130000
v 0.760000 0.315000 2.130000
v -0.760000 0.315000 2.130000
v -0.760000 0.225000 2.230000
v 0.760000 0.225000 2.230000
v 0.760000 0.315000 2.230000
v -0.760000 0.315000 2.230000
v -1.050000 0.790000 -1.300000
v -0.810000 0.790000 -1.300000
v -1.050000 0.737750 -1.105000
v -0.810000 0.737750 -1.105000
v -1.050000 0.595000 -0.962250
v -0.810000 0.595000 -0.962250
v -1.050000 0.400000 -0.910000
v -0.810000 0.400000 -0.910000
v -1.050000 0.205000 -0.962250
v -0.810000 0.205000 -0.962250
v -1.050000 0.062250 -1.105000
v -0.810000 0.062250 -1.105000
v -1.050000 0.010000 -1.300000
v -0.810000 0.010000 -1.300000
v -1.050000 0.062250 -1.495000
v -0.810000 0.062250 -1.495000
v -1.050000 0.205000 -1.637750
v -0.810000 0.205000 -1.637750
v -1.050000 0.400000 -1.690000
v -0.810000 0.400000 -1.690000
v -1.050000 0.595000 -1.637750
v -0.810000 0.595000 -1.637750
v -1.050000 0.737750 -1.495000
v -0.810000 0.737750 -1.495000
v -1.056000 0.603516 -1.417500
v -1.056000 0.517500 -1.503516
v -1.056000 0.400000 -1.535000
v -1.056000 0.282500 -1.503516
v -1.056000 0.196484 -1.417500
v -1.056000 0.165000 -1.300000
v -1.056000 0.196484 -1.182500
v -1.056000 0.282500 -1.096484
v -1.056000 0.400000 -1.065000
v -1.056000 0.517500 -1.096484
v -1.056000 0.603516 -1.182500
v -1.056000 0.635000 -1.300000
v -1.059000 0.473612 -1.342500
v -1.059000 0.442500 -1.373612
v -1.059000 0.400000 -1.385000
v -1.059000 0.357500 -1.373612
v -1.059000 0.326388 -1.342500
v -1.059000 0.315000 -1.300000
v -1.059000 0.326388 -1.257500
v -1.059000 0.357500 -1.226388
v -1.059000 0.400000 -1.215000
v -1.059000 0.442500 -1.226388
v -1.059000 0.473612 -1.257500
v -1.059000 0.485000 -1.300000
v -1.030000 0.790000 1.320000
v -0.790000 0.790000 1.320000
v -1.030000 0.737750 1.515000
v -0.790000 0.737750 1.515000
v -1.030000 0.595000 1.657750
v -0.790000 0.595000 1.657750
v -1.030000 0.400000 1.710000
v -0.790000 0.400000 1.710000
v -1.030000 0.205000 1.657750
v -0.790000 0.205000 1.657750
v -1.030000 0.062250 1.515000
v -0.790000 0.062250 1.515000
v -1.030000 0.010000 1.320000
v -0.790000 0.010000 1.320000
v -1.030000 0.062250 1.125000
v -0.790000 0.062250 1.125000
v -1.030000 0.205000 0.982250
v -0.790000 0.205000 0.982250
v -1.030000 0.400000 0.930000
v -0.790000 0.400000 0.930000
v -1.030000 0.595000 0.982250
v -0.790000 0.595000 0.982250
v -1.030000 0.737750 1.125000
v -0.790000 0.737750 1.125000
v -1.036000 0.603516 1.202500
v -1.036000 0.517500 1.116484
v -1.036000 0.400000 1.085000
v -1.036000 0.282500 1.116484
v -1.036000 0.196484 1.202500
v -1.036000 0.165000 1.320000
v -1.036000 0.196484 1.437500
v -1.036000 0.282500 1.523516
v -1.036000 0.400000 1.555000
v -1.036000 0.517500 1.523516
v -1.036000 0.603516 1.437500
v -1.036000 0.635000 1.320000
v -1.039000 0.473612 1.277500
v -1.039000 0.442500 1.246388
v -1.039000 0.400000 1.235000
v -1.039000 0.357500 1.246388
v -1.039000 0.326388 1.277500
v -1.039000 0.315000 1.320000
v -1.039000 0.326388 1.362500
v -1.039000 0.357500 1.393612
v -1.039000 0.400000 1.405000
v -1.039000 0.442500 1.393612
v -1.039000 0.473612 1.362500
v -1.039000 0.485000 1.320000
v 0.810000 0.790000 -1.300000
v 1.050000 0.790000 -1.300000
v 0.810000 0.737750 -1.105000
v 1.050000 0.737750 -1.105000
v 0.810000 0.595000 -0.962250
v 1.050000 0.595000 -0.962250
v 0.810000 0.400000 -0.910000
v 1.050000 0.400000 -0.910000
v 0.810000 0.205000 -0.962250
v 1.050000 0.205000 -0.962250
v 0.810000 0.062250 -1.105000
v 1.050000 0.062250 -1.105000
v 0.810000 0.010000 -1.300000
v 1.050000 0.010000 -1.300000
v 0.810000 0.062250 -1.495000
v 1.050000 0.062250 -1.495000
v 0.810000 0.205000 -1.637750
v 1.050000 0.205000 -1.637750
v 0.810000 0.400000 -1.690000
v 1.050000 0.400000 -1.690000
v 0.810000 0.595000 -1.637750
v 1.050000 0.595000 -1.637750
v 0.810000 0.737750 -1.495000
v 1.050000 0.737750 -1.495000
v 1.056000 0.635000 -1.300000
v 1.056000 0.603516 -1.182500
v 1.056000 0.517500 -1.096484
v 1.056000 0.400000 -1.065000
v 1.056000 0.282500 -1.096484
v 1.056000 0.196484 -1.182500
v 1.056000 0.165000 -1.300000
v 1.056000 0.196484 -1.417500
v 1.056000 0.282500 -1.503516
v 1.056000 0.400000 -1.535000
v 1.056000 0.517500 -1.503516
v 1.056000 0.603516 -1.417500
v 1.059000 0.485000 -1.300000
v 1.059000 0.473612 -1.257500
v 1.059000 0.442500 -1.226388
v 1.059000 0.400000 -1.215000
v 1.059000 0.357500 -1.226388
v 1.059000 0.326388 -1.257500
v 1.059000 0.315000 -1.300000
v 1.059000 0.326388 -1.342500
v 1.059000 0.357500 -1.373612
v 1.059000 0.400000 -1.385000
v 1.059000 0.442500 -1.373612
v 1.059000 0.473612 -1.342500
v 0.790000 0.790000 1.320000
v 1.030000 0.790000 1.320000
v 0.790000 0.737750 1.515000
v 1.030000 0.737750 1.515000
v 0.790000 0.595000 1.657750
v 1.030000 0.595000 1.657750
v 0.790000 0.400000 1.710000
v 1.030000 0.400000 1.710000
v 0.790000 0.205000 1.657750
v 1.030000 0.205000 1.657750
v 0.790000 0.062250 1.515000
v 1.030000 0.062250 1.515000
v 0.790000 0.010000 1.320000
v 1.030000 0.010000 1.320000
v 0.790000 0.062250 1.125000
v 1.030000 0.062250 1.125000
v 0.790000 0.205000 0.982250
v 1.030000 0.205000 0.982250
v 0.790000 0.400000 0.930000
v 1.030000 0.400000 0.930000
v 0.790000 0.595000 0.982250
v 1.030000 0.595000 0.982250
v 0.790000 0.737750 1.125000
v 1.030000 0.737750 1.125000
v 1.036000 0.635000 1.320000
v 1.036000 0.603516 1.437500
v 1.036000 0.517500 1.523516
v 1.036000 0.400000 1.555000
v 1.036000 0.282500 1.523516
v 1.036000 0.196484 1.437500
v 1.036000 0.165000 1.320000
v 1.036000 0.196484 1.202500
v 1.036000 0.282500 1.116484
v 1.036000 0.400000 1.085000
v 1.036000 0.517500 1.116484
v 1.036000 0.603516 1.202500
v 1.039000 0.485000 1.320000
v 1.039000 0.473612 1.362500
v 1.039000 0.442500 1.393612
v 1.039000 0.400000 1.405000
v 1.039000 0.357500 1.393612
v 1.039000 0.326388 1.362500
v 1.039000 0.315000 1.320000
v 1.039000 0.326388 1.277500
v 1.039000 0.357500 1.246388
v 1.039000 0.400000 1.235000
v 1.039000 0.442500 1.246388
v 1.039000 0.473612 1.277500
g hibana-body-shell
usemtl body
f 1 4 3 2
f 21 22 23 24
f 1 2 6 5
f 4 8 7 3
f 1 5 8 4
f 2 3 7 6
f 5 6 10 9
f 8 12 11 7
f 5 9 12 8
f 6 7 11 10
f 9 10 14 13
f 12 16 15 11
f 9 13 16 12
f 10 11 15 14
f 13 14 18 17
f 16 20 19 15
f 13 17 20 16
f 14 15 19 18
f 17 18 22 21
f 20 24 23 19
f 17 21 24 20
f 18 19 23 22
g hibana-liftback-cabin
usemtl bodyDark
f 25 29 30 26
f 27 28 32 31
f 25 27 31 29
f 26 30 32 28
f 29 31 32 30
g hibana-rear-window
usemtl glass
f 33 34 35 36
g hibana-windshield
f 37 38 39 40
g hibana-rear-side-window--1
f 41 42 43 44
g hibana-front-side-window--1
f 45 46 47 48
g hibana-b-pillar--1
usemtl bodyDark
f 49 50 51 52
g hibana-rear-side-skirt--1
usemtl accent
f 53 54 55 56
g hibana-center-side-skirt--1
f 57 58 59 60
g hibana-front-side-skirt--1
f 61 62 63 64
g hibana-mirror--1
usemtl bodyDark
f 65 68 67 66
f 69 70 71 72
f 65 69 72 68
f 66 67 71 70
f 65 66 70 69
f 68 72 71 67
g hibana-door-handle--1
usemtl trim
f 73 76 75 74
f 77 78 79 80
f 73 77 80 76
f 74 75 79 78
f 73 74 78 77
f 76 80 79 75
g hibana-rear-side-window-1
usemtl glass
f 81 82 83 84
g hibana-front-side-window-1
f 85 86 87 88
g hibana-b-pillar-1
usemtl bodyDark
f 89 90 91 92
g hibana-rear-side-skirt-1
usemtl accent
f 93 94 95 96
g hibana-center-side-skirt-1
f 97 98 99 100
g hibana-front-side-skirt-1
f 101 102 103 104
g hibana-mirror-1
usemtl bodyDark
f 105 108 107 106
f 109 110 111 112
f 105 109 112 108
f 106 107 111 110
f 105 106 110 109
f 108 112 111 107
g hibana-door-handle-1
usemtl trim
f 113 116 115 114
f 117 118 119 120
f 113 117 120 116
f 114 115 119 118
f 113 114 118 117
f 116 120 119 115
g hibana-rear-bumper
usemtl bodyDark
f 121 124 123 122
f 125 126 127 128
f 121 125 128 124
f 122 123 127 126
f 121 122 126 125
f 124 128 127 123
g hibana-rear-garnish
usemtl trim
f 129 130 131 132
g hibana-left-outer-tail
usemtl tail
f 133 134 135 136 137 138 139 140 141 142 143 144
g hibana-left-inner-tail
f 145 146 147 148 149 150 151 152 153 154 155 156
g hibana-right-inner-tail
f 157 158 159 160 161 162 163 164 165 166 167 168
g hibana-right-outer-tail
f 169 170 171 172 173 174 175 176 177 178 179 180
g hibana-left-reverse
usemtl reverse
f 181 182 183 184
g hibana-right-reverse
f 185 186 187 188
g hibana-rear-plate
usemtl plate
f 189 190 191 192
g hibana-left-exhaust
usemtl exhaust
f 193 196 195 194
f 197 198 199 200
f 193 197 200 196
f 194 195 199 198
f 193 194 198 197
f 196 200 199 195
g hibana-right-exhaust
f 201 204 203 202
f 205 206 207 208
f 201 205 208 204
f 202 203 207 206
f 201 202 206 205
f 204 208 207 203
g hibana-front-bumper
usemtl bodyDark
f 209 212 211 210
f 213 214 215 216
f 209 213 216 212
f 210 211 215 214
f 209 210 214 213
f 212 216 215 211
g hibana-left-headlight-housing
usemtl trim
f 217 218 219 220
g hibana-right-headlight-housing
f 221 222 223 224
g hibana-left-headlight
usemtl headlight
f 225 226 227 228
g hibana-right-headlight
f 229 230 231 232
g hibana-left-indicator
usemtl indicator
f 233 234 235 236
g hibana-right-indicator
f 237 238 239 240
g hibana-front-grille
usemtl trim
f 241 242 243 244
g hibana-front-lip
usemtl accent
f 245 248 247 246
f 249 250 251 252
f 245 249 252 248
f 246 247 251 250
f 245 246 250 249
f 248 252 251 247
g hibana-rear-wheel--1-tread
usemtl tire
f 253 255 256 254
f 255 257 258 256
f 257 259 260 258
f 259 261 262 260
f 261 263 264 262
f 263 265 266 264
f 265 267 268 266
f 267 269 270 268
f 269 271 272 270
f 271 273 274 272
f 273 275 276 274
f 275 253 254 276
g hibana-rear-wheel--1-cap-a
f 275 273 271 269 267 265 263 261 259 257 255 253
g hibana-rear-wheel--1-cap-b
f 254 256 258 260 262 264 266 268 270 272 274 276
g hibana-rear-wheel--1-hub
usemtl wheel
f 277 278 279 280 281 282 283 284 285 286 287 288
g hibana-rear-wheel--1-hub-center
usemtl wheelDark
f 289 290 291 292 293 294 295 296 297 298 299 300
g hibana-front-wheel--1-tread
usemtl tire
f 301 303 304 302
f 303 305 306 304
f 305 307 308 306
f 307 309 310 308
f 309 311 312 310
f 311 313 314 312
f 313 315 316 314
f 315 317 318 316
f 317 319 320 318
f 319 321 322 320
f 321 323 324 322
f 323 301 302 324
g hibana-front-wheel--1-cap-a
f 323 321 319 317 315 313 311 309 307 305 303 301
g hibana-front-wheel--1-cap-b
f 302 304 306 308 310 312 314 316 318 320 322 324
g hibana-front-wheel--1-hub
usemtl wheel
f 325 326 327 328 329 330 331 332 333 334 335 336
g hibana-front-wheel--1-hub-center
usemtl wheelDark
f 337 338 339 340 341 342 343 344 345 346 347 348
g hibana-rear-wheel-1-tread
usemtl tire
f 349 351 352 350
f 351 353 354 352
f 353 355 356 354
f 355 357 358 356
f 357 359 360 358
f 359 361 362 360
f 361 363 364 362
f 363 365 366 364
f 365 367 368 366
f 367 369 370 368
f 369 371 372 370
f 371 349 350 372
g hibana-rear-wheel-1-cap-a
f 371 369 367 365 363 361 359 357 355 353 351 349
g hibana-rear-wheel-1-cap-b
f 350 352 354 356 358 360 362 364 366 368 370 372
g hibana-rear-wheel-1-hub
usemtl wheel
f 373 374 375 376 377 378 379 380 381 382 383 384
g hibana-rear-wheel-1-hub-center
usemtl wheelDark
f 385 386 387 388 389 390 391 392 393 394 395 396
g hibana-front-wheel-1-tread
usemtl tire
f 397 399 400 398
f 399 401 402 400
f 401 403 404 402
f 403 405 406 404
f 405 407 408 406
f 407 409 410 408
f 409 411 412 410
f 411 413 414 412
f 413 415 416 414
f 415 417 418 416
f 417 419 420 418
f 419 397 398 420
g hibana-front-wheel-1-cap-a
f 419 417 415 413 411 409 407 405 403 401 399 397
g hibana-front-wheel-1-cap-b
f 398 400 402 404 406 408 410 412 414 416 418 420
g hibana-front-wheel-1-hub
usemtl wheel
f 421 422 423 424 425 426 427 428 429 430 431 432
g hibana-front-wheel-1-hub-center
usemtl wheelDark
f 433 434 435 436 437 438 439 440 441 442 443 444
