# Wangan Zero Kagero VX mid-engine wedge
# Procedurally authored low-poly source model
mtllib kagero-vx-low-poly.mtl
v -1.040000 0.290000 -2.360000
v 1.040000 0.290000 -2.360000
v 1.040000 0.780000 -2.360000
v -1.040000 0.780000 -2.360000
v -1.050000 0.290000 -1.900000
v 1.050000 0.290000 -1.900000
v 1.050000 0.800000 -1.900000
v -1.050000 0.800000 -1.900000
v -1.040000 0.290000 -1.030000
v 1.040000 0.290000 -1.030000
v 1.040000 0.780000 -1.030000
v -1.040000 0.780000 -1.030000
v -1.000000 0.290000 0.660000
v 1.000000 0.290000 0.660000
v 1.000000 0.720000 0.660000
v -1.000000 0.720000 0.660000
v -0.950000 0.290000 1.520000
v 0.950000 0.290000 1.520000
v 0.950000 0.650000 1.520000
v -0.950000 0.650000 1.520000
v -0.860000 0.290000 2.220000
v 0.860000 0.290000 2.220000
v 0.860000 0.560000 2.220000
v -0.860000 0.560000 2.220000
v -0.830000 0.740000 -0.820000
v 0.830000 0.740000 -0.820000
v -0.740000 0.650000 1.220000
v 0.740000 0.650000 1.220000
v -0.630000 1.380000 -0.120000
v 0.630000 1.380000 -0.120000
v -0.560000 1.350000 0.720000
v 0.560000 1.350000 0.720000
v -0.710000 0.810000 -0.831000
v -0.530000 1.310000 -0.131000
v 0.530000 1.310000 -0.131000
v 0.710000 0.810000 -0.831000
v -0.640000 0.720000 1.231000
v 0.640000 0.720000 1.231000
v 0.490000 1.280000 0.731000
v -0.490000 1.280000 0.731000
v -0.800000 0.780000 0.180000
v -0.624000 1.310000 0.180000
v -0.642000 1.310000 -0.080000
v -0.822000 0.800000 -0.700000
v -0.748000 0.710000 1.080000
v -0.574000 1.270000 0.670000
v -0.620000 1.310000 0.300000
v -0.794000 0.770000 0.300000
v -0.804000 0.750000 0.300000
v -0.631000 1.340000 0.300000
v -0.634000 1.340000 0.180000
v -0.808000 0.760000 0.180000
v -1.056000 0.500000 -0.400000
v -1.056000 0.750000 -0.400000
v -1.056000 0.750000 -0.880000
v -1.056000 0.500000 -0.880000
v -1.056000 0.400000 -1.920000
v -1.056000 0.530000 -1.920000
v -1.056000 0.530000 -2.120000
v -1.056000 0.400000 -2.120000
v -1.046000 0.400000 0.940000
v -1.046000 0.530000 0.940000
v -1.046000 0.530000 -1.020000
v -1.046000 0.400000 -1.020000
v -0.976000 0.400000 2.020000
v -0.976000 0.530000 2.020000
v -0.976000 0.530000 1.860000
v -0.976000 0.400000 1.860000
v -1.050000 0.930000 0.755000
v -0.830000 0.930000 0.755000
v -0.830000 1.050000 0.755000
v -1.050000 1.050000 0.755000
v -1.050000 0.930000 1.005000
v -0.830000 0.930000 1.005000
v -0.830000 1.050000 1.005000
v -1.050000 1.050000 1.005000
v -1.027000 0.820000 0.340000
v -0.997000 0.820000 0.340000
v -0.997000 0.860000 0.340000
v -1.027000 0.860000 0.340000
v -1.027000 0.820000 0.540000
v -0.997000 0.820000 0.540000
v -0.997000 0.860000 0.540000
v -1.027000 0.860000 0.540000
v 0.822000 0.800000 -0.700000
v 0.642000 1.310000 -0.080000
v 0.624000 1.310000 0.180000
v 0.800000 0.780000 0.180000
v 0.794000 0.770000 0.300000
v 0.620000 1.310000 0.300000
v 0.574000 1.270000 0.670000
v 0.748000 0.710000 1.080000
v 0.808000 0.760000 0.180000
v 0.634000 1.340000 0.180000
v 0.631000 1.340000 0.300000
v 0.804000 0.750000 0.300000
v 1.056000 0.500000 -0.880000
v 1.056000 0.750000 -0.880000
v 1.056000 0.750000 -0.400000
v 1.056000 0.500000 -0.400000
v 1.056000 0.400000 -2.120000
v 1.056000 0.530000 -2.120000
v 1.056000 0.530000 -1.920000
v 1.056000 0.400000 -1.920000
v 1.046000 0.400000 -1.020000
v 1.046000 0.530000 -1.020000
v 1.046000 0.530000 0.940000
v 1.046000 0.400000 0.940000
v 0.976000 0.400000 1.860000
v 0.976000 0.530000 1.860000
v 0.976000 0.530000 2.020000
v 0.976000 0.400000 2.020000
v 0.830000 0.930000 0.755000
v 1.050000 0.930000 0.755000
v 1.050000 1.050000 0.755000
v 0.830000 1.050000 0.755000
v 0.830000 0.930000 1.005000
v 1.050000 0.930000 1.005000
v 1.050000 1.050000 1.005000
v 0.830000 1.050000 1.005000
v 0.997000 0.820000 0.340000
v 1.027000 0.820000 0.340000
v 1.027000 0.860000 0.340000
v 0.997000 0.860000 0.340000
v 0.997000 0.820000 0.540000
v 1.027000 0.820000 0.540000
v 1.027000 0.860000 0.540000
v 0.997000 0.860000 0.540000
v -0.600000 0.800000 -2.020000
v -0.260000 0.800000 -2.020000
v -0.260000 0.860000 -2.020000
v -0.600000 0.860000 -2.020000
v -0.600000 0.800000 -0.940000
v -0.260000 0.800000 -0.940000
v -0.260000 0.860000 -0.940000
v -0.600000 0.860000 -0.940000
v 0.260000 0.800000 -2.020000
v 0.600000 0.800000 -2.020000
v 0.600000 0.860000 -2.020000
v 0.260000 0.860000 -2.020000
v 0.260000 0.800000 -0.940000
v 0.600000 0.800000 -0.940000
v 0.600000 0.860000 -0.940000
v 0.260000 0.860000 -0.940000
v -0.970000 0.310000 -2.440000
v 0.970000 0.310000 -2.440000
v 0.970000 0.490000 -2.440000
v -0.970000 0.490000 -2.440000
v -0.970000 0.310000 -2.340000
v 0.970000 0.310000 -2.340000
v 0.970000 0.490000 -2.340000
v -0.970000 0.490000 -2.340000
v -0.900000 0.500000 -2.417000
v -0.900000 0.840000 -2.417000
v 0.900000 0.840000 -2.417000
v 0.900000 0.500000 -2.417000
v -0.820000 0.570000 -2.425000
v -0.820000 0.810000 -2.425000
v -0.740000 0.810000 -2.425000
v -0.740000 0.570000 -2.425000
v -0.680000 0.570000 -2.425000
v -0.680000 0.810000 -2.425000
v -0.600000 0.810000 -2.425000
v -0.600000 0.570000 -2.425000
v -0.540000 0.570000 -2.425000
v -0.540000 0.810000 -2.425000
v -0.460000 0.810000 -2.425000
v -0.460000 0.570000 -2.425000
v 0.460000 0.570000 -2.425000
v 0.460000 0.810000 -2.425000
v 0.540000 0.810000 -2.425000
v 0.540000 0.570000 -2.425000
v 0.600000 0.570000 -2.425000
v 0.600000 0.810000 -2.425000
v 0.680000 0.810000 -2.425000
v 0.680000 0.570000 -2.425000
v 0.740000 0.570000 -2.425000
v 0.740000 0.810000 -2.425000
v 0.820000 0.810000 -2.425000
v 0.820000 0.570000 -2.425000
v -0.310000 0.615000 -2.427000
v -0.310000 0.745000 -2.427000
v -0.190000 0.745000 -2.427000
v -0.190000 0.615000 -2.427000
v 0.190000 0.615000 -2.427000
v 0.190000 0.745000 -2.427000
v 0.310000 0.745000 -2.427000
v 0.310000 0.615000 -2.427000
v -0.200000 0.355000 -2.429000
v -0.200000 0.505000 -2.429000
v 0.200000 0.505000 -2.429000
v 0.200000 0.355000 -2.429000
v -0.250000 0.170000 -2.490000
v -0.110000 0.170000 -2.490000
v -0.110000 0.270000 -2.490000
v -0.250000 0.270000 -2.490000
v -0.250000 0.170000 -2.310000
v -0.110000 0.170000 -2.310000
v -0.110000 0.270000 -2.310000
v -0.250000 0.270000 -2.310000
v 0.110000 0.170000 -2.490000
v 0.250000 0.170000 -2.490000
v 0.250000 0.270000 -2.490000
v 0.110000 0.270000 -2.490000
v 0.110000 0.170000 -2.310000
v 0.250000 0.170000 -2.310000
v 0.250000 0.270000 -2.310000
v 0.110000 0.270000 -2.310000
v -0.780000 0.285000 2.180000
v 0.780000 0.285000 2.180000
v 0.780000 0.455000 2.180000
v -0.780000 0.455000 2.180000
v -0.780000 0.285000 2.280000
v 0.780000 0.285000 2.280000
v 0.780000 0.455000 2.280000
v -0.780000 0.455000 2.280000
v -0.780000 0.410000 2.227000
v -0.600000 0.410000 2.227000
v -0.600000 0.550000 2.227000
v -0.780000 0.550000 2.227000
v -0.560000 0.410000 2.227000
v -0.380000 0.410000 2.227000
v -0.380000 0.550000 2.227000
v -0.560000 0.550000 2.227000
v 0.380000 0.410000 2.227000
v 0.560000 0.410000 2.227000
v 0.560000 0.550000 2.227000
v 0.380000 0.550000 2.227000
v 0.600000 0.410000 2.227000
v 0.780000 0.410000 2.227000
v 0.780000 0.550000 2.227000
v 0.600000 0.550000 2.227000
v -0.875000 0.400000 2.229000
v -0.805000 0.400000 2.229000
v -0.805000 0.540000 2.229000
v -0.875000 0.540000 2.229000
v 0.805000 0.400000 2.229000
v 0.875000 0.400000 2.229000
v 0.875000 0.540000 2.229000
v 0.805000 0.540000 2.229000
v -0.270000 0.305000 2.230000
v 0.270000 0.305000 2.230000
v 0.270000 0.435000 2.230000
v -0.270000 0.435000 2.230000
v -0.750000 0.210000 2.160000
v 0.750000 0.210000 2.160000
v 0.750000 0.290000 2.160000
v -0.750000 0.290000 2.160000
v -0.750000 0.210000 2.260000
v 0.750000 0.210000 2.260000
v 0.750000 0.290000 2.260000
v -0.750000 0.290000 2.260000
v -1.145000 0.830000 -1.480000
v -0.895000 0.830000 -1.480000
v -1.145000 0.773731 -1.270000
v -0.895000 0.773731 -1.270000
v -1.145000 0.620000 -1.116269
v -0.895000 0.620000 -1.116269
v -1.145000 0.410000 -1.060000
v -0.895000 0.410000 -1.060000
v -1.145000 0.200000 -1.116269
v -0.895000 0.200000 -1.116269
v -1.145000 0.046269 -1.270000
v -0.895000 0.046269 -1.270000
v -1.145000 -0.010000 -1.480000
v -0.895000 -0.010000 -1.480000
v -1.145000 0.046269 -1.690000
v -0.895000 0.046269 -1.690000
v -1.145000 0.200000 -1.843731
v -0.895000 0.200000 -1.843731
v -1.145000 0.410000 -1.900000
v -0.895000 0.410000 -1.900000
v -1.145000 0.620000 -1.843731
v -0.895000 0.620000 -1.843731
v -1.145000 0.773731 -1.690000
v -0.895000 0.773731 -1.690000
v -1.151000 0.626506 -1.605000
v -1.151000 0.535000 -1.696506
v -1.151000 0.410000 -1.730000
v -1.151000 0.285000 -1.696506
v -1.151000 0.193494 -1.605000
v -1.151000 0.160000 -1.480000
v -1.151000 0.193494 -1.355000
v -1.151000 0.285000 -1.263494
v -1.151000 0.410000 -1.230000
v -1.151000 0.535000 -1.263494
v -1.151000 0.626506 -1.355000
v -1.151000 0.660000 -1.480000
v -1.154000 0.487942 -1.525000
v -1.154000 0.455000 -1.557942
v -1.154000 0.410000 -1.570000
v -1.154000 0.365000 -1.557942
v -1.154000 0.332058 -1.525000
v -1.154000 0.320000 -1.480000
v -1.154000 0.332058 -1.435000
v -1.154000 0.365000 -1.402058
v -1.154000 0.410000 -1.390000
v -1.154000 0.455000 -1.402058
v -1.154000 0.487942 -1.435000
v -1.154000 0.500000 -1.480000
v -1.050000 0.800000 1.400000
v -0.810000 0.800000 1.400000
v -1.050000 0.746410 1.600000
v -0.810000 0.746410 1.600000
v -1.050000 0.600000 1.746410
v -0.810000 0.600000 1.746410
v -1.050000 0.400000 1.800000
v -0.810000 0.400000 1.800000
v -1.050000 0.200000 1.746410
v -0.810000 0.200000 1.746410
v -1.050000 0.053590 1.600000
v -0.810000 0.053590 1.600000
v -1.050000 0.000000 1.400000
v -0.810000 0.000000 1.400000
v -1.050000 0.053590 1.200000
v -0.810000 0.053590 1.200000
v -1.050000 0.200000 1.053590
v -0.810000 0.200000 1.053590
v -1.050000 0.400000 1.000000
v -0.810000 0.400000 1.000000
v -1.050000 0.600000 1.053590
v -0.810000 0.600000 1.053590
v -1.050000 0.746410 1.200000
v -0.810000 0.746410 1.200000
v -1.056000 0.603516 1.282500
v -1.056000 0.517500 1.196484
v -1.056000 0.400000 1.165000
v -1.056000 0.282500 1.196484
v -1.056000 0.196484 1.282500
v -1.056000 0.165000 1.400000
v -1.056000 0.196484 1.517500
v -1.056000 0.282500 1.603516
v -1.056000 0.400000 1.635000
v -1.056000 0.517500 1.603516
v -1.056000 0.603516 1.517500
v -1.056000 0.635000 1.400000
v -1.059000 0.473612 1.357500
v -1.059000 0.442500 1.326388
v -1.059000 0.400000 1.315000
v -1.059000 0.357500 1.326388
v -1.059000 0.326388 1.357500
v -1.059000 0.315000 1.400000
v -1.059000 0.326388 1.442500
v -1.059000 0.357500 1.473612
v -1.059000 0.400000 1.485000
v -1.059000 0.442500 1.473612
v -1.059000 0.473612 1.442500
v -1.059000 0.485000 1.400000
v 0.895000 0.830000 -1.480000
v 1.145000 0.830000 -1.480000
v 0.895000 0.773731 -1.270000
v 1.145000 0.773731 -1.270000
v 0.895000 0.620000 -1.116269
v 1.145000 0.620000 -1.116269
v 0.895000 0.410000 -1.060000
v 1.145000 0.410000 -1.060000
v 0.895000 0.200000 -1.116269
v 1.145000 0.200000 -1.116269
v 0.895000 0.046269 -1.270000
v 1.145000 0.046269 -1.270000
v 0.895000 -0.010000 -1.480000
v 1.145000 -0.010000 -1.480000
v 0.895000 0.046269 -1.690000
v 1.145000 0.046269 -1.690000
v 0.895000 0.200000 -1.843731
v 1.145000 0.200000 -1.843731
v 0.895000 0.410000 -1.900000
v 1.145000 0.410000 -1.900000
v 0.895000 0.620000 -1.843731
v 1.145000 0.620000 -1.843731
v 0.895000 0.773731 -1.690000
v 1.145000 0.773731 -1.690000
v 1.151000 0.660000 -1.480000
v 1.151000 0.626506 -1.355000
v 1.151000 0.535000 -1.263494
v 1.151000 0.410000 -1.230000
v 1.151000 0.285000 -1.263494
v 1.151000 0.193494 -1.355000
v 1.151000 0.160000 -1.480000
v 1.151000 0.193494 -1.605000
v 1.151000 0.285000 -1.696506
v 1.151000 0.410000 -1.730000
v 1.151000 0.535000 -1.696506
v 1.151000 0.626506 -1.605000
v 1.154000 0.500000 -1.480000
v 1.154000 0.487942 -1.435000
v 1.154000 0.455000 -1.402058
v 1.154000 0.410000 -1.390000
v 1.154000 0.365000 -1.402058
v 1.154000 0.332058 -1.435000
v 1.154000 0.320000 -1.480000
v 1.154000 0.332058 -1.525000
v 1.154000 0.365000 -1.557942
v 1.154000 0.410000 -1.570000
v 1.154000 0.455000 -1.557942
v 1.154000 0.487942 -1.525000
v 0.810000 0.800000 1.400000
v 1.050000 0.800000 1.400000
v 0.810000 0.746410 1.600000
v 1.050000 0.746410 1.600000
v 0.810000 0.600000 1.746410
v 1.050000 0.600000 1.746410
v 0.810000 0.400000 1.800000
v 1.050000 0.400000 1.800000
v 0.810000 0.200000 1.746410
v 1.050000 0.200000 1.746410
v 0.810000 0.053590 1.600000
v 1.050000 0.053590 1.600000
v 0.810000 0.000000 1.400000
v 1.050000 0.000000 1.400000
v 0.810000 0.053590 1.200000
v 1.050000 0.053590 1.200000
v 0.810000 0.200000 1.053590
v 1.050000 0.200000 1.053590
v 0.810000 0.400000 1.000000
v 1.050000 0.400000 1.000000
v 0.810000 0.600000 1.053590
v 1.050000 0.600000 1.053590
v 0.810000 0.746410 1.200000
v 1.050000 0.746410 1.200000
v 1.056000 0.635000 1.400000
v 1.056000 0.603516 1.517500
v 1.056000 0.517500 1.603516
v 1.056000 0.400000 1.635000
v 1.056000 0.282500 1.603516
v 1.056000 0.196484 1.517500
v 1.056000 0.165000 1.400000
v 1.056000 0.196484 1.282500
v 1.056000 0.282500 1.196484
v 1.056000 0.400000 1.165000
v 1.056000 0.517500 1.196484
v 1.056000 0.603516 1.282500
v 1.059000 0.485000 1.400000
v 1.059000 0.473612 1.442500
v 1.059000 0.442500 1.473612
v 1.059000 0.400000 1.485000
v 1.059000 0.357500 1.473612
v 1.059000 0.326388 1.442500
v 1.059000 0.315000 1.400000
v 1.059000 0.326388 1.357500
v 1.059000 0.357500 1.326388
v 1.059000 0.400000 1.315000
v 1.059000 0.442500 1.326388
v 1.059000 0.473612 1.357500
g kagero-body-shell
usemtl body
f 1 4 3 2
f 21 22 23 24
f 1 2 6 5
f 4 8 7 3
f 1 5 8 4
f 2 3 7 6
f 5 6 10 9
f 8 12 11 7
f 5 9 12 8
f 6 7 11 10
f 9 10 14 13
f 12 16 15 11
f 9 13 16 12
f 10 11 15 14
f 13 14 18 17
f 16 20 19 15
f 13 17 20 16
f 14 15 19 18
f 17 18 22 21
f 20 24 23 19
f 17 21 24 20
f 18 19 23 22
g kagero-cab-forward-cabin
usemtl bodyDark
f 25 29 30 26
f 27 28 32 31
f 25 27 31 29
f 26 30 32 28
f 29 31 32 30
g kagero-rear-window
usemtl glass
f 33 34 35 36
g kagero-windshield
f 37 38 39 40
g kagero-rear-side-window--1
f 41 42 43 44
g kagero-front-side-window--1
f 45 46 47 48
g kagero-b-pillar--1
usemtl bodyDark
f 49 50 51 52
g kagero-side-intake--1
f 53 54 55 56
g kagero-rear-side-skirt--1
usemtl accent
f 57 58 59 60
g kagero-center-side-skirt--1
f 61 62 63 64
g kagero-front-side-skirt--1
f 65 66 67 68
g kagero-mirror--1
usemtl bodyDark
f 69 72 71 70
f 73 74 75 76
f 69 73 76 72
f 70 71 75 74
f 69 70 74 73
f 72 76 75 71
g kagero-door-handle--1
usemtl trim
f 77 80 79 78
f 81 82 83 84
f 77 81 84 80
f 78 79 83 82
f 77 78 82 81
f 80 84 83 79
g kagero-rear-side-window-1
usemtl glass
f 85 86 87 88
g kagero-front-side-window-1
f 89 90 91 92
g kagero-b-pillar-1
usemtl bodyDark
f 93 94 95 96
g kagero-side-intake-1
f 97 98 99 100
g kagero-rear-side-skirt-1
usemtl accent
f 101 102 103 104
g kagero-center-side-skirt-1
f 105 106 107 108
g kagero-front-side-skirt-1
f 109 110 111 112
g kagero-mirror-1
usemtl bodyDark
f 113 116 115 114
f 117 118 119 120
f 113 117 120 116
f 114 115 119 118
f 113 114 118 117
f 116 120 119 115
g kagero-door-handle-1
usemtl trim
f 121 124 123 122
f 125 126 127 128
f 121 125 128 124
f 122 123 127 126
f 121 122 126 125
f 124 128 127 123
g kagero-left-engine-vent
usemtl bodyDark
f 129 132 131 130
f 133 134 135 136
f 129 133 136 132
f 130 131 135 134
f 129 130 134 133
f 132 136 135 131
g kagero-right-engine-vent
f 137 140 139 138
f 141 142 143 144
f 137 141 144 140
f 138 139 143 142
f 137 138 142 141
f 140 144 143 139
g kagero-rear-bumper
f 145 148 147 146
f 149 150 151 152
f 145 149 152 148
f 146 147 151 150
f 145 146 150 149
f 148 152 151 147
g kagero-rear-garnish
usemtl trim
f 153 154 155 156
g kagero-tail-bar-0
usemtl tail
f 157 158 159 160
g kagero-tail-bar-1
f 161 162 163 164
g kagero-tail-bar-2
f 165 166 167 168
g kagero-tail-bar-3
f 169 170 171 172
g kagero-tail-bar-4
f 173 174 175 176
g kagero-tail-bar-5
f 177 178 179 180
g kagero-left-reverse
usemtl reverse
f 181 182 183 184
g kagero-right-reverse
f 185 186 187 188
g kagero-rear-plate
usemtl plate
f 189 190 191 192
g kagero-left-exhaust
usemtl exhaust
f 193 196 195 194
f 197 198 199 200
f 193 197 200 196
f 194 195 199 198
f 193 194 198 197
f 196 200 199 195
g kagero-right-exhaust
f 201 204 203 202
f 205 206 207 208
f 201 205 208 204
f 202 203 207 206
f 201 202 206 205
f 204 208 207 203
g kagero-front-bumper
usemtl bodyDark
f 209 212 211 210
f 213 214 215 216
f 209 213 216 212
f 210 211 215 214
f 209 210 214 213
f 212 216 215 211
g kagero-headlight-0
usemtl headlight
f 217 218 219 220
g kagero-headlight-1
f 221 222 223 224
g kagero-headlight-2
f 225 226 227 228
g kagero-headlight-3
f 229 230 231 232
g kagero-left-indicator
usemtl indicator
f 233 234 235 236
g kagero-right-indicator
f 237 238 239 240
g kagero-front-intake
usemtl trim
f 241 242 243 244
g kagero-front-lip
usemtl accent
f 245 248 247 246
f 249 250 251 252
f 245 249 252 248
f 246 247 251 250
f 245 246 250 249
f 248 252 251 247
g kagero-rear-wheel--1-tread
usemtl tire
f 253 255 256 254
f 255 257 258 256
f 257 259 260 258
f 259 261 262 260
f 261 263 264 262
f 263 265 266 264
f 265 267 268 266
f 267 269 270 268
f 269 271 272 270
f 271 273 274 272
f 273 275 276 274
f 275 253 254 276
g kagero-rear-wheel--1-cap-a
f 275 273 271 269 267 265 263 261 259 257 255 253
g kagero-rear-wheel--1-cap-b
f 254 256 258 260 262 264 266 268 270 272 274 276
g kagero-rear-wheel--1-hub
usemtl wheel
f 277 278 279 280 281 282 283 284 285 286 287 288
g kagero-rear-wheel--1-hub-center
usemtl wheelDark
f 289 290 291 292 293 294 295 296 297 298 299 300
g kagero-front-wheel--1-tread
usemtl tire
f 301 303 304 302
f 303 305 306 304
f 305 307 308 306
f 307 309 310 308
f 309 311 312 310
f 311 313 314 312
f 313 315 316 314
f 315 317 318 316
f 317 319 320 318
f 319 321 322 320
f 321 323 324 322
f 323 301 302 324
g kagero-front-wheel--1-cap-a
f 323 321 319 317 315 313 311 309 307 305 303 301
g kagero-front-wheel--1-cap-b
f 302 304 306 308 310 312 314 316 318 320 322 324
g kagero-front-wheel--1-hub
usemtl wheel
f 325 326 327 328 329 330 331 332 333 334 335 336
g kagero-front-wheel--1-hub-center
usemtl wheelDark
f 337 338 339 340 341 342 343 344 345 346 347 348
g kagero-rear-wheel-1-tread
usemtl tire
f 349 351 352 350
f 351 353 354 352
f 353 355 356 354
f 355 357 358 356
f 357 359 360 358
f 359 361 362 360
f 361 363 364 362
f 363 365 366 364
f 365 367 368 366
f 367 369 370 368
f 369 371 372 370
f 371 349 350 372
g kagero-rear-wheel-1-cap-a
f 371 369 367 365 363 361 359 357 355 353 351 349
g kagero-rear-wheel-1-cap-b
f 350 352 354 356 358 360 362 364 366 368 370 372
g kagero-rear-wheel-1-hub
usemtl wheel
f 373 374 375 376 377 378 379 380 381 382 383 384
g kagero-rear-wheel-1-hub-center
usemtl wheelDark
f 385 386 387 388 389 390 391 392 393 394 395 396
g kagero-front-wheel-1-tread
usemtl tire
f 397 399 400 398
f 399 401 402 400
f 401 403 404 402
f 403 405 406 404
f 405 407 408 406
f 407 409 410 408
f 409 411 412 410
f 411 413 414 412
f 413 415 416 414
f 415 417 418 416
f 417 419 420 418
f 419 397 398 420
g kagero-front-wheel-1-cap-a
f 419 417 415 413 411 409 407 405 403 401 399 397
g kagero-front-wheel-1-cap-b
f 398 400 402 404 406 408 410 412 414 416 418 420
g kagero-front-wheel-1-hub
usemtl wheel
f 421 422 423 424 425 426 427 428 429 430 431 432
g kagero-front-wheel-1-hub-center
usemtl wheelDark
f 433 434 435 436 437 438 439 440 441 442 443 444
