# Wangan Zero police interceptor pursuit sedan
# Procedurally authored low-poly source model
mtllib police-interceptor-low-poly.mtl
v -0.920000 0.320000 -2.160000
v 0.920000 0.320000 -2.160000
v 0.920000 0.960000 -2.160000
v -0.920000 0.960000 -2.160000
v -0.840000 0.320000 2.160000
v 0.840000 0.320000 2.160000
v 0.840000 0.880000 2.160000
v -0.840000 0.880000 2.160000
v -0.780000 0.880000 -1.200000
v 0.780000 0.880000 -1.200000
v -0.740000 0.880000 1.120000
v 0.740000 0.880000 1.120000
v -0.630000 1.590000 -0.780000
v 0.630000 1.590000 -0.780000
v -0.570000 1.550000 0.720000
v 0.570000 1.550000 0.720000
v -0.660000 0.970000 -1.211000
v -0.520000 1.500000 -0.790000
v 0.520000 1.500000 -0.790000
v 0.660000 0.970000 -1.211000
v -0.630000 0.970000 1.131000
v 0.630000 0.970000 1.131000
v 0.500000 1.470000 0.730000
v -0.500000 1.470000 0.730000
v -0.785000 0.980000 -0.080000
v -0.785000 1.460000 -0.080000
v -0.785000 1.460000 -0.700000
v -0.785000 0.980000 -1.020000
v -0.785000 0.980000 0.960000
v -0.720000 1.430000 0.620000
v -0.785000 1.460000 0.040000
v -0.785000 0.980000 0.040000
v 0.785000 0.980000 -1.020000
v 0.785000 1.460000 -0.700000
v 0.785000 1.460000 -0.080000
v 0.785000 0.980000 -0.080000
v 0.785000 0.980000 0.040000
v 0.785000 1.460000 0.040000
v 0.720000 1.430000 0.620000
v 0.740000 0.980000 0.960000
v -0.970000 0.350000 -2.290000
v 0.970000 0.350000 -2.290000
v 0.970000 0.530000 -2.290000
v -0.970000 0.530000 -2.290000
v -0.970000 0.350000 -2.150000
v 0.970000 0.350000 -2.150000
v 0.970000 0.530000 -2.150000
v -0.970000 0.530000 -2.150000
v -0.720000 0.610000 -2.296000
v -0.720000 0.910000 -2.296000
v 0.720000 0.910000 -2.296000
v 0.720000 0.610000 -2.296000
v -0.830000 0.665000 -2.302000
v -0.830000 0.915000 -2.302000
v -0.310000 0.915000 -2.302000
v -0.310000 0.665000 -2.302000
v 0.310000 0.665000 -2.302000
v 0.310000 0.915000 -2.302000
v 0.830000 0.915000 -2.302000
v 0.830000 0.665000 -2.302000
v -0.800000 0.715000 -2.309000
v -0.800000 0.865000 -2.309000
v -0.580000 0.865000 -2.309000
v -0.580000 0.715000 -2.309000
v 0.580000 0.715000 -2.309000
v 0.580000 0.865000 -2.309000
v 0.800000 0.865000 -2.309000
v 0.800000 0.715000 -2.309000
v -0.570000 0.715000 -2.310000
v -0.570000 0.865000 -2.310000
v -0.470000 0.865000 -2.310000
v -0.470000 0.715000 -2.310000
v 0.470000 0.715000 -2.310000
v 0.470000 0.865000 -2.310000
v 0.570000 0.865000 -2.310000
v 0.570000 0.715000 -2.310000
v -0.450000 0.715000 -2.311000
v -0.450000 0.865000 -2.311000
v -0.330000 0.865000 -2.311000
v -0.330000 0.715000 -2.311000
v 0.330000 0.715000 -2.311000
v 0.330000 0.865000 -2.311000
v 0.450000 0.865000 -2.311000
v 0.450000 0.715000 -2.311000
v -0.210000 0.590000 -2.310000
v -0.210000 0.770000 -2.310000
v 0.210000 0.770000 -2.310000
v 0.210000 0.590000 -2.310000
v 0.580000 0.195000 -2.330000
v 0.760000 0.195000 -2.330000
v 0.760000 0.305000 -2.330000
v 0.580000 0.305000 -2.330000
v 0.580000 0.195000 -2.150000
v 0.760000 0.195000 -2.150000
v 0.760000 0.305000 -2.150000
v 0.580000 0.305000 -2.150000
v -0.900000 0.340000 2.150000
v 0.900000 0.340000 2.150000
v 0.900000 0.520000 2.150000
v -0.900000 0.520000 2.150000
v -0.900000 0.340000 2.290000
v 0.900000 0.340000 2.290000
v 0.900000 0.520000 2.290000
v -0.900000 0.520000 2.290000
v -0.760000 0.660000 2.296000
v -0.340000 0.660000 2.296000
v -0.340000 0.860000 2.296000
v -0.760000 0.860000 2.296000
v 0.340000 0.660000 2.296000
v 0.760000 0.660000 2.296000
v 0.760000 0.860000 2.296000
v 0.340000 0.860000 2.296000
v -0.260000 0.580000 2.300000
v 0.260000 0.580000 2.300000
v 0.260000 0.760000 2.300000
v -0.260000 0.760000 2.300000
v -1.050000 1.065000 0.500000
v -0.830000 1.065000 0.500000
v -0.830000 1.195000 0.500000
v -1.050000 1.195000 0.500000
v -1.050000 1.065000 0.740000
v -0.830000 1.065000 0.740000
v -0.830000 1.195000 0.740000
v -1.050000 1.195000 0.740000
v -0.943500 0.997500 -0.450000
v -0.908500 0.997500 -0.450000
v -0.908500 1.042500 -0.450000
v -0.943500 1.042500 -0.450000
v -0.943500 0.997500 -0.210000
v -0.908500 0.997500 -0.210000
v -0.908500 1.042500 -0.210000
v -0.943500 1.042500 -0.210000
v -0.943500 0.997500 0.440000
v -0.908500 0.997500 0.440000
v -0.908500 1.042500 0.440000
v -0.943500 1.042500 0.440000
v -0.943500 0.997500 0.680000
v -0.908500 0.997500 0.680000
v -0.908500 1.042500 0.680000
v -0.943500 1.042500 0.680000
v 0.830000 1.065000 0.500000
v 1.050000 1.065000 0.500000
v 1.050000 1.195000 0.500000
v 0.830000 1.195000 0.500000
v 0.830000 1.065000 0.740000
v 1.050000 1.065000 0.740000
v 1.050000 1.195000 0.740000
v 0.830000 1.195000 0.740000
v 0.908500 0.997500 -0.450000
v 0.943500 0.997500 -0.450000
v 0.943500 1.042500 -0.450000
v 0.908500 1.042500 -0.450000
v 0.908500 0.997500 -0.210000
v 0.943500 0.997500 -0.210000
v 0.943500 1.042500 -0.210000
v 0.908500 1.042500 -0.210000
v 0.908500 0.997500 0.440000
v 0.943500 0.997500 0.440000
v 0.943500 1.042500 0.440000
v 0.908500 1.042500 0.440000
v 0.908500 0.997500 0.680000
v 0.943500 0.997500 0.680000
v 0.943500 1.042500 0.680000
v 0.908500 1.042500 0.680000
v -0.848000 0.420000 1.960000
v -0.848000 0.720000 1.960000
v -0.917000 0.720000 -1.980000
v -0.917000 0.420000 -1.980000
v -0.871000 0.780000 0.900000
v -0.871000 0.900000 0.900000
v -0.884000 0.900000 0.200000
v -0.884000 0.780000 0.200000
v 0.917000 0.420000 -1.980000
v 0.917000 0.720000 -1.980000
v 0.848000 0.720000 1.960000
v 0.848000 0.420000 1.960000
v 0.884000 0.780000 0.200000
v 0.884000 0.900000 0.200000
v 0.871000 0.900000 0.900000
v 0.871000 0.780000 0.900000
v -0.450000 1.565000 -0.200000
v 0.450000 1.565000 -0.200000
v 0.450000 1.635000 -0.200000
v -0.450000 1.635000 -0.200000
v -0.450000 1.565000 0.100000
v 0.450000 1.565000 0.100000
v 0.450000 1.635000 0.100000
v -0.450000 1.635000 0.100000
v -0.430000 1.620000 -0.180000
v -0.030000 1.620000 -0.180000
v -0.030000 1.720000 -0.180000
v -0.430000 1.720000 -0.180000
v -0.430000 1.620000 0.080000
v -0.030000 1.620000 0.080000
v -0.030000 1.720000 0.080000
v -0.430000 1.720000 0.080000
v 0.030000 1.620000 -0.180000
v 0.430000 1.620000 -0.180000
v 0.430000 1.720000 -0.180000
v 0.030000 1.720000 -0.180000
v 0.030000 1.620000 0.080000
v 0.430000 1.620000 0.080000
v 0.430000 1.720000 0.080000
v 0.030000 1.720000 0.080000
v -1.000000 0.770000 -1.350000
v -0.780000 0.770000 -1.350000
v -1.000000 0.719090 -1.160000
v -0.780000 0.719090 -1.160000
v -1.000000 0.580000 -1.020910
v -0.780000 0.580000 -1.020910
v -1.000000 0.390000 -0.970000
v -0.780000 0.390000 -0.970000
v -1.000000 0.200000 -1.020910
v -0.780000 0.200000 -1.020910
v -1.000000 0.060910 -1.160000
v -0.780000 0.060910 -1.160000
v -1.000000 0.010000 -1.350000
v -0.780000 0.010000 -1.350000
v -1.000000 0.060910 -1.540000
v -0.780000 0.060910 -1.540000
v -1.000000 0.200000 -1.679090
v -0.780000 0.200000 -1.679090
v -1.000000 0.390000 -1.730000
v -0.780000 0.390000 -1.730000
v -1.000000 0.580000 -1.679090
v -0.780000 0.580000 -1.679090
v -1.000000 0.719090 -1.540000
v -0.780000 0.719090 -1.540000
v -1.006000 0.580526 -1.460000
v -1.006000 0.500000 -1.540526
v -1.006000 0.390000 -1.570000
v -1.006000 0.280000 -1.540526
v -1.006000 0.199474 -1.460000
v -1.006000 0.170000 -1.350000
v -1.006000 0.199474 -1.240000
v -1.006000 0.280000 -1.159474
v -1.006000 0.390000 -1.130000
v -1.006000 0.500000 -1.159474
v -1.006000 0.580526 -1.240000
v -1.006000 0.610000 -1.350000
v -1.009000 0.467942 -1.395000
v -1.009000 0.435000 -1.427942
v -1.009000 0.390000 -1.440000
v -1.009000 0.345000 -1.427942
v -1.009000 0.312058 -1.395000
v -1.009000 0.300000 -1.350000
v -1.009000 0.312058 -1.305000
v -1.009000 0.345000 -1.272058
v -1.009000 0.390000 -1.260000
v -1.009000 0.435000 -1.272058
v -1.009000 0.467942 -1.305000
v -1.009000 0.480000 -1.350000
v -1.000000 0.770000 1.350000
v -0.780000 0.770000 1.350000
v -1.000000 0.719090 1.540000
v -0.780000 0.719090 1.540000
v -1.000000 0.580000 1.679090
v -0.780000 0.580000 1.679090
v -1.000000 0.390000 1.730000
v -0.780000 0.390000 1.730000
v -1.000000 0.200000 1.679090
v -0.780000 0.200000 1.679090
v -1.000000 0.060910 1.540000
v -0.780000 0.060910 1.540000
v -1.000000 0.010000 1.350000
v -0.780000 0.010000 1.350000
v -1.000000 0.060910 1.160000
v -0.780000 0.060910 1.160000
v -1.000000 0.200000 1.020910
v -0.780000 0.200000 1.020910
v -1.000000 0.390000 0.970000
v -0.780000 0.390000 0.970000
v -1.000000 0.580000 1.020910
v -0.780000 0.580000 1.020910
v -1.000000 0.719090 1.160000
v -0.780000 0.719090 1.160000
v -1.006000 0.580526 1.240000
v -1.006000 0.500000 1.159474
v -1.006000 0.390000 1.130000
v -1.006000 0.280000 1.159474
v -1.006000 0.199474 1.240000
v -1.006000 0.170000 1.350000
v -1.006000 0.199474 1.460000
v -1.006000 0.280000 1.540526
v -1.006000 0.390000 1.570000
v -1.006000 0.500000 1.540526
v -1.006000 0.580526 1.460000
v -1.006000 0.610000 1.350000
v -1.009000 0.467942 1.305000
v -1.009000 0.435000 1.272058
v -1.009000 0.390000 1.260000
v -1.009000 0.345000 1.272058
v -1.009000 0.312058 1.305000
v -1.009000 0.300000 1.350000
v -1.009000 0.312058 1.395000
v -1.009000 0.345000 1.427942
v -1.009000 0.390000 1.440000
v -1.009000 0.435000 1.427942
v -1.009000 0.467942 1.395000
v -1.009000 0.480000 1.350000
v 0.780000 0.770000 -1.350000
v 1.000000 0.770000 -1.350000
v 0.780000 0.719090 -1.160000
v 1.000000 0.719090 -1.160000
v 0.780000 0.580000 -1.020910
v 1.000000 0.580000 -1.020910
v 0.780000 0.390000 -0.970000
v 1.000000 0.390000 -0.970000
v 0.780000 0.200000 -1.020910
v 1.000000 0.200000 -1.020910
v 0.780000 0.060910 -1.160000
v 1.000000 0.060910 -1.160000
v 0.780000 0.010000 -1.350000
v 1.000000 0.010000 -1.350000
v 0.780000 0.060910 -1.540000
v 1.000000 0.060910 -1.540000
v 0.780000 0.200000 -1.679090
v 1.000000 0.200000 -1.679090
v 0.780000 0.390000 -1.730000
v 1.000000 0.390000 -1.730000
v 0.780000 0.580000 -1.679090
v 1.000000 0.580000 -1.679090
v 0.780000 0.719090 -1.540000
v 1.000000 0.719090 -1.540000
v 1.006000 0.610000 -1.350000
v 1.006000 0.580526 -1.240000
v 1.006000 0.500000 -1.159474
v 1.006000 0.390000 -1.130000
v 1.006000 0.280000 -1.159474
v 1.006000 0.199474 -1.240000
v 1.006000 0.170000 -1.350000
v 1.006000 0.199474 -1.460000
v 1.006000 0.280000 -1.540526
v 1.006000 0.390000 -1.570000
v 1.006000 0.500000 -1.540526
v 1.006000 0.580526 -1.460000
v 1.009000 0.480000 -1.350000
v 1.009000 0.467942 -1.305000
v 1.009000 0.435000 -1.272058
v 1.009000 0.390000 -1.260000
v 1.009000 0.345000 -1.272058
v 1.009000 0.312058 -1.305000
v 1.009000 0.300000 -1.350000
v 1.009000 0.312058 -1.395000
v 1.009000 0.345000 -1.427942
v 1.009000 0.390000 -1.440000
v 1.009000 0.435000 -1.427942
v 1.009000 0.467942 -1.395000
v 0.780000 0.770000 1.350000
v 1.000000 0.770000 1.350000
v 0.780000 0.719090 1.540000
v 1.000000 0.719090 1.540000
v 0.780000 0.580000 1.679090
v 1.000000 0.580000 1.679090
v 0.780000 0.390000 1.730000
v 1.000000 0.390000 1.730000
v 0.780000 0.200000 1.679090
v 1.000000 0.200000 1.679090
v 0.780000 0.060910 1.540000
v 1.000000 0.060910 1.540000
v 0.780000 0.010000 1.350000
v 1.000000 0.010000 1.350000
v 0.780000 0.060910 1.160000
v 1.000000 0.060910 1.160000
v 0.780000 0.200000 1.020910
v 1.000000 0.200000 1.020910
v 0.780000 0.390000 0.970000
v 1.000000 0.390000 0.970000
v 0.780000 0.580000 1.020910
v 1.000000 0.580000 1.020910
v 0.780000 0.719090 1.160000
v 1.000000 0.719090 1.160000
v 1.006000 0.610000 1.350000
v 1.006000 0.580526 1.460000
v 1.006000 0.500000 1.540526
v 1.006000 0.390000 1.570000
v 1.006000 0.280000 1.540526
v 1.006000 0.199474 1.460000
v 1.006000 0.170000 1.350000
v 1.006000 0.199474 1.240000
v 1.006000 0.280000 1.159474
v 1.006000 0.390000 1.130000
v 1.006000 0.500000 1.159474
v 1.006000 0.580526 1.240000
v 1.009000 0.480000 1.350000
v 1.009000 0.467942 1.395000
v 1.009000 0.435000 1.427942
v 1.009000 0.390000 1.440000
v 1.009000 0.345000 1.427942
v 1.009000 0.312058 1.395000
v 1.009000 0.300000 1.350000
v 1.009000 0.312058 1.305000
v 1.009000 0.345000 1.272058
v 1.009000 0.390000 1.260000
v 1.009000 0.435000 1.272058
v 1.009000 0.467942 1.305000
g body-shell
usemtl body
f 1 4 3 2
f 5 6 7 8
f 1 5 8 4
f 2 3 7 6
f 1 2 6 5
f 4 8 7 3
g cabin-shell
f 9 13 14 10
f 11 12 16 15
f 9 11 15 13
f 10 14 16 12
f 13 15 16 14
g rear-window
usemtl glass
f 17 18 19 20
g front-windshield
f 21 22 23 24
g rear-side-window--1
f 25 26 27 28
g front-side-window--1
f 29 30 31 32
g rear-side-window-1
f 33 34 35 36
g front-side-window-1
f 37 38 39 40
g rear-bumper
usemtl bodyDark
f 41 44 43 42
f 45 46 47 48
f 41 45 48 44
f 42 43 47 46
f 41 42 46 45
f 44 48 47 43
g rear-trim
usemtl trim
f 49 50 51 52
g left-tail-housing
f 53 54 55 56
g right-tail-housing
f 57 58 59 60
g left-tail
usemtl tail
f 61 62 63 64
g right-tail
f 65 66 67 68
g left-indicator
usemtl indicator
f 69 70 71 72
g right-indicator
f 73 74 75 76
g left-reverse
usemtl reverse
f 77 78 79 80
g right-reverse
f 81 82 83 84
g license-recess
usemtl plate
f 85 86 87 88
g exhaust
usemtl exhaust
f 89 92 91 90
f 93 94 95 96
f 89 93 96 92
f 90 91 95 94
f 89 90 94 93
f 92 96 95 91
g front-bumper
usemtl bodyDark
f 97 100 99 98
f 101 102 103 104
f 97 101 104 100
f 98 99 103 102
f 97 98 102 101
f 100 104 103 99
g left-headlight
usemtl headlight
f 105 106 107 108
g right-headlight
f 109 110 111 112
g front-grille
usemtl trim
f 113 114 115 116
g mirror--1
usemtl bodyDark
f 117 120 119 118
f 121 122 123 124
f 117 121 124 120
f 118 119 123 122
f 117 118 122 121
f 120 124 123 119
g rear-handle--1
usemtl trim
f 125 128 127 126
f 129 130 131 132
f 125 129 132 128
f 126 127 131 130
f 125 126 130 129
f 128 132 131 127
g front-handle--1
f 133 136 135 134
f 137 138 139 140
f 133 137 140 136
f 134 135 139 138
f 133 134 138 137
f 136 140 139 135
g mirror-1
usemtl bodyDark
f 141 144 143 142
f 145 146 147 148
f 141 145 148 144
f 142 143 147 146
f 141 142 146 145
f 144 148 147 143
g rear-handle-1
usemtl trim
f 149 152 151 150
f 153 154 155 156
f 149 153 156 152
f 150 151 155 154
f 149 150 154 153
f 152 156 155 151
g front-handle-1
f 157 160 159 158
f 161 162 163 164
f 157 161 164 160
f 158 159 163 162
f 157 158 162 161
f 160 164 163 159
g police-lower-band--1
usemtl accent
f 165 166 167 168
g police-door-decal--1
usemtl decal
f 169 170 171 172
g police-lower-band-1
usemtl accent
f 173 174 175 176
g police-door-decal-1
usemtl decal
f 177 178 179 180
g siren-bar-base
usemtl trim
f 181 184 183 182
f 185 186 187 188
f 181 185 188 184
f 182 183 187 186
f 181 182 186 185
f 184 188 187 183
g siren-lamp-red
usemtl sirenRed
f 189 192 191 190
f 193 194 195 196
f 189 193 196 192
f 190 191 195 194
f 189 190 194 193
f 192 196 195 191
g siren-lamp-blue
usemtl sirenBlue
f 197 200 199 198
f 201 202 203 204
f 197 201 204 200
f 198 199 203 202
f 197 198 202 201
f 200 204 203 199
g rear-wheel--1-tread
usemtl tire
f 205 207 208 206
f 207 209 210 208
f 209 211 212 210
f 211 213 214 212
f 213 215 216 214
f 215 217 218 216
f 217 219 220 218
f 219 221 222 220
f 221 223 224 222
f 223 225 226 224
f 225 227 228 226
f 227 205 206 228
g rear-wheel--1-cap-a
f 227 225 223 221 219 217 215 213 211 209 207 205
g rear-wheel--1-cap-b
f 206 208 210 212 214 216 218 220 222 224 226 228
g rear-wheel--1-hub
usemtl wheel
f 229 230 231 232 233 234 235 236 237 238 239 240
g rear-wheel--1-hub-center
usemtl wheelDark
f 241 242 243 244 245 246 247 248 249 250 251 252
g front-wheel--1-tread
usemtl tire
f 253 255 256 254
f 255 257 258 256
f 257 259 260 258
f 259 261 262 260
f 261 263 264 262
f 263 265 266 264
f 265 267 268 266
f 267 269 270 268
f 269 271 272 270
f 271 273 274 272
f 273 275 276 274
f 275 253 254 276
g front-wheel--1-cap-a
f 275 273 271 269 267 265 263 261 259 257 255 253
g front-wheel--1-cap-b
f 254 256 258 260 262 264 266 268 270 272 274 276
g front-wheel--1-hub
usemtl wheel
f 277 278 279 280 281 282 283 284 285 286 287 288
g front-wheel--1-hub-center
usemtl wheelDark
f 289 290 291 292 293 294 295 296 297 298 299 300
g rear-wheel-1-tread
usemtl tire
f 301 303 304 302
f 303 305 306 304
f 305 307 308 306
f 307 309 310 308
f 309 311 312 310
f 311 313 314 312
f 313 315 316 314
f 315 317 318 316
f 317 319 320 318
f 319 321 322 320
f 321 323 324 322
f 323 301 302 324
g rear-wheel-1-cap-a
f 323 321 319 317 315 313 311 309 307 305 303 301
g rear-wheel-1-cap-b
f 302 304 306 308 310 312 314 316 318 320 322 324
g rear-wheel-1-hub
usemtl wheel
f 325 326 327 328 329 330 331 332 333 334 335 336
g rear-wheel-1-hub-center
usemtl wheelDark
f 337 338 339 340 341 342 343 344 345 346 347 348
g front-wheel-1-tread
usemtl tire
f 349 351 352 350
f 351 353 354 352
f 353 355 356 354
f 355 357 358 356
f 357 359 360 358
f 359 361 362 360
f 361 363 364 362
f 363 365 366 364
f 365 367 368 366
f 367 369 370 368
f 369 371 372 370
f 371 349 350 372
g front-wheel-1-cap-a
f 371 369 367 365 363 361 359 357 355 353 351 349
g front-wheel-1-cap-b
f 350 352 354 356 358 360 362 364 366 368 370 372
g front-wheel-1-hub
usemtl wheel
f 373 374 375 376 377 378 379 380 381 382 383 384
g front-wheel-1-hub-center
usemtl wheelDark
f 385 386 387 388 389 390 391 392 393 394 395 396
