# Wangan Zero Reimei XR front-mid-engine hero coupe
# Procedurally authored low-poly source model
mtllib reimei-xr-low-poly.mtl
v -0.970000 0.250000 -2.380000
v 0.970000 0.250000 -2.380000
v 0.970000 0.800000 -2.380000
v -0.970000 0.800000 -2.380000
v -1.020000 0.250000 -2.020000
v 1.020000 0.250000 -2.020000
v 1.020000 0.850000 -2.020000
v -1.020000 0.850000 -2.020000
v -1.030000 0.250000 -1.550000
v 1.030000 0.250000 -1.550000
v 1.030000 0.862000 -1.550000
v -1.030000 0.862000 -1.550000
v -1.000000 0.250000 -0.420000
v 1.000000 0.250000 -0.420000
v 1.000000 0.835000 -0.420000
v -1.000000 0.835000 -0.420000
v -0.950000 0.250000 0.660000
v 0.950000 0.250000 0.660000
v 0.950000 0.770000 0.660000
v -0.950000 0.770000 0.660000
v -0.900000 0.250000 1.600000
v 0.900000 0.250000 1.600000
v 0.900000 0.750000 1.600000
v -0.900000 0.750000 1.600000
v -0.800000 0.250000 2.180000
v 0.800000 0.250000 2.180000
v 0.800000 0.640000 2.180000
v -0.800000 0.640000 2.180000
v -0.830000 0.870000 -1.570000
v 0.830000 0.870000 -1.570000
v -0.720000 0.780000 0.620000
v 0.720000 0.780000 0.620000
v -0.590000 1.430000 -0.910000
v 0.590000 1.430000 -0.910000
v -0.530000 1.400000 -0.080000
v 0.530000 1.400000 -0.080000
v -0.710000 0.930000 -1.581000
v -0.500000 1.360000 -0.921000
v 0.500000 1.360000 -0.921000
v 0.710000 0.930000 -1.581000
v -0.610000 0.860000 0.631000
v 0.610000 0.860000 0.631000
v 0.470000 1.330000 -0.069000
v -0.470000 1.330000 -0.069000
v -0.790000 0.900000 -0.530000
v -0.585000 1.360000 -0.530000
v -0.605000 1.360000 -0.860000
v -0.817000 0.940000 -1.430000
v -0.700000 0.830000 0.500000
v -0.535000 1.320000 -0.030000
v -0.580000 1.360000 -0.400000
v -0.786000 0.890000 -0.400000
v -0.792000 0.860000 -0.400000
v -0.590000 1.390000 -0.400000
v -0.594000 1.390000 -0.530000
v -0.795000 0.870000 -0.530000
v -1.045000 0.460000 -2.100000
v -1.045000 0.560000 -2.100000
v -1.000000 0.560000 -2.340000
v -1.000000 0.460000 -2.340000
v -0.955000 0.460000 0.920000
v -0.955000 0.560000 0.920000
v -1.025000 0.560000 -1.030000
v -1.025000 0.460000 -1.030000
v -0.845000 0.450000 2.030000
v -0.845000 0.550000 2.030000
v -0.900000 0.550000 1.940000
v -0.900000 0.450000 1.940000
v -0.970000 0.945000 0.150000
v -0.770000 0.945000 0.150000
v -0.770000 1.055000 0.150000
v -0.970000 1.055000 0.150000
v -0.970000 0.945000 0.410000
v -0.770000 0.945000 0.410000
v -0.770000 1.055000 0.410000
v -0.970000 1.055000 0.410000
v -1.015000 0.660000 -0.360000
v -0.985000 0.660000 -0.360000
v -0.985000 0.700000 -0.360000
v -1.015000 0.700000 -0.360000
v -1.015000 0.660000 -0.140000
v -0.985000 0.660000 -0.140000
v -0.985000 0.700000 -0.140000
v -1.015000 0.700000 -0.140000
v 0.817000 0.940000 -1.430000
v 0.605000 1.360000 -0.860000
v 0.585000 1.360000 -0.530000
v 0.790000 0.900000 -0.530000
v 0.786000 0.890000 -0.400000
v 0.580000 1.360000 -0.400000
v 0.535000 1.320000 -0.030000
v 0.700000 0.830000 0.500000
v 0.795000 0.870000 -0.530000
v 0.594000 1.390000 -0.530000
v 0.590000 1.390000 -0.400000
v 0.792000 0.860000 -0.400000
v 1.000000 0.460000 -2.340000
v 1.000000 0.560000 -2.340000
v 1.045000 0.560000 -2.100000
v 1.045000 0.460000 -2.100000
v 1.025000 0.460000 -1.030000
v 1.025000 0.560000 -1.030000
v 0.955000 0.560000 0.920000
v 0.955000 0.460000 0.920000
v 0.900000 0.450000 1.940000
v 0.900000 0.550000 1.940000
v 0.845000 0.550000 2.030000
v 0.845000 0.450000 2.030000
v 0.770000 0.945000 0.150000
v 0.970000 0.945000 0.150000
v 0.970000 1.055000 0.150000
v 0.770000 1.055000 0.150000
v 0.770000 0.945000 0.410000
v 0.970000 0.945000 0.410000
v 0.970000 1.055000 0.410000
v 0.770000 1.055000 0.410000
v 0.985000 0.660000 -0.360000
v 1.015000 0.660000 -0.360000
v 1.015000 0.700000 -0.360000
v 0.985000 0.700000 -0.360000
v 0.985000 0.660000 -0.140000
v 1.015000 0.660000 -0.140000
v 1.015000 0.700000 -0.140000
v 0.985000 0.700000 -0.140000
v -0.730000 0.849000 -2.020000
v -0.470000 0.849000 -2.020000
v -0.470000 0.899000 -2.020000
v -0.730000 0.899000 -2.020000
v -0.730000 0.849000 -1.580000
v -0.470000 0.849000 -1.580000
v -0.470000 0.899000 -1.580000
v -0.730000 0.899000 -1.580000
v 0.470000 0.849000 -2.020000
v 0.730000 0.849000 -2.020000
v 0.730000 0.899000 -2.020000
v 0.470000 0.899000 -2.020000
v 0.470000 0.849000 -1.580000
v 0.730000 0.849000 -1.580000
v 0.730000 0.899000 -1.580000
v 0.470000 0.899000 -1.580000
v -1.000000 0.295000 -2.490000
v 1.000000 0.295000 -2.490000
v 1.000000 0.465000 -2.490000
v -1.000000 0.465000 -2.490000
v -1.000000 0.295000 -2.370000
v 1.000000 0.295000 -2.370000
v 1.000000 0.465000 -2.370000
v -1.000000 0.465000 -2.370000
v -0.900000 0.607500 -2.386000
v -0.900000 0.792500 -2.386000
v 0.900000 0.792500 -2.386000
v 0.900000 0.607500 -2.386000
v -0.870000 0.657500 -2.392000
v -0.870000 0.772500 -2.392000
v -0.070000 0.772500 -2.392000
v -0.070000 0.657500 -2.392000
v 0.070000 0.657500 -2.392000
v 0.070000 0.772500 -2.392000
v 0.870000 0.772500 -2.392000
v 0.870000 0.657500 -2.392000
v -0.040000 0.610000 -2.394000
v -0.040000 0.790000 -2.394000
v 0.040000 0.790000 -2.394000
v 0.040000 0.610000 -2.394000
v -0.180000 0.500000 -2.396000
v -0.180000 0.590000 -2.396000
v -0.080000 0.590000 -2.396000
v -0.080000 0.500000 -2.396000
v 0.080000 0.500000 -2.396000
v 0.080000 0.590000 -2.396000
v 0.180000 0.590000 -2.396000
v 0.180000 0.500000 -2.396000
v -0.200000 0.345000 -2.398000
v -0.200000 0.495000 -2.398000
v 0.200000 0.495000 -2.398000
v 0.200000 0.345000 -2.398000
v -0.330000 0.255000 -2.540000
v -0.190000 0.255000 -2.540000
v -0.190000 0.345000 -2.540000
v -0.330000 0.345000 -2.540000
v -0.330000 0.255000 -2.340000
v -0.190000 0.255000 -2.340000
v -0.190000 0.345000 -2.340000
v -0.330000 0.345000 -2.340000
v 0.190000 0.255000 -2.540000
v 0.330000 0.255000 -2.540000
v 0.330000 0.345000 -2.540000
v 0.190000 0.345000 -2.540000
v 0.190000 0.255000 -2.340000
v 0.330000 0.255000 -2.340000
v 0.330000 0.345000 -2.340000
v 0.190000 0.345000 -2.340000
v -0.810000 0.280000 2.160000
v 0.810000 0.280000 2.160000
v 0.810000 0.440000 2.160000
v -0.810000 0.440000 2.160000
v -0.810000 0.280000 2.280000
v 0.810000 0.280000 2.280000
v 0.810000 0.440000 2.280000
v -0.810000 0.440000 2.280000
v -0.670000 0.420000 2.186000
v -0.210000 0.420000 2.186000
v -0.210000 0.580000 2.186000
v -0.670000 0.580000 2.186000
v 0.210000 0.420000 2.186000
v 0.670000 0.420000 2.186000
v 0.670000 0.580000 2.186000
v 0.210000 0.580000 2.186000
v -0.630000 0.472500 2.192000
v -0.290000 0.472500 2.192000
v -0.290000 0.557500 2.192000
v -0.630000 0.557500 2.192000
v 0.290000 0.472500 2.192000
v 0.630000 0.472500 2.192000
v 0.630000 0.557500 2.192000
v 0.290000 0.557500 2.192000
v -0.740000 0.415000 2.192000
v -0.660000 0.415000 2.192000
v -0.660000 0.525000 2.192000
v -0.740000 0.525000 2.192000
v 0.660000 0.415000 2.192000
v 0.740000 0.415000 2.192000
v 0.740000 0.525000 2.192000
v 0.660000 0.525000 2.192000
v -0.280000 0.305000 2.188000
v 0.280000 0.305000 2.188000
v 0.280000 0.415000 2.188000
v -0.280000 0.415000 2.188000
v -0.750000 0.210000 2.180000
v 0.750000 0.210000 2.180000
v 0.750000 0.280000 2.180000
v -0.750000 0.280000 2.180000
v -0.750000 0.210000 2.280000
v 0.750000 0.210000 2.280000
v 0.750000 0.280000 2.280000
v -0.750000 0.280000 2.280000
v -1.045000 0.806507 -1.748381
v -1.045000 0.711127 -1.891127
v -1.045000 0.568381 -1.986507
v -1.045000 0.400000 -2.020000
v -1.045000 0.231619 -1.986507
v -1.045000 0.088873 -1.891127
v -1.045000 -0.006507 -1.748381
v -1.045000 -0.040000 -1.580000
v -1.045000 -0.006507 -1.411619
v -1.045000 0.088873 -1.268873
v -1.045000 0.231619 -1.173493
v -1.045000 0.400000 -1.140000
v -1.045000 0.568381 -1.173493
v -1.045000 0.711127 -1.268873
v -1.045000 0.806507 -1.411619
v -1.045000 0.840000 -1.580000
v -0.935000 0.701835 1.358407
v -0.935000 0.621630 1.238370
v -0.935000 0.501593 1.158165
v -0.935000 0.360000 1.130000
v -0.935000 0.218407 1.158165
v -0.935000 0.098370 1.238370
v -0.935000 0.018165 1.358407
v -0.935000 -0.010000 1.500000
v -0.935000 0.018165 1.641593
v -0.935000 0.098370 1.761630
v -0.935000 0.218407 1.841835
v -0.935000 0.360000 1.870000
v -0.935000 0.501593 1.841835
v -0.935000 0.621630 1.761630
v -0.935000 0.701835 1.641593
v -0.935000 0.730000 1.500000
v -1.055000 0.760000 -1.580000
v -0.815000 0.760000 -1.580000
v -1.055000 0.709090 -1.390000
v -0.815000 0.709090 -1.390000
v -1.055000 0.570000 -1.250910
v -0.815000 0.570000 -1.250910
v -1.055000 0.380000 -1.200000
v -0.815000 0.380000 -1.200000
v -1.055000 0.190000 -1.250910
v -0.815000 0.190000 -1.250910
v -1.055000 0.050910 -1.390000
v -0.815000 0.050910 -1.390000
v -1.055000 0.000000 -1.580000
v -0.815000 0.000000 -1.580000
v -1.055000 0.050910 -1.770000
v -0.815000 0.050910 -1.770000
v -1.055000 0.190000 -1.909090
v -0.815000 0.190000 -1.909090
v -1.055000 0.380000 -1.960000
v -0.815000 0.380000 -1.960000
v -1.055000 0.570000 -1.909090
v -0.815000 0.570000 -1.909090
v -1.055000 0.709090 -1.770000
v -0.815000 0.709090 -1.770000
v -1.061000 0.579186 -1.695000
v -1.061000 0.495000 -1.779186
v -1.061000 0.380000 -1.810000
v -1.061000 0.265000 -1.779186
v -1.061000 0.180814 -1.695000
v -1.061000 0.150000 -1.580000
v -1.061000 0.180814 -1.465000
v -1.061000 0.265000 -1.380814
v -1.061000 0.380000 -1.350000
v -1.061000 0.495000 -1.380814
v -1.061000 0.579186 -1.465000
v -1.061000 0.610000 -1.580000
v -1.064000 0.457942 -1.625000
v -1.064000 0.425000 -1.657942
v -1.064000 0.380000 -1.670000
v -1.064000 0.335000 -1.657942
v -1.064000 0.302058 -1.625000
v -1.064000 0.290000 -1.580000
v -1.064000 0.302058 -1.535000
v -1.064000 0.335000 -1.502058
v -1.064000 0.380000 -1.490000
v -1.064000 0.425000 -1.502058
v -1.064000 0.457942 -1.535000
v -1.064000 0.470000 -1.580000
v -0.950000 0.660000 1.500000
v -0.730000 0.660000 1.500000
v -0.950000 0.615788 1.665000
v -0.730000 0.615788 1.665000
v -0.950000 0.495000 1.785788
v -0.730000 0.495000 1.785788
v -0.950000 0.330000 1.830000
v -0.730000 0.330000 1.830000
v -0.950000 0.165000 1.785788
v -0.730000 0.165000 1.785788
v -0.950000 0.044212 1.665000
v -0.730000 0.044212 1.665000
v -0.950000 0.000000 1.500000
v -0.730000 0.000000 1.500000
v -0.950000 0.044212 1.335000
v -0.730000 0.044212 1.335000
v -0.950000 0.165000 1.214212
v -0.730000 0.165000 1.214212
v -0.950000 0.330000 1.170000
v -0.730000 0.330000 1.170000
v -0.950000 0.495000 1.214212
v -0.730000 0.495000 1.214212
v -0.950000 0.615788 1.335000
v -0.730000 0.615788 1.335000
v -0.956000 0.503205 1.400000
v -0.956000 0.430000 1.326795
v -0.956000 0.330000 1.300000
v -0.956000 0.230000 1.326795
v -0.956000 0.156795 1.400000
v -0.956000 0.130000 1.500000
v -0.956000 0.156795 1.600000
v -0.956000 0.230000 1.673205
v -0.956000 0.330000 1.700000
v -0.956000 0.430000 1.673205
v -0.956000 0.503205 1.600000
v -0.956000 0.530000 1.500000
v -0.959000 0.399282 1.460000
v -0.959000 0.370000 1.430718
v -0.959000 0.330000 1.420000
v -0.959000 0.290000 1.430718
v -0.959000 0.260718 1.460000
v -0.959000 0.250000 1.500000
v -0.959000 0.260718 1.540000
v -0.959000 0.290000 1.569282
v -0.959000 0.330000 1.580000
v -0.959000 0.370000 1.569282
v -0.959000 0.399282 1.540000
v -0.959000 0.410000 1.500000
v 1.045000 0.840000 -1.580000
v 1.045000 0.806507 -1.411619
v 1.045000 0.711127 -1.268873
v 1.045000 0.568381 -1.173493
v 1.045000 0.400000 -1.140000
v 1.045000 0.231619 -1.173493
v 1.045000 0.088873 -1.268873
v 1.045000 -0.006507 -1.411619
v 1.045000 -0.040000 -1.580000
v 1.045000 -0.006507 -1.748381
v 1.045000 0.088873 -1.891127
v 1.045000 0.231619 -1.986507
v 1.045000 0.400000 -2.020000
v 1.045000 0.568381 -1.986507
v 1.045000 0.711127 -1.891127
v 1.045000 0.806507 -1.748381
v 0.935000 0.730000 1.500000
v 0.935000 0.701835 1.641593
v 0.935000 0.621630 1.761630
v 0.935000 0.501593 1.841835
v 0.935000 0.360000 1.870000
v 0.935000 0.218407 1.841835
v 0.935000 0.098370 1.761630
v 0.935000 0.018165 1.641593
v 0.935000 -0.010000 1.500000
v 0.935000 0.018165 1.358407
v 0.935000 0.098370 1.238370
v 0.935000 0.218407 1.158165
v 0.935000 0.360000 1.130000
v 0.935000 0.501593 1.158165
v 0.935000 0.621630 1.238370
v 0.935000 0.701835 1.358407
v 0.815000 0.760000 -1.580000
v 1.055000 0.760000 -1.580000
v 0.815000 0.709090 -1.390000
v 1.055000 0.709090 -1.390000
v 0.815000 0.570000 -1.250910
v 1.055000 0.570000 -1.250910
v 0.815000 0.380000 -1.200000
v 1.055000 0.380000 -1.200000
v 0.815000 0.190000 -1.250910
v 1.055000 0.190000 -1.250910
v 0.815000 0.050910 -1.390000
v 1.055000 0.050910 -1.390000
v 0.815000 0.000000 -1.580000
v 1.055000 0.000000 -1.580000
v 0.815000 0.050910 -1.770000
v 1.055000 0.050910 -1.770000
v 0.815000 0.190000 -1.909090
v 1.055000 0.190000 -1.909090
v 0.815000 0.380000 -1.960000
v 1.055000 0.380000 -1.960000
v 0.815000 0.570000 -1.909090
v 1.055000 0.570000 -1.909090
v 0.815000 0.709090 -1.770000
v 1.055000 0.709090 -1.770000
v 1.061000 0.610000 -1.580000
v 1.061000 0.579186 -1.465000
v 1.061000 0.495000 -1.380814
v 1.061000 0.380000 -1.350000
v 1.061000 0.265000 -1.380814
v 1.061000 0.180814 -1.465000
v 1.061000 0.150000 -1.580000
v 1.061000 0.180814 -1.695000
v 1.061000 0.265000 -1.779186
v 1.061000 0.380000 -1.810000
v 1.061000 0.495000 -1.779186
v 1.061000 0.579186 -1.695000
v 1.064000 0.470000 -1.580000
v 1.064000 0.457942 -1.535000
v 1.064000 0.425000 -1.502058
v 1.064000 0.380000 -1.490000
v 1.064000 0.335000 -1.502058
v 1.064000 0.302058 -1.535000
v 1.064000 0.290000 -1.580000
v 1.064000 0.302058 -1.625000
v 1.064000 0.335000 -1.657942
v 1.064000 0.380000 -1.670000
v 1.064000 0.425000 -1.657942
v 1.064000 0.457942 -1.625000
v 0.730000 0.660000 1.500000
v 0.950000 0.660000 1.500000
v 0.730000 0.615788 1.665000
v 0.950000 0.615788 1.665000
v 0.730000 0.495000 1.785788
v 0.950000 0.495000 1.785788
v 0.730000 0.330000 1.830000
v 0.950000 0.330000 1.830000
v 0.730000 0.165000 1.785788
v 0.950000 0.165000 1.785788
v 0.730000 0.044212 1.665000
v 0.950000 0.044212 1.665000
v 0.730000 0.000000 1.500000
v 0.950000 0.000000 1.500000
v 0.730000 0.044212 1.335000
v 0.950000 0.044212 1.335000
v 0.730000 0.165000 1.214212
v 0.950000 0.165000 1.214212
v 0.730000 0.330000 1.170000
v 0.950000 0.330000 1.170000
v 0.730000 0.495000 1.214212
v 0.950000 0.495000 1.214212
v 0.730000 0.615788 1.335000
v 0.950000 0.615788 1.335000
v 0.956000 0.530000 1.500000
v 0.956000 0.503205 1.600000
v 0.956000 0.430000 1.673205
v 0.956000 0.330000 1.700000
v 0.956000 0.230000 1.673205
v 0.956000 0.156795 1.600000
v 0.956000 0.130000 1.500000
v 0.956000 0.156795 1.400000
v 0.956000 0.230000 1.326795
v 0.956000 0.330000 1.300000
v 0.956000 0.430000 1.326795
v 0.956000 0.503205 1.400000
v 0.959000 0.410000 1.500000
v 0.959000 0.399282 1.540000
v 0.959000 0.370000 1.569282
v 0.959000 0.330000 1.580000
v 0.959000 0.290000 1.569282
v 0.959000 0.260718 1.540000
v 0.959000 0.250000 1.500000
v 0.959000 0.260718 1.460000
v 0.959000 0.290000 1.430718
v 0.959000 0.330000 1.420000
v 0.959000 0.370000 1.430718
v 0.959000 0.399282 1.460000
g reimei-body-shell
usemtl body
f 1 4 3 2
f 25 26 27 28
f 1 2 6 5
f 4 8 7 3
f 1 5 8 4
f 2 3 7 6
f 5 6 10 9
f 8 12 11 7
f 5 9 12 8
f 6 7 11 10
f 9 10 14 13
f 12 16 15 11
f 9 13 16 12
f 10 11 15 14
f 13 14 18 17
f 16 20 19 15
f 13 17 20 16
f 14 15 19 18
f 17 18 22 21
f 20 24 23 19
f 17 21 24 20
f 18 19 23 22
f 21 22 26 25
f 24 28 27 23
f 21 25 28 24
f 22 23 27 26
g reimei-rear-set-canopy
usemtl bodyDark
f 29 33 34 30
f 31 32 36 35
f 29 31 35 33
f 30 34 36 32
f 33 35 36 34
g reimei-rear-window
usemtl glass
f 37 38 39 40
g reimei-windshield
f 41 42 43 44
g reimei-rear-side-window--1
f 45 46 47 48
g reimei-front-side-window--1
f 49 50 51 52
g reimei-b-pillar--1
usemtl bodyDark
f 53 54 55 56
g reimei-rear-accent-blade--1
usemtl accent
f 57 58 59 60
g reimei-door-accent-blade--1
f 61 62 63 64
g reimei-nose-accent-blade--1
f 65 66 67 68
g reimei-mirror--1
usemtl bodyDark
f 69 72 71 70
f 73 74 75 76
f 69 73 76 72
f 70 71 75 74
f 69 70 74 73
f 72 76 75 71
g reimei-door-handle--1
usemtl trim
f 77 80 79 78
f 81 82 83 84
f 77 81 84 80
f 78 79 83 82
f 77 78 82 81
f 80 84 83 79
g reimei-rear-side-window-1
usemtl glass
f 85 86 87 88
g reimei-front-side-window-1
f 89 90 91 92
g reimei-b-pillar-1
usemtl bodyDark
f 93 94 95 96
g reimei-rear-accent-blade-1
usemtl accent
f 97 98 99 100
g reimei-door-accent-blade-1
f 101 102 103 104
g reimei-nose-accent-blade-1
f 105 106 107 108
g reimei-mirror-1
usemtl bodyDark
f 109 112 111 110
f 113 114 115 116
f 109 113 116 112
f 110 111 115 114
f 109 110 114 113
f 112 116 115 111
g reimei-door-handle-1
usemtl trim
f 117 120 119 118
f 121 122 123 124
f 117 121 124 120
f 118 119 123 122
f 117 118 122 121
f 120 124 123 119
g reimei-left-deck-vent
usemtl bodyDark
f 125 128 127 126
f 129 130 131 132
f 125 129 132 128
f 126 127 131 130
f 125 126 130 129
f 128 132 131 127
g reimei-right-deck-vent
f 133 136 135 134
f 137 138 139 140
f 133 137 140 136
f 134 135 139 138
f 133 134 138 137
f 136 140 139 135
g reimei-rear-bumper
f 141 144 143 142
f 145 146 147 148
f 141 145 148 144
f 142 143 147 146
f 141 142 146 145
f 144 148 147 143
g reimei-rear-garnish
usemtl trim
f 149 150 151 152
g reimei-left-tail-bar
usemtl tail
f 153 154 155 156
g reimei-right-tail-bar
f 157 158 159 160
g reimei-tail-spine
usemtl accent
f 161 162 163 164
g reimei-left-reverse
usemtl reverse
f 165 166 167 168
g reimei-right-reverse
f 169 170 171 172
g reimei-rear-plate
usemtl plate
f 173 174 175 176
g reimei-left-exhaust
usemtl exhaust
f 177 180 179 178
f 181 182 183 184
f 177 181 184 180
f 178 179 183 182
f 177 178 182 181
f 180 184 183 179
g reimei-right-exhaust
f 185 188 187 186
f 189 190 191 192
f 185 189 192 188
f 186 187 191 190
f 185 186 190 189
f 188 192 191 187
g reimei-front-bumper
usemtl bodyDark
f 193 196 195 194
f 197 198 199 200
f 193 197 200 196
f 194 195 199 198
f 193 194 198 197
f 196 200 199 195
g reimei-left-headlight-housing
usemtl trim
f 201 202 203 204
g reimei-right-headlight-housing
f 205 206 207 208
g reimei-left-headlight
usemtl headlight
f 209 210 211 212
g reimei-right-headlight
f 213 214 215 216
g reimei-left-indicator
usemtl indicator
f 217 218 219 220
g reimei-right-indicator
f 221 222 223 224
g reimei-front-grille
usemtl trim
f 225 226 227 228
g reimei-front-lip
usemtl accent
f 229 232 231 230
f 233 234 235 236
f 229 233 236 232
f 230 231 235 234
f 229 230 234 233
f 232 236 235 231
g reimei-rear-arch--1
usemtl bodyDark
f 237 238 239 240 241 242 243 244 245 246 247 248 249 250 251 252
g reimei-front-arch--1
f 253 254 255 256 257 258 259 260 261 262 263 264 265 266 267 268
g reimei-rear-wheel--1-tread
usemtl tire
f 269 271 272 270
f 271 273 274 272
f 273 275 276 274
f 275 277 278 276
f 277 279 280 278
f 279 281 282 280
f 281 283 284 282
f 283 285 286 284
f 285 287 288 286
f 287 289 290 288
f 289 291 292 290
f 291 269 270 292
g reimei-rear-wheel--1-cap-a
f 291 289 287 285 283 281 279 277 275 273 271 269
g reimei-rear-wheel--1-cap-b
f 270 272 274 276 278 280 282 284 286 288 290 292
g reimei-rear-wheel--1-hub
usemtl wheel
f 293 294 295 296 297 298 299 300 301 302 303 304
g reimei-rear-wheel--1-hub-center
usemtl wheelDark
f 305 306 307 308 309 310 311 312 313 314 315 316
g reimei-front-wheel--1-tread
usemtl tire
f 317 319 320 318
f 319 321 322 320
f 321 323 324 322
f 323 325 326 324
f 325 327 328 326
f 327 329 330 328
f 329 331 332 330
f 331 333 334 332
f 333 335 336 334
f 335 337 338 336
f 337 339 340 338
f 339 317 318 340
g reimei-front-wheel--1-cap-a
f 339 337 335 333 331 329 327 325 323 321 319 317
g reimei-front-wheel--1-cap-b
f 318 320 322 324 326 328 330 332 334 336 338 340
g reimei-front-wheel--1-hub
usemtl wheel
f 341 342 343 344 345 346 347 348 349 350 351 352
g reimei-front-wheel--1-hub-center
usemtl wheelDark
f 353 354 355 356 357 358 359 360 361 362 363 364
g reimei-rear-arch-1
usemtl bodyDark
f 365 366 367 368 369 370 371 372 373 374 375 376 377 378 379 380
g reimei-front-arch-1
f 381 382 383 384 385 386 387 388 389 390 391 392 393 394 395 396
g reimei-rear-wheel-1-tread
usemtl tire
f 397 399 400 398
f 399 401 402 400
f 401 403 404 402
f 403 405 406 404
f 405 407 408 406
f 407 409 410 408
f 409 411 412 410
f 411 413 414 412
f 413 415 416 414
f 415 417 418 416
f 417 419 420 418
f 419 397 398 420
g reimei-rear-wheel-1-cap-a
f 419 417 415 413 411 409 407 405 403 401 399 397
g reimei-rear-wheel-1-cap-b
f 398 400 402 404 406 408 410 412 414 416 418 420
g reimei-rear-wheel-1-hub
usemtl wheel
f 421 422 423 424 425 426 427 428 429 430 431 432
g reimei-rear-wheel-1-hub-center
usemtl wheelDark
f 433 434 435 436 437 438 439 440 441 442 443 444
g reimei-front-wheel-1-tread
usemtl tire
f 445 447 448 446
f 447 449 450 448
f 449 451 452 450
f 451 453 454 452
f 453 455 456 454
f 455 457 458 456
f 457 459 460 458
f 459 461 462 460
f 461 463 464 462
f 463 465 466 464
f 465 467 468 466
f 467 445 446 468
g reimei-front-wheel-1-cap-a
f 467 465 463 461 459 457 455 453 451 449 447 445
g reimei-front-wheel-1-cap-b
f 446 448 450 452 454 456 458 460 462 464 466 468
g reimei-front-wheel-1-hub
usemtl wheel
f 469 470 471 472 473 474 475 476 477 478 479 480
g reimei-front-wheel-1-hub-center
usemtl wheelDark
f 481 482 483 484 485 486 487 488 489 490 491 492
