# Wangan Zero generic container traffic truck
# Procedurally authored low-poly source model
mtllib traffic-truck-container-low-poly.mtl
v -0.980000 0.310000 -2.925000
v 0.980000 0.310000 -2.925000
v 0.980000 0.550000 -2.925000
v -0.980000 0.550000 -2.925000
v -0.980000 0.310000 2.625000
v 0.980000 0.310000 2.625000
v 0.980000 0.550000 2.625000
v -0.980000 0.550000 2.625000
v -1.025000 0.590000 -2.950000
v 1.025000 0.590000 -2.950000
v 1.025000 0.810000 -2.950000
v -1.025000 0.810000 -2.950000
v -1.025000 0.590000 0.950000
v 1.025000 0.590000 0.950000
v 1.025000 0.810000 0.950000
v -1.025000 0.810000 0.950000
v -1.000000 0.800000 -2.875000
v 1.000000 0.800000 -2.875000
v 1.000000 2.600000 -2.875000
v -1.000000 2.600000 -2.875000
v -1.000000 0.800000 0.875000
v 1.000000 0.800000 0.875000
v 1.000000 2.600000 0.875000
v -1.000000 2.600000 0.875000
v -0.940000 0.425000 0.880000
v 0.940000 0.425000 0.880000
v 0.940000 2.075000 0.880000
v -0.940000 2.075000 0.880000
v -0.940000 0.425000 2.540000
v 0.940000 0.425000 2.540000
v 0.940000 2.075000 2.540000
v -0.940000 2.075000 2.540000
v -0.970000 2.040000 0.850000
v 0.970000 2.040000 0.850000
v 0.970000 2.160000 0.850000
v -0.970000 2.160000 0.850000
v -0.970000 2.040000 2.570000
v 0.970000 2.040000 2.570000
v 0.970000 2.160000 2.570000
v -0.970000 2.160000 2.570000
v -1.040000 0.160000 -3.090000
v 1.040000 0.160000 -3.090000
v 1.040000 0.340000 -3.090000
v -1.040000 0.340000 -3.090000
v -1.040000 0.160000 -2.910000
v 1.040000 0.160000 -2.910000
v 1.040000 0.340000 -2.910000
v -1.040000 0.340000 -2.910000
v -0.980000 0.320000 2.500000
v 0.980000 0.320000 2.500000
v 0.980000 0.520000 2.500000
v -0.980000 0.520000 2.500000
v -0.980000 0.320000 2.680000
v 0.980000 0.320000 2.680000
v 0.980000 0.520000 2.680000
v -0.980000 0.520000 2.680000
v -0.750000 1.295000 2.548000
v 0.750000 1.295000 2.548000
v 0.750000 1.945000 2.548000
v -0.750000 1.945000 2.548000
v -0.780000 0.650000 2.551000
v -0.360000 0.650000 2.551000
v -0.360000 0.850000 2.551000
v -0.780000 0.850000 2.551000
v 0.360000 0.650000 2.551000
v 0.780000 0.650000 2.551000
v 0.780000 0.850000 2.551000
v 0.360000 0.850000 2.551000
v -0.275000 0.640000 2.553000
v 0.275000 0.640000 2.553000
v 0.275000 0.860000 2.553000
v -0.275000 0.860000 2.553000
v -0.017500 0.890000 -2.881000
v -0.017500 2.510000 -2.881000
v 0.017500 2.510000 -2.881000
v 0.017500 0.890000 -2.881000
v -0.340000 1.000000 -2.883000
v -0.340000 2.400000 -2.883000
v -0.300000 2.400000 -2.883000
v -0.300000 1.000000 -2.883000
v 0.300000 1.000000 -2.883000
v 0.300000 2.400000 -2.883000
v 0.340000 2.400000 -2.883000
v 0.340000 1.000000 -2.883000
v -0.890000 0.355000 -3.096000
v -0.890000 0.525000 -3.096000
v -0.590000 0.525000 -3.096000
v -0.590000 0.355000 -3.096000
v 0.590000 0.355000 -3.096000
v 0.590000 0.525000 -3.096000
v 0.890000 0.525000 -3.096000
v 0.890000 0.355000 -3.096000
v -0.570000 0.375000 -3.098000
v -0.570000 0.505000 -3.098000
v -0.450000 0.505000 -3.098000
v -0.450000 0.375000 -3.098000
v 0.450000 0.375000 -3.098000
v 0.450000 0.505000 -3.098000
v 0.570000 0.505000 -3.098000
v 0.570000 0.375000 -3.098000
v -0.210000 0.285000 -3.100000
v -0.210000 0.455000 -3.100000
v 0.210000 0.455000 -3.100000
v 0.210000 0.285000 -3.100000
v -0.951000 1.350000 2.350000
v -0.951000 1.910000 2.350000
v -0.951000 1.910000 1.080000
v -0.951000 1.350000 1.080000
v -1.160000 1.520000 2.090000
v -0.960000 1.520000 2.090000
v -0.960000 1.720000 2.090000
v -1.160000 1.720000 2.090000
v -1.160000 1.520000 2.270000
v -0.960000 1.520000 2.270000
v -0.960000 1.720000 2.270000
v -1.160000 1.720000 2.270000
v -1.011000 2.500000 0.740000
v -1.011000 2.580000 0.740000
v -1.011000 2.580000 -2.750000
v -1.011000 2.500000 -2.750000
v -1.011000 0.820000 0.740000
v -1.011000 0.900000 0.740000
v -1.011000 0.900000 -2.750000
v -1.011000 0.820000 -2.750000
v -1.011000 0.900000 -2.295000
v -1.011000 2.500000 -2.295000
v -1.011000 2.500000 -2.345000
v -1.011000 0.900000 -2.345000
v -1.011000 0.900000 -1.675000
v -1.011000 2.500000 -1.675000
v -1.011000 2.500000 -1.725000
v -1.011000 0.900000 -1.725000
v -1.011000 0.900000 -1.055000
v -1.011000 2.500000 -1.055000
v -1.011000 2.500000 -1.105000
v -1.011000 0.900000 -1.105000
v -1.011000 0.900000 -0.435000
v -1.011000 2.500000 -0.435000
v -1.011000 2.500000 -0.485000
v -1.011000 0.900000 -0.485000
v -1.011000 0.900000 0.185000
v -1.011000 2.500000 0.185000
v -1.011000 2.500000 0.135000
v -1.011000 0.900000 0.135000
v -1.100000 0.940000 -2.120000
v -0.820000 0.940000 -2.120000
v -1.100000 0.877032 -1.885000
v -0.820000 0.877032 -1.885000
v -1.100000 0.705000 -1.712968
v -0.820000 0.705000 -1.712968
v -1.100000 0.470000 -1.650000
v -0.820000 0.470000 -1.650000
v -1.100000 0.235000 -1.712968
v -0.820000 0.235000 -1.712968
v -1.100000 0.062968 -1.885000
v -0.820000 0.062968 -1.885000
v -1.100000 0.000000 -2.120000
v -0.820000 0.000000 -2.120000
v -1.100000 0.062968 -2.355000
v -0.820000 0.062968 -2.355000
v -1.100000 0.235000 -2.527032
v -0.820000 0.235000 -2.527032
v -1.100000 0.470000 -2.590000
v -0.820000 0.470000 -2.590000
v -1.100000 0.705000 -2.527032
v -0.820000 0.705000 -2.527032
v -1.100000 0.877032 -2.355000
v -0.820000 0.877032 -2.355000
v -1.106000 0.703827 -2.255000
v -1.106000 0.605000 -2.353827
v -1.106000 0.470000 -2.390000
v -1.106000 0.335000 -2.353827
v -1.106000 0.236173 -2.255000
v -1.106000 0.200000 -2.120000
v -1.106000 0.236173 -1.985000
v -1.106000 0.335000 -1.886173
v -1.106000 0.470000 -1.850000
v -1.106000 0.605000 -1.886173
v -1.106000 0.703827 -1.985000
v -1.106000 0.740000 -2.120000
v -1.109000 0.565263 -2.175000
v -1.109000 0.525000 -2.215263
v -1.109000 0.470000 -2.230000
v -1.109000 0.415000 -2.215263
v -1.109000 0.374737 -2.175000
v -1.109000 0.360000 -2.120000
v -1.109000 0.374737 -2.065000
v -1.109000 0.415000 -2.024737
v -1.109000 0.470000 -2.010000
v -1.109000 0.525000 -2.024737
v -1.109000 0.565263 -2.065000
v -1.109000 0.580000 -2.120000
v -1.100000 0.940000 -1.400000
v -0.820000 0.940000 -1.400000
v -1.100000 0.877032 -1.165000
v -0.820000 0.877032 -1.165000
v -1.100000 0.705000 -0.992968
v -0.820000 0.705000 -0.992968
v -1.100000 0.470000 -0.930000
v -0.820000 0.470000 -0.930000
v -1.100000 0.235000 -0.992968
v -0.820000 0.235000 -0.992968
v -1.100000 0.062968 -1.165000
v -0.820000 0.062968 -1.165000
v -1.100000 0.000000 -1.400000
v -0.820000 0.000000 -1.400000
v -1.100000 0.062968 -1.635000
v -0.820000 0.062968 -1.635000
v -1.100000 0.235000 -1.807032
v -0.820000 0.235000 -1.807032
v -1.100000 0.470000 -1.870000
v -0.820000 0.470000 -1.870000
v -1.100000 0.705000 -1.807032
v -0.820000 0.705000 -1.807032
v -1.100000 0.877032 -1.635000
v -0.820000 0.877032 -1.635000
v -1.106000 0.703827 -1.535000
v -1.106000 0.605000 -1.633827
v -1.106000 0.470000 -1.670000
v -1.106000 0.335000 -1.633827
v -1.106000 0.236173 -1.535000
v -1.106000 0.200000 -1.400000
v -1.106000 0.236173 -1.265000
v -1.106000 0.335000 -1.166173
v -1.106000 0.470000 -1.130000
v -1.106000 0.605000 -1.166173
v -1.106000 0.703827 -1.265000
v -1.106000 0.740000 -1.400000
v -1.109000 0.565263 -1.455000
v -1.109000 0.525000 -1.495263
v -1.109000 0.470000 -1.510000
v -1.109000 0.415000 -1.495263
v -1.109000 0.374737 -1.455000
v -1.109000 0.360000 -1.400000
v -1.109000 0.374737 -1.345000
v -1.109000 0.415000 -1.304737
v -1.109000 0.470000 -1.290000
v -1.109000 0.525000 -1.304737
v -1.109000 0.565263 -1.345000
v -1.109000 0.580000 -1.400000
v -1.100000 0.940000 1.700000
v -0.820000 0.940000 1.700000
v -1.100000 0.877032 1.935000
v -0.820000 0.877032 1.935000
v -1.100000 0.705000 2.107032
v -0.820000 0.705000 2.107032
v -1.100000 0.470000 2.170000
v -0.820000 0.470000 2.170000
v -1.100000 0.235000 2.107032
v -0.820000 0.235000 2.107032
v -1.100000 0.062968 1.935000
v -0.820000 0.062968 1.935000
v -1.100000 0.000000 1.700000
v -0.820000 0.000000 1.700000
v -1.100000 0.062968 1.465000
v -0.820000 0.062968 1.465000
v -1.100000 0.235000 1.292968
v -0.820000 0.235000 1.292968
v -1.100000 0.470000 1.230000
v -0.820000 0.470000 1.230000
v -1.100000 0.705000 1.292968
v -0.820000 0.705000 1.292968
v -1.100000 0.877032 1.465000
v -0.820000 0.877032 1.465000
v -1.106000 0.703827 1.565000
v -1.106000 0.605000 1.466173
v -1.106000 0.470000 1.430000
v -1.106000 0.335000 1.466173
v -1.106000 0.236173 1.565000
v -1.106000 0.200000 1.700000
v -1.106000 0.236173 1.835000
v -1.106000 0.335000 1.933827
v -1.106000 0.470000 1.970000
v -1.106000 0.605000 1.933827
v -1.106000 0.703827 1.835000
v -1.106000 0.740000 1.700000
v -1.109000 0.565263 1.645000
v -1.109000 0.525000 1.604737
v -1.109000 0.470000 1.590000
v -1.109000 0.415000 1.604737
v -1.109000 0.374737 1.645000
v -1.109000 0.360000 1.700000
v -1.109000 0.374737 1.755000
v -1.109000 0.415000 1.795263
v -1.109000 0.470000 1.810000
v -1.109000 0.525000 1.795263
v -1.109000 0.565263 1.755000
v -1.109000 0.580000 1.700000
v 0.951000 1.350000 1.080000
v 0.951000 1.910000 1.080000
v 0.951000 1.910000 2.350000
v 0.951000 1.350000 2.350000
v 0.960000 1.520000 2.090000
v 1.160000 1.520000 2.090000
v 1.160000 1.720000 2.090000
v 0.960000 1.720000 2.090000
v 0.960000 1.520000 2.270000
v 1.160000 1.520000 2.270000
v 1.160000 1.720000 2.270000
v 0.960000 1.720000 2.270000
v 1.011000 2.500000 -2.750000
v 1.011000 2.580000 -2.750000
v 1.011000 2.580000 0.740000
v 1.011000 2.500000 0.740000
v 1.011000 0.820000 -2.750000
v 1.011000 0.900000 -2.750000
v 1.011000 0.900000 0.740000
v 1.011000 0.820000 0.740000
v 1.011000 0.900000 -2.345000
v 1.011000 2.500000 -2.345000
v 1.011000 2.500000 -2.295000
v 1.011000 0.900000 -2.295000
v 1.011000 0.900000 -1.725000
v 1.011000 2.500000 -1.725000
v 1.011000 2.500000 -1.675000
v 1.011000 0.900000 -1.675000
v 1.011000 0.900000 -1.105000
v 1.011000 2.500000 -1.105000
v 1.011000 2.500000 -1.055000
v 1.011000 0.900000 -1.055000
v 1.011000 0.900000 -0.485000
v 1.011000 2.500000 -0.485000
v 1.011000 2.500000 -0.435000
v 1.011000 0.900000 -0.435000
v 1.011000 0.900000 0.135000
v 1.011000 2.500000 0.135000
v 1.011000 2.500000 0.185000
v 1.011000 0.900000 0.185000
v 0.820000 0.940000 -2.120000
v 1.100000 0.940000 -2.120000
v 0.820000 0.877032 -1.885000
v 1.100000 0.877032 -1.885000
v 0.820000 0.705000 -1.712968
v 1.100000 0.705000 -1.712968
v 0.820000 0.470000 -1.650000
v 1.100000 0.470000 -1.650000
v 0.820000 0.235000 -1.712968
v 1.100000 0.235000 -1.712968
v 0.820000 0.062968 -1.885000
v 1.100000 0.062968 -1.885000
v 0.820000 0.000000 -2.120000
v 1.100000 0.000000 -2.120000
v 0.820000 0.062968 -2.355000
v 1.100000 0.062968 -2.355000
v 0.820000 0.235000 -2.527032
v 1.100000 0.235000 -2.527032
v 0.820000 0.470000 -2.590000
v 1.100000 0.470000 -2.590000
v 0.820000 0.705000 -2.527032
v 1.100000 0.705000 -2.527032
v 0.820000 0.877032 -2.355000
v 1.100000 0.877032 -2.355000
v 1.106000 0.740000 -2.120000
v 1.106000 0.703827 -1.985000
v 1.106000 0.605000 -1.886173
v 1.106000 0.470000 -1.850000
v 1.106000 0.335000 -1.886173
v 1.106000 0.236173 -1.985000
v 1.106000 0.200000 -2.120000
v 1.106000 0.236173 -2.255000
v 1.106000 0.335000 -2.353827
v 1.106000 0.470000 -2.390000
v 1.106000 0.605000 -2.353827
v 1.106000 0.703827 -2.255000
v 1.109000 0.580000 -2.120000
v 1.109000 0.565263 -2.065000
v 1.109000 0.525000 -2.024737
v 1.109000 0.470000 -2.010000
v 1.109000 0.415000 -2.024737
v 1.109000 0.374737 -2.065000
v 1.109000 0.360000 -2.120000
v 1.109000 0.374737 -2.175000
v 1.109000 0.415000 -2.215263
v 1.109000 0.470000 -2.230000
v 1.109000 0.525000 -2.215263
v 1.109000 0.565263 -2.175000
v 0.820000 0.940000 -1.400000
v 1.100000 0.940000 -1.400000
v 0.820000 0.877032 -1.165000
v 1.100000 0.877032 -1.165000
v 0.820000 0.705000 -0.992968
v 1.100000 0.705000 -0.992968
v 0.820000 0.470000 -0.930000
v 1.100000 0.470000 -0.930000
v 0.820000 0.235000 -0.992968
v 1.100000 0.235000 -0.992968
v 0.820000 0.062968 -1.165000
v 1.100000 0.062968 -1.165000
v 0.820000 0.000000 -1.400000
v 1.100000 0.000000 -1.400000
v 0.820000 0.062968 -1.635000
v 1.100000 0.062968 -1.635000
v 0.820000 0.235000 -1.807032
v 1.100000 0.235000 -1.807032
v 0.820000 0.470000 -1.870000
v 1.100000 0.470000 -1.870000
v 0.820000 0.705000 -1.807032
v 1.100000 0.705000 -1.807032
v 0.820000 0.877032 -1.635000
v 1.100000 0.877032 -1.635000
v 1.106000 0.740000 -1.400000
v 1.106000 0.703827 -1.265000
v 1.106000 0.605000 -1.166173
v 1.106000 0.470000 -1.130000
v 1.106000 0.335000 -1.166173
v 1.106000 0.236173 -1.265000
v 1.106000 0.200000 -1.400000
v 1.106000 0.236173 -1.535000
v 1.106000 0.335000 -1.633827
v 1.106000 0.470000 -1.670000
v 1.106000 0.605000 -1.633827
v 1.106000 0.703827 -1.535000
v 1.109000 0.580000 -1.400000
v 1.109000 0.565263 -1.345000
v 1.109000 0.525000 -1.304737
v 1.109000 0.470000 -1.290000
v 1.109000 0.415000 -1.304737
v 1.109000 0.374737 -1.345000
v 1.109000 0.360000 -1.400000
v 1.109000 0.374737 -1.455000
v 1.109000 0.415000 -1.495263
v 1.109000 0.470000 -1.510000
v 1.109000 0.525000 -1.495263
v 1.109000 0.565263 -1.455000
v 0.820000 0.940000 1.700000
v 1.100000 0.940000 1.700000
v 0.820000 0.877032 1.935000
v 1.100000 0.877032 1.935000
v 0.820000 0.705000 2.107032
v 1.100000 0.705000 2.107032
v 0.820000 0.470000 2.170000
v 1.100000 0.470000 2.170000
v 0.820000 0.235000 2.107032
v 1.100000 0.235000 2.107032
v 0.820000 0.062968 1.935000
v 1.100000 0.062968 1.935000
v 0.820000 0.000000 1.700000
v 1.100000 0.000000 1.700000
v 0.820000 0.062968 1.465000
v 1.100000 0.062968 1.465000
v 0.820000 0.235000 1.292968
v 1.100000 0.235000 1.292968
v 0.820000 0.470000 1.230000
v 1.100000 0.470000 1.230000
v 0.820000 0.705000 1.292968
v 1.100000 0.705000 1.292968
v 0.820000 0.877032 1.465000
v 1.100000 0.877032 1.465000
v 1.106000 0.740000 1.700000
v 1.106000 0.703827 1.835000
v 1.106000 0.605000 1.933827
v 1.106000 0.470000 1.970000
v 1.106000 0.335000 1.933827
v 1.106000 0.236173 1.835000
v 1.106000 0.200000 1.700000
v 1.106000 0.236173 1.565000
v 1.106000 0.335000 1.466173
v 1.106000 0.470000 1.430000
v 1.106000 0.605000 1.466173
v 1.106000 0.703827 1.565000
v 1.109000 0.580000 1.700000
v 1.109000 0.565263 1.755000
v 1.109000 0.525000 1.795263
v 1.109000 0.470000 1.810000
v 1.109000 0.415000 1.795263
v 1.109000 0.374737 1.755000
v 1.109000 0.360000 1.700000
v 1.109000 0.374737 1.645000
v 1.109000 0.415000 1.604737
v 1.109000 0.470000 1.590000
v 1.109000 0.525000 1.604737
v 1.109000 0.565263 1.645000
g truck-chassis
usemtl bodyDark
f 1 4 3 2
f 5 6 7 8
f 1 5 8 4
f 2 3 7 6
f 1 2 6 5
f 4 8 7 3
g container-bed
f 9 12 11 10
f 13 14 15 16
f 9 13 16 12
f 10 11 15 14
f 9 10 14 13
f 12 16 15 11
g freight-container
usemtl container
f 17 20 19 18
f 21 22 23 24
f 17 21 24 20
f 18 19 23 22
f 17 18 22 21
f 20 24 23 19
g truck-cab
usemtl body
f 25 28 27 26
f 29 30 31 32
f 25 29 32 28
f 26 27 31 30
f 25 26 30 29
f 28 32 31 27
g cab-roof
usemtl bodyDark
f 33 36 35 34
f 37 38 39 40
f 33 37 40 36
f 34 35 39 38
f 33 34 38 37
f 36 40 39 35
g rear-bumper
f 41 44 43 42
f 45 46 47 48
f 41 45 48 44
f 42 43 47 46
f 41 42 46 45
f 44 48 47 43
g front-bumper
f 49 52 51 50
f 53 54 55 56
f 49 53 56 52
f 50 51 55 54
f 49 50 54 53
f 52 56 55 51
g truck-windshield
usemtl glass
f 57 58 59 60
g left-truck-headlight
usemtl headlight
f 61 62 63 64
g right-truck-headlight
f 65 66 67 68
g truck-grille
usemtl trim
f 69 70 71 72
g container-door-seam
usemtl containerAccent
f 73 74 75 76
g container-left-lock
usemtl wheel
f 77 78 79 80
g container-right-lock
f 81 82 83 84
g left-truck-tail
usemtl tail
f 85 86 87 88
g right-truck-tail
f 89 90 91 92
g left-truck-reverse
usemtl reverse
f 93 94 95 96
g right-truck-reverse
f 97 98 99 100
g truck-plate
usemtl plate
f 101 102 103 104
g cab-side-window--1
usemtl glass
f 105 106 107 108
g truck-mirror--1
usemtl bodyDark
f 109 112 111 110
f 113 114 115 116
f 109 113 116 112
f 110 111 115 114
f 109 110 114 113
f 112 116 115 111
g container-top-rail--1
usemtl containerAccent
f 117 118 119 120
g container-bottom-rail--1
f 121 122 123 124
g container-rib-0--1
f 125 126 127 128
g container-rib-1--1
f 129 130 131 132
g container-rib-2--1
f 133 134 135 136
g container-rib-3--1
f 137 138 139 140
g container-rib-4--1
f 141 142 143 144
g truck-wheel--1-0-tread
usemtl tire
f 145 147 148 146
f 147 149 150 148
f 149 151 152 150
f 151 153 154 152
f 153 155 156 154
f 155 157 158 156
f 157 159 160 158
f 159 161 162 160
f 161 163 164 162
f 163 165 166 164
f 165 167 168 166
f 167 145 146 168
g truck-wheel--1-0-cap-a
f 167 165 163 161 159 157 155 153 151 149 147 145
g truck-wheel--1-0-cap-b
f 146 148 150 152 154 156 158 160 162 164 166 168
g truck-wheel--1-0-hub
usemtl wheel
f 169 170 171 172 173 174 175 176 177 178 179 180
g truck-wheel--1-0-hub-center
usemtl wheelDark
f 181 182 183 184 185 186 187 188 189 190 191 192
g truck-wheel--1-1-tread
usemtl tire
f 193 195 196 194
f 195 197 198 196
f 197 199 200 198
f 199 201 202 200
f 201 203 204 202
f 203 205 206 204
f 205 207 208 206
f 207 209 210 208
f 209 211 212 210
f 211 213 214 212
f 213 215 216 214
f 215 193 194 216
g truck-wheel--1-1-cap-a
f 215 213 211 209 207 205 203 201 199 197 195 193
g truck-wheel--1-1-cap-b
f 194 196 198 200 202 204 206 208 210 212 214 216
g truck-wheel--1-1-hub
usemtl wheel
f 217 218 219 220 221 222 223 224 225 226 227 228
g truck-wheel--1-1-hub-center
usemtl wheelDark
f 229 230 231 232 233 234 235 236 237 238 239 240
g truck-wheel--1-2-tread
usemtl tire
f 241 243 244 242
f 243 245 246 244
f 245 247 248 246
f 247 249 250 248
f 249 251 252 250
f 251 253 254 252
f 253 255 256 254
f 255 257 258 256
f 257 259 260 258
f 259 261 262 260
f 261 263 264 262
f 263 241 242 264
g truck-wheel--1-2-cap-a
f 263 261 259 257 255 253 251 249 247 245 243 241
g truck-wheel--1-2-cap-b
f 242 244 246 248 250 252 254 256 258 260 262 264
g truck-wheel--1-2-hub
usemtl wheel
f 265 266 267 268 269 270 271 272 273 274 275 276
g truck-wheel--1-2-hub-center
usemtl wheelDark
f 277 278 279 280 281 282 283 284 285 286 287 288
g cab-side-window-1
usemtl glass
f 289 290 291 292
g truck-mirror-1
usemtl bodyDark
f 293 296 295 294
f 297 298 299 300
f 293 297 300 296
f 294 295 299 298
f 293 294 298 297
f 296 300 299 295
g container-top-rail-1
usemtl containerAccent
f 301 302 303 304
g container-bottom-rail-1
f 305 306 307 308
g container-rib-0-1
f 309 310 311 312
g container-rib-1-1
f 313 314 315 316
g container-rib-2-1
f 317 318 319 320
g container-rib-3-1
f 321 322 323 324
g container-rib-4-1
f 325 326 327 328
g truck-wheel-1-0-tread
usemtl tire
f 329 331 332 330
f 331 333 334 332
f 333 335 336 334
f 335 337 338 336
f 337 339 340 338
f 339 341 342 340
f 341 343 344 342
f 343 345 346 344
f 345 347 348 346
f 347 349 350 348
f 349 351 352 350
f 351 329 330 352
g truck-wheel-1-0-cap-a
f 351 349 347 345 343 341 339 337 335 333 331 329
g truck-wheel-1-0-cap-b
f 330 332 334 336 338 340 342 344 346 348 350 352
g truck-wheel-1-0-hub
usemtl wheel
f 353 354 355 356 357 358 359 360 361 362 363 364
g truck-wheel-1-0-hub-center
usemtl wheelDark
f 365 366 367 368 369 370 371 372 373 374 375 376
g truck-wheel-1-1-tread
usemtl tire
f 377 379 380 378
f 379 381 382 380
f 381 383 384 382
f 383 385 386 384
f 385 387 388 386
f 387 389 390 388
f 389 391 392 390
f 391 393 394 392
f 393 395 396 394
f 395 397 398 396
f 397 399 400 398
f 399 377 378 400
g truck-wheel-1-1-cap-a
f 399 397 395 393 391 389 387 385 383 381 379 377
g truck-wheel-1-1-cap-b
f 378 380 382 384 386 388 390 392 394 396 398 400
g truck-wheel-1-1-hub
usemtl wheel
f 401 402 403 404 405 406 407 408 409 410 411 412
g truck-wheel-1-1-hub-center
usemtl wheelDark
f 413 414 415 416 417 418 419 420 421 422 423 424
g truck-wheel-1-2-tread
usemtl tire
f 425 427 428 426
f 427 429 430 428
f 429 431 432 430
f 431 433 434 432
f 433 435 436 434
f 435 437 438 436
f 437 439 440 438
f 439 441 442 440
f 441 443 444 442
f 443 445 446 444
f 445 447 448 446
f 447 425 426 448
g truck-wheel-1-2-cap-a
f 447 445 443 441 439 437 435 433 431 429 427 425
g truck-wheel-1-2-cap-b
f 426 428 430 432 434 436 438 440 442 444 446 448
g truck-wheel-1-2-hub
usemtl wheel
f 449 450 451 452 453 454 455 456 457 458 459 460
g truck-wheel-1-2-hub-center
usemtl wheelDark
f 461 462 463 464 465 466 467 468 469 470 471 472
