# Wangan Zero generic civilian traffic sedan
# Procedurally authored low-poly source model
mtllib traffic-car-generic-low-poly.mtl
v -0.920000 0.320000 -2.160000
v 0.920000 0.320000 -2.160000
v 0.920000 0.960000 -2.160000
v -0.920000 0.960000 -2.160000
v -0.840000 0.320000 2.160000
v 0.840000 0.320000 2.160000
v 0.840000 0.880000 2.160000
v -0.840000 0.880000 2.160000
v -0.780000 0.880000 -1.200000
v 0.780000 0.880000 -1.200000
v -0.740000 0.880000 1.120000
v 0.740000 0.880000 1.120000
v -0.630000 1.590000 -0.780000
v 0.630000 1.590000 -0.780000
v -0.570000 1.550000 0.720000
v 0.570000 1.550000 0.720000
v -0.660000 0.970000 -1.211000
v -0.520000 1.500000 -0.790000
v 0.520000 1.500000 -0.790000
v 0.660000 0.970000 -1.211000
v -0.630000 0.970000 1.131000
v 0.630000 0.970000 1.131000
v 0.500000 1.470000 0.730000
v -0.500000 1.470000 0.730000
v -0.785000 0.980000 -0.080000
v -0.785000 1.460000 -0.080000
v -0.785000 1.460000 -0.700000
v -0.785000 0.980000 -1.020000
v -0.785000 0.980000 0.960000
v -0.720000 1.430000 0.620000
v -0.785000 1.460000 0.040000
v -0.785000 0.980000 0.040000
v 0.785000 0.980000 -1.020000
v 0.785000 1.460000 -0.700000
v 0.785000 1.460000 -0.080000
v 0.785000 0.980000 -0.080000
v 0.785000 0.980000 0.040000
v 0.785000 1.460000 0.040000
v 0.720000 1.430000 0.620000
v 0.740000 0.980000 0.960000
v -0.970000 0.350000 -2.290000
v 0.970000 0.350000 -2.290000
v 0.970000 0.530000 -2.290000
v -0.970000 0.530000 -2.290000
v -0.970000 0.350000 -2.150000
v 0.970000 0.350000 -2.150000
v 0.970000 0.530000 -2.150000
v -0.970000 0.530000 -2.150000
v -0.720000 0.610000 -2.296000
v -0.720000 0.910000 -2.296000
v 0.720000 0.910000 -2.296000
v 0.720000 0.610000 -2.296000
v -0.810000 0.665000 -2.302000
v -0.810000 0.915000 -2.302000
v -0.330000 0.915000 -2.302000
v -0.330000 0.665000 -2.302000
v 0.330000 0.665000 -2.302000
v 0.330000 0.915000 -2.302000
v 0.810000 0.915000 -2.302000
v 0.810000 0.665000 -2.302000
v -0.505000 0.685000 -2.309000
v -0.505000 0.775000 -2.309000
v -0.375000 0.775000 -2.309000
v -0.375000 0.685000 -2.309000
v 0.375000 0.685000 -2.309000
v 0.375000 0.775000 -2.309000
v 0.505000 0.775000 -2.309000
v 0.505000 0.685000 -2.309000
v -0.210000 0.590000 -2.310000
v -0.210000 0.770000 -2.310000
v 0.210000 0.770000 -2.310000
v 0.210000 0.590000 -2.310000
v 0.580000 0.195000 -2.330000
v 0.760000 0.195000 -2.330000
v 0.760000 0.305000 -2.330000
v 0.580000 0.305000 -2.330000
v 0.580000 0.195000 -2.150000
v 0.760000 0.195000 -2.150000
v 0.760000 0.305000 -2.150000
v 0.580000 0.305000 -2.150000
v -0.900000 0.340000 2.150000
v 0.900000 0.340000 2.150000
v 0.900000 0.520000 2.150000
v -0.900000 0.520000 2.150000
v -0.900000 0.340000 2.290000
v 0.900000 0.340000 2.290000
v 0.900000 0.520000 2.290000
v -0.900000 0.520000 2.290000
v -0.760000 0.660000 2.296000
v -0.340000 0.660000 2.296000
v -0.340000 0.860000 2.296000
v -0.760000 0.860000 2.296000
v 0.340000 0.660000 2.296000
v 0.760000 0.660000 2.296000
v 0.760000 0.860000 2.296000
v 0.340000 0.860000 2.296000
v -0.260000 0.580000 2.300000
v 0.260000 0.580000 2.300000
v 0.260000 0.760000 2.300000
v -0.260000 0.760000 2.300000
v -1.050000 1.065000 0.500000
v -0.830000 1.065000 0.500000
v -0.830000 1.195000 0.500000
v -1.050000 1.195000 0.500000
v -1.050000 1.065000 0.740000
v -0.830000 1.065000 0.740000
v -0.830000 1.195000 0.740000
v -1.050000 1.195000 0.740000
v -0.943500 0.997500 -0.450000
v -0.908500 0.997500 -0.450000
v -0.908500 1.042500 -0.450000
v -0.943500 1.042500 -0.450000
v -0.943500 0.997500 -0.210000
v -0.908500 0.997500 -0.210000
v -0.908500 1.042500 -0.210000
v -0.943500 1.042500 -0.210000
v -0.943500 0.997500 0.440000
v -0.908500 0.997500 0.440000
v -0.908500 1.042500 0.440000
v -0.943500 1.042500 0.440000
v -0.943500 0.997500 0.680000
v -0.908500 0.997500 0.680000
v -0.908500 1.042500 0.680000
v -0.943500 1.042500 0.680000
v 0.830000 1.065000 0.500000
v 1.050000 1.065000 0.500000
v 1.050000 1.195000 0.500000
v 0.830000 1.195000 0.500000
v 0.830000 1.065000 0.740000
v 1.050000 1.065000 0.740000
v 1.050000 1.195000 0.740000
v 0.830000 1.195000 0.740000
v 0.908500 0.997500 -0.450000
v 0.943500 0.997500 -0.450000
v 0.943500 1.042500 -0.450000
v 0.908500 1.042500 -0.450000
v 0.908500 0.997500 -0.210000
v 0.943500 0.997500 -0.210000
v 0.943500 1.042500 -0.210000
v 0.908500 1.042500 -0.210000
v 0.908500 0.997500 0.440000
v 0.943500 0.997500 0.440000
v 0.943500 1.042500 0.440000
v 0.908500 1.042500 0.440000
v 0.908500 0.997500 0.680000
v 0.943500 0.997500 0.680000
v 0.943500 1.042500 0.680000
v 0.908500 1.042500 0.680000
v -1.000000 0.770000 -1.350000
v -0.780000 0.770000 -1.350000
v -1.000000 0.719090 -1.160000
v -0.780000 0.719090 -1.160000
v -1.000000 0.580000 -1.020910
v -0.780000 0.580000 -1.020910
v -1.000000 0.390000 -0.970000
v -0.780000 0.390000 -0.970000
v -1.000000 0.200000 -1.020910
v -0.780000 0.200000 -1.020910
v -1.000000 0.060910 -1.160000
v -0.780000 0.060910 -1.160000
v -1.000000 0.010000 -1.350000
v -0.780000 0.010000 -1.350000
v -1.000000 0.060910 -1.540000
v -0.780000 0.060910 -1.540000
v -1.000000 0.200000 -1.679090
v -0.780000 0.200000 -1.679090
v -1.000000 0.390000 -1.730000
v -0.780000 0.390000 -1.730000
v -1.000000 0.580000 -1.679090
v -0.780000 0.580000 -1.679090
v -1.000000 0.719090 -1.540000
v -0.780000 0.719090 -1.540000
v -1.006000 0.580526 -1.460000
v -1.006000 0.500000 -1.540526
v -1.006000 0.390000 -1.570000
v -1.006000 0.280000 -1.540526
v -1.006000 0.199474 -1.460000
v -1.006000 0.170000 -1.350000
v -1.006000 0.199474 -1.240000
v -1.006000 0.280000 -1.159474
v -1.006000 0.390000 -1.130000
v -1.006000 0.500000 -1.159474
v -1.006000 0.580526 -1.240000
v -1.006000 0.610000 -1.350000
v -1.009000 0.467942 -1.395000
v -1.009000 0.435000 -1.427942
v -1.009000 0.390000 -1.440000
v -1.009000 0.345000 -1.427942
v -1.009000 0.312058 -1.395000
v -1.009000 0.300000 -1.350000
v -1.009000 0.312058 -1.305000
v -1.009000 0.345000 -1.272058
v -1.009000 0.390000 -1.260000
v -1.009000 0.435000 -1.272058
v -1.009000 0.467942 -1.305000
v -1.009000 0.480000 -1.350000
v -1.000000 0.770000 1.350000
v -0.780000 0.770000 1.350000
v -1.000000 0.719090 1.540000
v -0.780000 0.719090 1.540000
v -1.000000 0.580000 1.679090
v -0.780000 0.580000 1.679090
v -1.000000 0.390000 1.730000
v -0.780000 0.390000 1.730000
v -1.000000 0.200000 1.679090
v -0.780000 0.200000 1.679090
v -1.000000 0.060910 1.540000
v -0.780000 0.060910 1.540000
v -1.000000 0.010000 1.350000
v -0.780000 0.010000 1.350000
v -1.000000 0.060910 1.160000
v -0.780000 0.060910 1.160000
v -1.000000 0.200000 1.020910
v -0.780000 0.200000 1.020910
v -1.000000 0.390000 0.970000
v -0.780000 0.390000 0.970000
v -1.000000 0.580000 1.020910
v -0.780000 0.580000 1.020910
v -1.000000 0.719090 1.160000
v -0.780000 0.719090 1.160000
v -1.006000 0.580526 1.240000
v -1.006000 0.500000 1.159474
v -1.006000 0.390000 1.130000
v -1.006000 0.280000 1.159474
v -1.006000 0.199474 1.240000
v -1.006000 0.170000 1.350000
v -1.006000 0.199474 1.460000
v -1.006000 0.280000 1.540526
v -1.006000 0.390000 1.570000
v -1.006000 0.500000 1.540526
v -1.006000 0.580526 1.460000
v -1.006000 0.610000 1.350000
v -1.009000 0.467942 1.305000
v -1.009000 0.435000 1.272058
v -1.009000 0.390000 1.260000
v -1.009000 0.345000 1.272058
v -1.009000 0.312058 1.305000
v -1.009000 0.300000 1.350000
v -1.009000 0.312058 1.395000
v -1.009000 0.345000 1.427942
v -1.009000 0.390000 1.440000
v -1.009000 0.435000 1.427942
v -1.009000 0.467942 1.395000
v -1.009000 0.480000 1.350000
v 0.780000 0.770000 -1.350000
v 1.000000 0.770000 -1.350000
v 0.780000 0.719090 -1.160000
v 1.000000 0.719090 -1.160000
v 0.780000 0.580000 -1.020910
v 1.000000 0.580000 -1.020910
v 0.780000 0.390000 -0.970000
v 1.000000 0.390000 -0.970000
v 0.780000 0.200000 -1.020910
v 1.000000 0.200000 -1.020910
v 0.780000 0.060910 -1.160000
v 1.000000 0.060910 -1.160000
v 0.780000 0.010000 -1.350000
v 1.000000 0.010000 -1.350000
v 0.780000 0.060910 -1.540000
v 1.000000 0.060910 -1.540000
v 0.780000 0.200000 -1.679090
v 1.000000 0.200000 -1.679090
v 0.780000 0.390000 -1.730000
v 1.000000 0.390000 -1.730000
v 0.780000 0.580000 -1.679090
v 1.000000 0.580000 -1.679090
v 0.780000 0.719090 -1.540000
v 1.000000 0.719090 -1.540000
v 1.006000 0.610000 -1.350000
v 1.006000 0.580526 -1.240000
v 1.006000 0.500000 -1.159474
v 1.006000 0.390000 -1.130000
v 1.006000 0.280000 -1.159474
v 1.006000 0.199474 -1.240000
v 1.006000 0.170000 -1.350000
v 1.006000 0.199474 -1.460000
v 1.006000 0.280000 -1.540526
v 1.006000 0.390000 -1.570000
v 1.006000 0.500000 -1.540526
v 1.006000 0.580526 -1.460000
v 1.009000 0.480000 -1.350000
v 1.009000 0.467942 -1.305000
v 1.009000 0.435000 -1.272058
v 1.009000 0.390000 -1.260000
v 1.009000 0.345000 -1.272058
v 1.009000 0.312058 -1.305000
v 1.009000 0.300000 -1.350000
v 1.009000 0.312058 -1.395000
v 1.009000 0.345000 -1.427942
v 1.009000 0.390000 -1.440000
v 1.009000 0.435000 -1.427942
v 1.009000 0.467942 -1.395000
v 0.780000 0.770000 1.350000
v 1.000000 0.770000 1.350000
v 0.780000 0.719090 1.540000
v 1.000000 0.719090 1.540000
v 0.780000 0.580000 1.679090
v 1.000000 0.580000 1.679090
v 0.780000 0.390000 1.730000
v 1.000000 0.390000 1.730000
v 0.780000 0.200000 1.679090
v 1.000000 0.200000 1.679090
v 0.780000 0.060910 1.540000
v 1.000000 0.060910 1.540000
v 0.780000 0.010000 1.350000
v 1.000000 0.010000 1.350000
v 0.780000 0.060910 1.160000
v 1.000000 0.060910 1.160000
v 0.780000 0.200000 1.020910
v 1.000000 0.200000 1.020910
v 0.780000 0.390000 0.970000
v 1.000000 0.390000 0.970000
v 0.780000 0.580000 1.020910
v 1.000000 0.580000 1.020910
v 0.780000 0.719090 1.160000
v 1.000000 0.719090 1.160000
v 1.006000 0.610000 1.350000
v 1.006000 0.580526 1.460000
v 1.006000 0.500000 1.540526
v 1.006000 0.390000 1.570000
v 1.006000 0.280000 1.540526
v 1.006000 0.199474 1.460000
v 1.006000 0.170000 1.350000
v 1.006000 0.199474 1.240000
v 1.006000 0.280000 1.159474
v 1.006000 0.390000 1.130000
v 1.006000 0.500000 1.159474
v 1.006000 0.580526 1.240000
v 1.009000 0.480000 1.350000
v 1.009000 0.467942 1.395000
v 1.009000 0.435000 1.427942
v 1.009000 0.390000 1.440000
v 1.009000 0.345000 1.427942
v 1.009000 0.312058 1.395000
v 1.009000 0.300000 1.350000
v 1.009000 0.312058 1.305000
v 1.009000 0.345000 1.272058
v 1.009000 0.390000 1.260000
v 1.009000 0.435000 1.272058
v 1.009000 0.467942 1.305000
g body-shell
usemtl body
f 1 4 3 2
f 5 6 7 8
f 1 5 8 4
f 2 3 7 6
f 1 2 6 5
f 4 8 7 3
g cabin-shell
f 9 13 14 10
f 11 12 16 15
f 9 11 15 13
f 10 14 16 12
f 13 15 16 14
g rear-window
usemtl glass
f 17 18 19 20
g front-windshield
f 21 22 23 24
g rear-side-window--1
f 25 26 27 28
g front-side-window--1
f 29 30 31 32
g rear-side-window-1
f 33 34 35 36
g front-side-window-1
f 37 38 39 40
g rear-bumper
usemtl bodyDark
f 41 44 43 42
f 45 46 47 48
f 41 45 48 44
f 42 43 47 46
f 41 42 46 45
f 44 48 47 43
g rear-trim
usemtl trim
f 49 50 51 52
g left-tail
usemtl tail
f 53 54 55 56
g right-tail
f 57 58 59 60
g left-reverse
usemtl reverse
f 61 62 63 64
g right-reverse
f 65 66 67 68
g license-recess
usemtl plate
f 69 70 71 72
g exhaust
usemtl exhaust
f 73 76 75 74
f 77 78 79 80
f 73 77 80 76
f 74 75 79 78
f 73 74 78 77
f 76 80 79 75
g front-bumper
usemtl bodyDark
f 81 84 83 82
f 85 86 87 88
f 81 85 88 84
f 82 83 87 86
f 81 82 86 85
f 84 88 87 83
g left-headlight
usemtl headlight
f 89 90 91 92
g right-headlight
f 93 94 95 96
g front-grille
usemtl trim
f 97 98 99 100
g mirror--1
usemtl bodyDark
f 101 104 103 102
f 105 106 107 108
f 101 105 108 104
f 102 103 107 106
f 101 102 106 105
f 104 108 107 103
g rear-handle--1
usemtl trim
f 109 112 111 110
f 113 114 115 116
f 109 113 116 112
f 110 111 115 114
f 109 110 114 113
f 112 116 115 111
g front-handle--1
f 117 120 119 118
f 121 122 123 124
f 117 121 124 120
f 118 119 123 122
f 117 118 122 121
f 120 124 123 119
g mirror-1
usemtl bodyDark
f 125 128 127 126
f 129 130 131 132
f 125 129 132 128
f 126 127 131 130
f 125 126 130 129
f 128 132 131 127
g rear-handle-1
usemtl trim
f 133 136 135 134
f 137 138 139 140
f 133 137 140 136
f 134 135 139 138
f 133 134 138 137
f 136 140 139 135
g front-handle-1
f 141 144 143 142
f 145 146 147 148
f 141 145 148 144
f 142 143 147 146
f 141 142 146 145
f 144 148 147 143
g rear-wheel--1-tread
usemtl tire
f 149 151 152 150
f 151 153 154 152
f 153 155 156 154
f 155 157 158 156
f 157 159 160 158
f 159 161 162 160
f 161 163 164 162
f 163 165 166 164
f 165 167 168 166
f 167 169 170 168
f 169 171 172 170
f 171 149 150 172
g rear-wheel--1-cap-a
f 171 169 167 165 163 161 159 157 155 153 151 149
g rear-wheel--1-cap-b
f 150 152 154 156 158 160 162 164 166 168 170 172
g rear-wheel--1-hub
usemtl wheel
f 173 174 175 176 177 178 179 180 181 182 183 184
g rear-wheel--1-hub-center
usemtl wheelDark
f 185 186 187 188 189 190 191 192 193 194 195 196
g front-wheel--1-tread
usemtl tire
f 197 199 200 198
f 199 201 202 200
f 201 203 204 202
f 203 205 206 204
f 205 207 208 206
f 207 209 210 208
f 209 211 212 210
f 211 213 214 212
f 213 215 216 214
f 215 217 218 216
f 217 219 220 218
f 219 197 198 220
g front-wheel--1-cap-a
f 219 217 215 213 211 209 207 205 203 201 199 197
g front-wheel--1-cap-b
f 198 200 202 204 206 208 210 212 214 216 218 220
g front-wheel--1-hub
usemtl wheel
f 221 222 223 224 225 226 227 228 229 230 231 232
g front-wheel--1-hub-center
usemtl wheelDark
f 233 234 235 236 237 238 239 240 241 242 243 244
g rear-wheel-1-tread
usemtl tire
f 245 247 248 246
f 247 249 250 248
f 249 251 252 250
f 251 253 254 252
f 253 255 256 254
f 255 257 258 256
f 257 259 260 258
f 259 261 262 260
f 261 263 264 262
f 263 265 266 264
f 265 267 268 266
f 267 245 246 268
g rear-wheel-1-cap-a
f 267 265 263 261 259 257 255 253 251 249 247 245
g rear-wheel-1-cap-b
f 246 248 250 252 254 256 258 260 262 264 266 268
g rear-wheel-1-hub
usemtl wheel
f 269 270 271 272 273 274 275 276 277 278 279 280
g rear-wheel-1-hub-center
usemtl wheelDark
f 281 282 283 284 285 286 287 288 289 290 291 292
g front-wheel-1-tread
usemtl tire
f 293 295 296 294
f 295 297 298 296
f 297 299 300 298
f 299 301 302 300
f 301 303 304 302
f 303 305 306 304
f 305 307 308 306
f 307 309 310 308
f 309 311 312 310
f 311 313 314 312
f 313 315 316 314
f 315 293 294 316
g front-wheel-1-cap-a
f 315 313 311 309 307 305 303 301 299 297 295 293
g front-wheel-1-cap-b
f 294 296 298 300 302 304 306 308 310 312 314 316
g front-wheel-1-hub
usemtl wheel
f 317 318 319 320 321 322 323 324 325 326 327 328
g front-wheel-1-hub-center
usemtl wheelDark
f 329 330 331 332 333 334 335 336 337 338 339 340
