<?xml version="1.0" encoding="UTF-8"?>
<svg xmlns="http://www.w3.org/2000/svg" width="72" height="40" viewBox="0 0 72 40">
  <defs>
    <linearGradient id="corpseShadow" x1="0" x2="0" y1="0" y2="1">
      <stop offset="0%" stop-color="#14181b"/>
      <stop offset="100%" stop-color="#050607"/>
    </linearGradient>
  </defs>

  <ellipse cx="36" cy="31" rx="20" ry="6" fill="#000000" opacity="0.18"/>

  <g fill="none" stroke="url(#corpseShadow)" stroke-linecap="round" stroke-linejoin="round">
    <path d="M18 28 L27 24 L33 28 L42 22 L52 26" stroke-width="4.2"/>
    <path d="M22 18 L30 25 L38 16 L47 24 L56 18" stroke-width="3.4"/>
    <path d="M27 31 L31 19 L36 27 L41 18 L46 30" stroke-width="2.8"/>
    <path d="M24 25 L20 19" stroke-width="2.4"/>
    <path d="M49 24 L55 20" stroke-width="2.4"/>
    <path d="M34 15 L40 11" stroke-width="2.2"/>
  </g>

  <g fill="#0b0d0f" opacity="0.92">
    <ellipse cx="30" cy="24.5" rx="3.2" ry="2.2"/>
    <ellipse cx="43.5" cy="23.8" rx="3.8" ry="2.6"/>
    <ellipse cx="36" cy="18.8" rx="2.9" ry="2.1"/>
  </g>
</svg>
