<?xml version="1.0" encoding="UTF-8"?>
<svg xmlns="http://www.w3.org/2000/svg" width="288" height="48" viewBox="0 0 288 48">
  <defs>
    <linearGradient id="suitTop" x1="0" x2="0" y1="0" y2="1">
      <stop offset="0%" stop-color="#f4df6f"/>
      <stop offset="100%" stop-color="#c4a634"/>
    </linearGradient>
    <linearGradient id="suitSide" x1="0" x2="1" y1="0" y2="0">
      <stop offset="0%" stop-color="#d2b648"/>
      <stop offset="100%" stop-color="#9a7d23"/>
    </linearGradient>
    <linearGradient id="visorTop" x1="0" x2="0" y1="0" y2="1">
      <stop offset="0%" stop-color="#42545d"/>
      <stop offset="100%" stop-color="#1b252a"/>
    </linearGradient>
    <linearGradient id="gloveTop" x1="0" x2="0" y1="0" y2="1">
      <stop offset="0%" stop-color="#55616a"/>
      <stop offset="100%" stop-color="#23292d"/>
    </linearGradient>
  </defs>

  <g transform="translate(0,0)">
    <ellipse cx="24" cy="37" rx="10" ry="6" fill="#000000" opacity="0.16"/>
    <rect x="19" y="10" width="10" height="9" rx="3" fill="#79611c"/>
    <ellipse cx="24" cy="23.4" rx="9.9" ry="14.1" fill="url(#suitTop)" stroke="#7f6718" stroke-width="1.4"/>
    <ellipse cx="24" cy="18" rx="8.5" ry="7.5" fill="#f5e38a" stroke="#8b7423" stroke-width="1.2"/>
    <rect x="17.5" y="15.5" width="13" height="5.5" rx="2.75" fill="url(#visorTop)"/>
    <rect x="12" y="19.5" width="4.5" height="10" rx="2.2" fill="url(#suitSide)"/>
    <rect x="31.5" y="19.5" width="4.5" height="10" rx="2.2" fill="url(#suitSide)"/>
    <ellipse cx="14.2" cy="29.1" rx="2.1" ry="2.4" fill="url(#gloveTop)" stroke="#1b2023" stroke-width="0.55"/>
    <ellipse cx="33.8" cy="29.1" rx="2.1" ry="2.4" fill="url(#gloveTop)" stroke="#1b2023" stroke-width="0.55"/>
    <rect x="18.2" y="29.8" width="4.5" height="8.5" rx="2" fill="#2e3337"/>
    <rect x="25.3" y="29.8" width="4.5" height="8.5" rx="2" fill="#2e3337"/>
    <circle cx="24" cy="25" r="1.3" fill="#6b5720"/>
  </g>

  <g transform="translate(48,0)">
    <ellipse cx="24" cy="37" rx="10.4" ry="5.8" fill="#000000" opacity="0.16"/>
    <rect x="19" y="9.6" width="10" height="9" rx="3" fill="#79611c"/>
    <ellipse cx="24" cy="23" rx="9.9" ry="14.1" fill="url(#suitTop)" stroke="#7f6718" stroke-width="1.4"/>
    <ellipse cx="24" cy="17.6" rx="8.5" ry="7.5" fill="#f5e38a" stroke="#8b7423" stroke-width="1.2"/>
    <rect x="17.5" y="15.1" width="13" height="5.5" rx="2.75" fill="url(#visorTop)"/>
    <rect x="12" y="19.1" width="4.5" height="10" rx="2.2" fill="url(#suitSide)"/>
    <rect x="31.5" y="19.1" width="4.5" height="10" rx="2.2" fill="url(#suitSide)"/>
    <ellipse cx="14.2" cy="28.7" rx="2.1" ry="2.4" fill="url(#gloveTop)" stroke="#1b2023" stroke-width="0.55"/>
    <ellipse cx="33.8" cy="28.7" rx="2.1" ry="2.4" fill="url(#gloveTop)" stroke="#1b2023" stroke-width="0.55"/>
    <rect x="17.5" y="30.8" width="4.5" height="7.5" rx="2" fill="#2e3337"/>
    <rect x="26" y="28.7" width="4.5" height="9.6" rx="2" fill="#2e3337"/>
    <circle cx="24" cy="24.5" r="1.3" fill="#6b5720"/>
  </g>

  <g transform="translate(96,0)">
    <ellipse cx="24" cy="37" rx="10.1" ry="6" fill="#000000" opacity="0.16"/>
    <rect x="19" y="9.9" width="10" height="9" rx="3" fill="#79611c"/>
    <ellipse cx="24" cy="23.3" rx="9.9" ry="14.1" fill="url(#suitTop)" stroke="#7f6718" stroke-width="1.4"/>
    <ellipse cx="24" cy="17.9" rx="8.5" ry="7.5" fill="#f5e38a" stroke="#8b7423" stroke-width="1.2"/>
    <rect x="17.5" y="15.4" width="13" height="5.5" rx="2.75" fill="url(#visorTop)"/>
    <rect x="12.2" y="19.4" width="4.5" height="10" rx="2.2" fill="url(#suitSide)"/>
    <rect x="31.3" y="19.4" width="4.5" height="10" rx="2.2" fill="url(#suitSide)"/>
    <ellipse cx="14.4" cy="29" rx="2.1" ry="2.4" fill="url(#gloveTop)" stroke="#1b2023" stroke-width="0.55"/>
    <ellipse cx="33.5" cy="29" rx="2.1" ry="2.4" fill="url(#gloveTop)" stroke="#1b2023" stroke-width="0.55"/>
    <rect x="18.2" y="28.8" width="4.5" height="9.5" rx="2" fill="#2e3337"/>
    <rect x="25.3" y="30.4" width="4.5" height="7.9" rx="2" fill="#2e3337"/>
    <circle cx="24" cy="24.8" r="1.3" fill="#6b5720"/>
  </g>

  <g transform="translate(144,0)">
    <ellipse cx="24" cy="37" rx="10" ry="5.9" fill="#000000" opacity="0.16"/>
    <rect x="19" y="10.1" width="10" height="9" rx="3" fill="#79611c"/>
    <ellipse cx="24" cy="23.5" rx="9.9" ry="14.1" fill="url(#suitTop)" stroke="#7f6718" stroke-width="1.4"/>
    <ellipse cx="24" cy="18.1" rx="8.5" ry="7.5" fill="#f5e38a" stroke="#8b7423" stroke-width="1.2"/>
    <rect x="17.5" y="15.6" width="13" height="5.5" rx="2.75" fill="url(#visorTop)"/>
    <rect x="12.1" y="19.6" width="4.5" height="10" rx="2.2" fill="url(#suitSide)"/>
    <rect x="31.4" y="19.6" width="4.5" height="10" rx="2.2" fill="url(#suitSide)"/>
    <ellipse cx="14.3" cy="29.2" rx="2.1" ry="2.4" fill="url(#gloveTop)" stroke="#1b2023" stroke-width="0.55"/>
    <ellipse cx="33.6" cy="29.2" rx="2.1" ry="2.4" fill="url(#gloveTop)" stroke="#1b2023" stroke-width="0.55"/>
    <rect x="17.4" y="30.2" width="4.5" height="8.1" rx="2" fill="#2e3337"/>
    <rect x="26.1" y="28.9" width="4.5" height="9.4" rx="2" fill="#2e3337"/>
    <circle cx="24" cy="25.1" r="1.3" fill="#6b5720"/>
  </g>

  <g transform="translate(192,0)">
    <ellipse cx="24" cy="37" rx="10.2" ry="5.8" fill="#000000" opacity="0.16"/>
    <rect x="19" y="9.8" width="10" height="9" rx="3" fill="#79611c"/>
    <ellipse cx="24" cy="23.2" rx="9.9" ry="14.1" fill="url(#suitTop)" stroke="#7f6718" stroke-width="1.4"/>
    <ellipse cx="24" cy="17.8" rx="8.5" ry="7.5" fill="#f5e38a" stroke="#8b7423" stroke-width="1.2"/>
    <rect x="17.5" y="15.3" width="13" height="5.5" rx="2.75" fill="url(#visorTop)"/>
    <rect x="12.1" y="19.3" width="4.5" height="10" rx="2.2" fill="url(#suitSide)"/>
    <rect x="31.4" y="19.3" width="4.5" height="10" rx="2.2" fill="url(#suitSide)"/>
    <ellipse cx="14.3" cy="28.9" rx="2.1" ry="2.4" fill="url(#gloveTop)" stroke="#1b2023" stroke-width="0.55"/>
    <ellipse cx="33.6" cy="28.9" rx="2.1" ry="2.4" fill="url(#gloveTop)" stroke="#1b2023" stroke-width="0.55"/>
    <rect x="18.1" y="29.9" width="4.5" height="8.4" rx="2" fill="#2e3337"/>
    <rect x="25.4" y="29.1" width="4.5" height="9.2" rx="2" fill="#2e3337"/>
    <circle cx="24" cy="24.7" r="1.3" fill="#6b5720"/>
  </g>

  <g transform="translate(240,0)">
    <ellipse cx="24" cy="37" rx="10" ry="6" fill="#000000" opacity="0.16"/>
    <rect x="19" y="10" width="10" height="9" rx="3" fill="#79611c"/>
    <ellipse cx="24" cy="23.4" rx="9.9" ry="14.1" fill="url(#suitTop)" stroke="#7f6718" stroke-width="1.4"/>
    <ellipse cx="24" cy="18" rx="8.5" ry="7.5" fill="#f5e38a" stroke="#8b7423" stroke-width="1.2"/>
    <rect x="17.5" y="15.5" width="13" height="5.5" rx="2.75" fill="url(#visorTop)"/>
    <rect x="12" y="19.5" width="4.5" height="10" rx="2.2" fill="url(#suitSide)"/>
    <rect x="31.5" y="19.5" width="4.5" height="10" rx="2.2" fill="url(#suitSide)"/>
    <ellipse cx="14.2" cy="29.1" rx="2.1" ry="2.4" fill="url(#gloveTop)" stroke="#1b2023" stroke-width="0.55"/>
    <ellipse cx="33.8" cy="29.1" rx="2.1" ry="2.4" fill="url(#gloveTop)" stroke="#1b2023" stroke-width="0.55"/>
    <rect x="18.4" y="29.1" width="4.5" height="9.2" rx="2" fill="#2e3337"/>
    <rect x="25.1" y="30.2" width="4.5" height="8.1" rx="2" fill="#2e3337"/>
    <circle cx="24" cy="25" r="1.3" fill="#6b5720"/>
  </g>
</svg>
