<?xml version="1.0" encoding="UTF-8"?>
<svg xmlns="http://www.w3.org/2000/svg" width="1024" height="640" viewBox="0 0 1024 640">
  <title>Hibana RS front view at 4 degrees yaw</title>
  <desc>Original compact liftback coupe with a bright ember-orange body and solid charcoal trim. Rendered from the front view.</desc>
  <g>
<polygon id="front-yaw-004-face-0" points="603.55,411.43 605.81,414.24 573.49,414.44 571.23,411.62" fill="rgb(60,68,77)" stroke="#050a12" stroke-width="1.5" stroke-linejoin="round"/>
<polygon id="front-yaw-004-face-1" points="571.23,429.56 571.23,411.62 573.49,414.44 573.49,432.37" fill="rgb(51,57,64)" stroke="#050a12" stroke-width="1.5" stroke-linejoin="round"/>
<polygon id="front-yaw-004-face-2" points="652.66,369.78 653.92,371.34 316.34,373.40 315.09,371.83" fill="rgb(29,37,42)" stroke="#050a12" stroke-width="1.5" stroke-linejoin="round"/>
<polygon id="front-yaw-004-face-3" points="395.26,412.70 397.52,415.51 365.20,415.71 362.94,412.89" fill="rgb(60,68,77)" stroke="#050a12" stroke-width="1.5" stroke-linejoin="round"/>
<polygon id="front-yaw-004-face-4" points="362.94,430.83 362.94,412.89 365.20,415.71 365.20,433.64" fill="rgb(51,57,64)" stroke="#050a12" stroke-width="1.5" stroke-linejoin="round"/>
<polygon id="front-yaw-004-face-5" points="605.81,432.18 573.49,432.37 573.49,414.44 605.81,414.24" fill="rgb(51,58,65)" stroke="#050a12" stroke-width="1.5" stroke-linejoin="round"/>
<polygon id="front-yaw-004-face-6" points="653.92,405.41 316.34,407.47 316.34,373.40 653.92,371.34" fill="rgb(25,32,36)" stroke="#050a12" stroke-width="1.5" stroke-linejoin="round"/>
<polygon id="front-yaw-004-face-7" points="315.09,405.90 315.09,371.83 316.34,373.40 316.34,407.47" fill="rgb(25,31,35)" stroke="#050a12" stroke-width="1.5" stroke-linejoin="round"/>
<polygon id="front-yaw-004-face-8" points="397.52,433.45 365.20,433.64 365.20,415.71 397.52,415.51" fill="rgb(51,58,65)" stroke="#050a12" stroke-width="1.5" stroke-linejoin="round"/>
<polygon id="front-yaw-004-face-9" points="653.79,293.18 660.99,303.49 319.82,305.57 316.22,295.24" fill="rgb(196,86,45)" stroke="#050a12" stroke-width="1.5" stroke-linejoin="round"/>
<polygon id="front-yaw-004-face-10" points="316.22,411.79 316.22,295.24 319.82,305.57 319.82,418.53" fill="rgb(158,70,37)" stroke="#050a12" stroke-width="1.5" stroke-linejoin="round"/>
<polygon id="front-yaw-004-face-11" points="315.48,392.95 315.48,371.44 318.74,375.51 318.74,397.02" fill="rgb(42,48,53)" stroke="#050a12" stroke-width="1.5" stroke-linejoin="round"/>
<polygon id="front-yaw-004-face-12" points="641.12,337.11 643.57,349.53 645.36,377.36 646.02,413.15 645.36,447.29 643.57,470.66 641.12,476.98 638.67,464.55 636.88,436.72 636.22,400.94 636.88,366.79 638.67,343.43" fill="rgb(9,10,12)" stroke="#050a12" stroke-width="1.5" stroke-linejoin="round"/>
<polygon id="front-yaw-004-face-13" points="686.67,470.40 684.22,476.71 641.12,476.98 643.57,470.66" fill="rgb(8,9,10)" stroke="#050a12" stroke-width="1.5" stroke-linejoin="round"/>
<polygon id="front-yaw-004-face-14" points="660.99,303.49 669.49,321.71 331.91,323.77 319.82,305.57" fill="rgb(195,86,45)" stroke="#050a12" stroke-width="1.5" stroke-linejoin="round"/>
<polygon id="front-yaw-004-face-15" points="684.22,336.85 686.67,349.27 643.57,349.53 641.12,337.11" fill="rgb(10,11,14)" stroke="#050a12" stroke-width="1.5" stroke-linejoin="round"/>
<polygon id="front-yaw-004-face-16" points="307.14,339.15 309.59,351.57 311.38,379.40 312.03,415.18 311.38,449.33 309.59,472.69 307.14,479.01 304.69,466.59 302.90,438.76 302.24,402.97 302.90,368.83 304.69,345.46" fill="rgb(9,10,12)" stroke="#050a12" stroke-width="1.5" stroke-linejoin="round"/>
<polygon id="front-yaw-004-face-17" points="319.82,418.53 319.82,305.57 331.91,323.77 331.91,431.36" fill="rgb(160,71,38)" stroke="#050a12" stroke-width="1.5" stroke-linejoin="round"/>
<polygon id="front-yaw-004-face-18" points="352.68,472.43 350.23,478.75 307.14,479.01 309.59,472.69" fill="rgb(8,9,10)" stroke="#050a12" stroke-width="1.5" stroke-linejoin="round"/>
<polygon id="front-yaw-004-face-19" points="688.46,447.03 686.67,470.40 643.57,470.66 645.36,447.29" fill="rgb(8,9,10)" stroke="#050a12" stroke-width="1.5" stroke-linejoin="round"/>
<polygon id="front-yaw-004-face-20" points="350.23,338.88 352.68,351.30 309.59,351.57 307.14,339.15" fill="rgb(10,11,14)" stroke="#050a12" stroke-width="1.5" stroke-linejoin="round"/>
<polygon id="front-yaw-004-face-21" points="686.67,349.27 688.46,377.10 645.36,377.36 643.57,349.53" fill="rgb(10,12,14)" stroke="#050a12" stroke-width="1.5" stroke-linejoin="round"/>
<polygon id="front-yaw-004-face-22" points="689.11,412.88 688.46,447.03 645.36,447.29 646.02,413.15" fill="rgb(8,9,11)" stroke="#050a12" stroke-width="1.5" stroke-linejoin="round"/>
<polygon id="front-yaw-004-face-23" points="688.46,377.10 689.11,412.88 646.02,413.15 645.36,377.36" fill="rgb(9,11,13)" stroke="#050a12" stroke-width="1.5" stroke-linejoin="round"/>
<polygon id="front-yaw-004-face-24" points="354.47,449.07 352.68,472.43 309.59,472.69 311.38,449.33" fill="rgb(8,9,10)" stroke="#050a12" stroke-width="1.5" stroke-linejoin="round"/>
<polygon id="front-yaw-004-face-25" points="352.68,351.30 354.47,379.13 311.38,379.40 309.59,351.57" fill="rgb(10,12,14)" stroke="#050a12" stroke-width="1.5" stroke-linejoin="round"/>
<polygon id="front-yaw-004-face-26" points="355.13,414.92 354.47,449.07 311.38,449.33 312.03,415.18" fill="rgb(8,9,11)" stroke="#050a12" stroke-width="1.5" stroke-linejoin="round"/>
<polygon id="front-yaw-004-face-27" points="354.47,379.13 355.13,414.92 312.03,415.18 311.38,379.40" fill="rgb(9,11,13)" stroke="#050a12" stroke-width="1.5" stroke-linejoin="round"/>
<polygon id="front-yaw-004-face-28" points="348.26,316.25 393.97,218.85 416.72,241.80 390.68,361.00" fill="rgb(27,35,40)" stroke="#050a12" stroke-width="1.5" stroke-linejoin="round"/>
<polygon id="front-yaw-004-face-29" points="609.44,217.54 617.83,240.57 416.72,241.80 393.97,218.85" fill="rgb(29,37,42)" stroke="#050a12" stroke-width="1.5" stroke-linejoin="round"/>
<polygon id="front-yaw-004-face-30" points="367.35,327.92 399.31,238.07 401.18,239.95 369.21,329.80" fill="rgb(28,35,40)" stroke="#050a12" stroke-width="1.5" stroke-linejoin="round"/>
<polygon id="front-yaw-004-face-31" points="669.49,321.71 689.00,361.29 358.61,363.30 331.91,323.77" fill="rgb(195,86,45)" stroke="#050a12" stroke-width="1.5" stroke-linejoin="round"/>
<polygon id="front-yaw-004-face-32" points="329.29,410.17 329.29,388.65 351.77,416.66 351.77,438.18" fill="rgb(42,48,53)" stroke="#050a12" stroke-width="1.5" stroke-linejoin="round"/>
<polygon id="front-yaw-004-face-33" points="331.91,431.36 331.91,323.77 358.61,363.30 358.61,460.13" fill="rgb(160,71,38)" stroke="#050a12" stroke-width="1.5" stroke-linejoin="round"/>
<polygon id="front-yaw-004-face-34" points="701.43,301.39 704.44,305.15 668.53,305.37 665.52,301.61" fill="rgb(29,37,42)" stroke="#050a12" stroke-width="1.5" stroke-linejoin="round"/>
<polygon id="front-yaw-004-face-35" points="665.52,324.92 665.52,301.61 668.53,305.37 668.53,328.68" fill="rgb(25,31,35)" stroke="#050a12" stroke-width="1.5" stroke-linejoin="round"/>
<polygon id="front-yaw-004-face-36" points="704.44,328.46 668.53,328.68 668.53,305.37 704.44,305.15" fill="rgb(25,32,36)" stroke="#050a12" stroke-width="1.5" stroke-linejoin="round"/>
<polygon id="front-yaw-004-face-37" points="656.43,359.38 390.68,361.00 416.72,241.80 617.83,240.57" fill="rgb(30,38,44)" stroke="#050a12" stroke-width="1.5" stroke-linejoin="round"/>
<polygon id="front-yaw-004-face-38" points="371.04,303.41 374.05,307.16 338.14,307.38 335.13,303.63" fill="rgb(29,37,42)" stroke="#050a12" stroke-width="1.5" stroke-linejoin="round"/>
<polygon id="front-yaw-004-face-39" points="335.13,326.94 335.13,303.63 338.14,307.38 338.14,330.69" fill="rgb(25,31,35)" stroke="#050a12" stroke-width="1.5" stroke-linejoin="round"/>
<polygon id="front-yaw-004-face-40" points="374.05,330.47 338.14,330.69 338.14,307.38 374.05,307.16" fill="rgb(25,32,36)" stroke="#050a12" stroke-width="1.5" stroke-linejoin="round"/>
<polygon id="front-yaw-004-face-41" points="670.43,378.13 672.88,390.56 674.67,418.39 675.32,454.17 674.67,488.32 672.88,511.68 670.43,518.00 667.98,505.58 666.19,477.75 665.53,441.96 666.19,407.82 667.98,384.45" fill="rgb(9,10,12)" stroke="#050a12" stroke-width="1.5" stroke-linejoin="round"/>
<polygon id="front-yaw-004-face-42" points="715.97,511.42 713.52,517.74 670.43,518.00 672.88,511.68" fill="rgb(8,9,10)" stroke="#050a12" stroke-width="1.5" stroke-linejoin="round"/>
<polygon id="front-yaw-004-face-43" points="689.00,361.29 693.41,386.08 373.79,388.03 358.61,363.30" fill="rgb(198,87,45)" stroke="#050a12" stroke-width="1.5" stroke-linejoin="round"/>
<polygon id="front-yaw-004-face-44" points="713.52,377.87 715.97,390.29 672.88,390.56 670.43,378.13" fill="rgb(10,11,14)" stroke="#050a12" stroke-width="1.5" stroke-linejoin="round"/>
<polygon id="front-yaw-004-face-45" points="343.63,380.13 346.07,392.55 347.87,420.38 348.52,456.16 347.87,490.31 346.07,513.67 343.63,519.99 341.18,507.57 339.38,479.74 338.73,443.96 339.38,409.81 341.18,386.44" fill="rgb(9,10,12)" stroke="#050a12" stroke-width="1.5" stroke-linejoin="round"/>
<polygon id="front-yaw-004-face-46" points="358.61,460.13 358.61,363.30 373.79,388.03 373.79,472.30" fill="rgb(162,72,38)" stroke="#050a12" stroke-width="1.5" stroke-linejoin="round"/>
<polygon id="front-yaw-004-face-47" points="389.17,513.41 386.72,519.73 343.63,519.99 346.07,513.67" fill="rgb(8,9,10)" stroke="#050a12" stroke-width="1.5" stroke-linejoin="round"/>
<polygon id="front-yaw-004-face-48" points="717.76,488.06 715.97,511.42 672.88,511.68 674.67,488.32" fill="rgb(8,9,10)" stroke="#050a12" stroke-width="1.5" stroke-linejoin="round"/>
<polygon id="front-yaw-004-face-49" points="386.72,379.86 389.17,392.28 346.07,392.55 343.63,380.13" fill="rgb(10,11,14)" stroke="#050a12" stroke-width="1.5" stroke-linejoin="round"/>
<polygon id="front-yaw-004-face-50" points="715.97,390.29 717.76,418.12 674.67,418.39 672.88,390.56" fill="rgb(10,12,14)" stroke="#050a12" stroke-width="1.5" stroke-linejoin="round"/>
<polygon id="front-yaw-004-face-51" points="718.42,453.91 717.76,488.06 674.67,488.32 675.32,454.17" fill="rgb(8,9,11)" stroke="#050a12" stroke-width="1.5" stroke-linejoin="round"/>
<polygon id="front-yaw-004-face-52" points="390.96,490.05 389.17,513.41 346.07,513.67 347.87,490.31" fill="rgb(8,9,10)" stroke="#050a12" stroke-width="1.5" stroke-linejoin="round"/>
<polygon id="front-yaw-004-face-53" points="717.76,418.12 718.42,453.91 675.32,454.17 674.67,418.39" fill="rgb(9,11,13)" stroke="#050a12" stroke-width="1.5" stroke-linejoin="round"/>
<polygon id="front-yaw-004-face-54" points="389.17,392.28 390.96,420.12 347.87,420.38 346.07,392.55" fill="rgb(10,12,14)" stroke="#050a12" stroke-width="1.5" stroke-linejoin="round"/>
<polygon id="front-yaw-004-face-55" points="391.62,455.90 390.96,490.05 347.87,490.31 348.52,456.16" fill="rgb(8,9,11)" stroke="#050a12" stroke-width="1.5" stroke-linejoin="round"/>
<polygon id="front-yaw-004-face-56" points="390.96,420.12 391.62,455.90 348.52,456.16 347.87,420.38" fill="rgb(9,11,13)" stroke="#050a12" stroke-width="1.5" stroke-linejoin="round"/>
<polygon id="front-yaw-004-face-57" points="693.41,470.36 690.20,477.61 690.20,404.09 693.41,386.08" fill="rgb(112,51,28)" stroke="#050a12" stroke-width="1.5" stroke-linejoin="round"/>
<polygon id="front-yaw-004-face-58" points="363.98,451.16 363.98,429.64 367.00,433.40 367.00,454.92" fill="rgb(42,48,53)" stroke="#050a12" stroke-width="1.5" stroke-linejoin="round"/>
<polygon id="front-yaw-004-face-59" points="693.41,386.08 690.20,404.09 388.54,405.93 373.79,388.03" fill="rgb(199,88,46)" stroke="#050a12" stroke-width="1.5" stroke-linejoin="round"/>
<polygon id="front-yaw-004-face-60" points="373.79,472.30 373.79,388.03 388.54,405.93 388.54,479.45" fill="rgb(165,73,39)" stroke="#050a12" stroke-width="1.5" stroke-linejoin="round"/>
<polygon id="front-yaw-004-face-61" points="675.21,476.02 676.47,477.58 403.53,479.25 402.28,477.68" fill="rgb(50,58,63)" stroke="#050a12" stroke-width="1.5" stroke-linejoin="round"/>
<polygon id="front-yaw-004-face-62" points="690.20,477.61 388.54,479.45 388.54,405.93 690.20,404.09" fill="rgb(163,72,38)" stroke="#050a12" stroke-width="1.5" stroke-linejoin="round"/>
<polygon id="front-yaw-004-face-63" points="680.72,442.97 681.98,444.53 398.27,446.26 397.02,444.70" fill="rgb(29,37,42)" stroke="#050a12" stroke-width="1.5" stroke-linejoin="round"/>
<polygon id="front-yaw-004-face-64" points="676.47,493.72 403.53,495.38 403.53,479.25 676.47,477.58" fill="rgb(43,49,54)" stroke="#050a12" stroke-width="1.5" stroke-linejoin="round"/>
<polygon id="front-yaw-004-face-65" points="402.28,493.82 402.28,477.68 403.53,479.25 403.53,495.38" fill="rgb(42,48,53)" stroke="#050a12" stroke-width="1.5" stroke-linejoin="round"/>
<polygon id="front-yaw-004-face-66" points="681.98,476.81 398.27,478.54 398.27,446.26 681.98,444.53" fill="rgb(25,32,36)" stroke="#050a12" stroke-width="1.5" stroke-linejoin="round"/>
<polygon id="front-yaw-004-face-67" points="397.02,476.97 397.02,444.70 398.27,446.26 398.27,478.54" fill="rgb(25,31,35)" stroke="#050a12" stroke-width="1.5" stroke-linejoin="round"/>
<polygon id="front-yaw-004-face-68" points="351.71,304.40 392.57,235.94 400.75,243.44 368.43,324.33" fill="rgb(11,19,30)" stroke="#050a12" stroke-width="2.2" stroke-linejoin="round"/>
<polygon id="front-yaw-004-face-69" points="655.53,343.46 619.10,255.60 617.37,244.01 649.69,324.50" fill="rgb(9,14,20)" stroke="#050a12" stroke-width="2.2" stroke-linejoin="round"/>
<polygon id="front-yaw-004-face-70" points="370.29,326.20 402.61,245.32 413.69,256.86 389.06,345.09" fill="rgb(11,20,31)" stroke="#050a12" stroke-width="2.2" stroke-linejoin="round"/>
<polygon id="front-yaw-004-face-71" points="636.81,345.32 410.57,346.70 429.43,256.24 605.40,255.17" fill="rgb(12,21,33)" stroke="#050a12" stroke-width="1.5" stroke-linejoin="round"/>
<polygon id="front-yaw-004-face-72" points="306.06,366.95 307.54,374.43 308.62,391.20 309.01,412.76 308.62,433.34 307.54,447.42 306.06,451.22 304.58,443.74 303.50,426.97 303.11,405.41 303.50,384.83 304.58,370.75" fill="rgb(156,130,78)" stroke="#050a12" stroke-width="1.5" stroke-linejoin="round"/>
<polygon id="front-yaw-004-face-73" points="305.52,393.85 306.05,396.55 306.45,402.62 306.59,410.42 306.45,417.86 306.05,422.95 305.52,424.33 304.99,421.62 304.60,415.56 304.45,407.76 304.60,400.32 304.99,395.22" fill="rgb(43,45,48)" stroke="#050a12" stroke-width="1.5" stroke-linejoin="round"/>
<polygon id="front-yaw-004-face-74" points="342.55,407.93 344.02,415.41 345.10,432.18 345.50,453.74 345.10,474.32 344.02,488.40 342.55,492.20 341.07,484.72 339.99,467.95 339.60,446.39 339.99,425.81 341.07,411.73" fill="rgb(156,130,78)" stroke="#050a12" stroke-width="1.5" stroke-linejoin="round"/>
<polygon id="front-yaw-004-face-75" points="342.01,434.83 342.54,437.53 342.93,443.60 343.08,451.40 342.93,458.84 342.54,463.93 342.01,465.31 341.48,462.60 341.09,456.54 340.94,448.74 341.09,441.30 341.48,436.20" fill="rgb(43,45,48)" stroke="#050a12" stroke-width="1.5" stroke-linejoin="round"/>
<polygon id="front-yaw-004-face-76" points="680.12,327.12 680.12,319.05 682.89,322.50 682.89,330.57" fill="rgb(12,17,25)" stroke="#050a12" stroke-width="1.5" stroke-linejoin="round"/>
<polygon id="front-yaw-004-face-77" points="685.51,319.02 688.27,322.46 682.89,322.50 680.12,319.05" fill="rgb(13,20,30)" stroke="#050a12" stroke-width="1.5" stroke-linejoin="round"/>
<polygon id="front-yaw-004-face-78" points="688.27,330.53 682.89,330.57 682.89,322.50 688.27,322.46" fill="rgb(12,18,26)" stroke="#050a12" stroke-width="1.5" stroke-linejoin="round"/>
<polygon id="front-yaw-004-face-79" points="338.24,329.21 338.24,321.14 341.00,324.58 341.00,332.65" fill="rgb(12,17,25)" stroke="#050a12" stroke-width="1.5" stroke-linejoin="round"/>
<polygon id="front-yaw-004-face-80" points="343.63,321.11 346.39,324.55 341.00,324.58 338.24,321.14" fill="rgb(13,20,30)" stroke="#050a12" stroke-width="1.5" stroke-linejoin="round"/>
<polygon id="front-yaw-004-face-81" points="346.39,332.62 341.00,332.65 341.00,324.58 346.39,324.55" fill="rgb(12,18,26)" stroke="#050a12" stroke-width="1.5" stroke-linejoin="round"/>
<polygon id="front-yaw-004-face-82" points="681.31,430.26 595.12,430.78 595.12,393.12 681.31,392.60" fill="rgb(12,18,26)" stroke="#050a12" stroke-width="1.5" stroke-linejoin="round"/>
<polygon id="front-yaw-004-face-83" points="591.66,462.34 487.51,462.97 487.51,434.28 591.66,433.65" fill="rgb(12,18,26)" stroke="#050a12" stroke-width="1.5" stroke-linejoin="round"/>
<polygon id="front-yaw-004-face-84" points="483.80,431.46 397.61,431.98 397.61,394.33 483.80,393.80" fill="rgb(12,18,26)" stroke="#050a12" stroke-width="1.5" stroke-linejoin="round"/>
<polygon id="front-yaw-004-face-85" points="674.22,422.34 613.17,422.71 613.17,397.61 674.22,397.24" fill="rgb(242,249,237)" stroke="#050a12" stroke-width="1.5" stroke-linejoin="round"/>
<polygon id="front-yaw-004-face-86" points="465.93,423.61 404.88,423.98 404.88,398.88 465.93,398.50" fill="rgb(242,249,237)" stroke="#050a12" stroke-width="1.5" stroke-linejoin="round"/>
<polygon id="front-yaw-004-face-87" points="605.11,424.59 588.95,424.68 588.95,399.58 605.11,399.48" fill="rgb(235,151,50)" stroke="#050a12" stroke-width="1.5" stroke-linejoin="round"/>
<polygon id="front-yaw-004-face-88" points="490.19,425.29 474.03,425.38 474.03,400.28 490.19,400.18" fill="rgb(235,151,50)" stroke="#050a12" stroke-width="1.5" stroke-linejoin="round"/>
  </g>
</svg>
