<?xml version="1.0" encoding="UTF-8"?>
<svg xmlns="http://www.w3.org/2000/svg" width="1024" height="640" viewBox="0 0 1024 640">
  <title>Kagero VX at 52 degrees yaw</title>
  <desc>Original cab-forward mid-engine wedge with a violet body and solid graphite aero trim.</desc>
  <g>
<polygon id="yaw-052-face-0" points="596.50,472.76 567.35,464.87 594.68,467.92 623.84,475.81" fill="rgb(8,9,10)" stroke="#050a12" stroke-width="1.5" stroke-linejoin="round"/>
<polygon id="yaw-052-face-1" points="567.35,337.19 596.50,325.32 623.84,328.37 594.68,340.24" fill="rgb(10,12,14)" stroke="#050a12" stroke-width="1.5" stroke-linejoin="round"/>
<polygon id="yaw-052-face-2" points="623.84,328.37 652.99,336.27 674.34,361.79 682.15,398.12 674.34,435.51 652.99,463.95 623.84,475.81 594.68,467.92 573.34,442.39 565.53,406.06 573.34,368.67 594.68,340.24" fill="rgb(8,9,11)" stroke="#050a12" stroke-width="1.5" stroke-linejoin="round"/>
<polygon id="yaw-052-face-3" points="567.35,464.87 546.00,439.34 573.34,442.39 594.68,467.92" fill="rgb(8,9,10)" stroke="#050a12" stroke-width="1.5" stroke-linejoin="round"/>
<polygon id="yaw-052-face-4" points="546.00,365.62 567.35,337.19 594.68,340.24 573.34,368.67" fill="rgb(10,12,15)" stroke="#050a12" stroke-width="1.5" stroke-linejoin="round"/>
<polygon id="yaw-052-face-5" points="546.00,439.34 538.19,403.01 565.53,406.06 573.34,442.39" fill="rgb(9,10,12)" stroke="#050a12" stroke-width="1.5" stroke-linejoin="round"/>
<polygon id="yaw-052-face-6" points="741.47,415.58 756.04,414.59 926.89,433.65 912.31,434.64" fill="rgb(47,55,64)" stroke="#050a12" stroke-width="1.5" stroke-linejoin="round"/>
<polygon id="yaw-052-face-7" points="740.96,384.59 755.54,383.60 933.22,403.42 918.64,404.42" fill="rgb(25,31,38)" stroke="#050a12" stroke-width="1.5" stroke-linejoin="round"/>
<polygon id="yaw-052-face-8" points="538.19,403.01 546.00,365.62 573.34,368.67 565.53,406.06" fill="rgb(10,11,14)" stroke="#050a12" stroke-width="1.5" stroke-linejoin="round"/>
<polygon id="yaw-052-face-9" points="740.96,415.92 740.96,384.59 918.64,404.42 918.64,435.75" fill="rgb(24,29,35)" stroke="#050a12" stroke-width="1.5" stroke-linejoin="round"/>
<polygon id="yaw-052-face-10" points="741.47,430.33 741.47,415.58 912.31,434.64 912.31,449.39" fill="rgb(44,52,60)" stroke="#050a12" stroke-width="1.5" stroke-linejoin="round"/>
<polygon id="yaw-052-face-11" points="502.47,285.65 538.92,283.17 563.98,285.97 527.53,288.45" fill="rgb(25,31,38)" stroke="#050a12" stroke-width="1.5" stroke-linejoin="round"/>
<polygon id="yaw-052-face-12" points="502.47,307.77 502.47,285.65 527.53,288.45 527.53,310.56" fill="rgb(24,29,35)" stroke="#050a12" stroke-width="1.5" stroke-linejoin="round"/>
<polygon id="yaw-052-face-13" points="527.53,310.56 527.53,288.45 563.98,285.97 563.98,308.08" fill="rgb(18,22,26)" stroke="#050a12" stroke-width="1.5" stroke-linejoin="round"/>
<polygon id="yaw-052-face-14" points="625.39,353.05 737.68,363.83 933.59,385.68 841.79,377.19" fill="rgb(105,75,137)" stroke="#050a12" stroke-width="1.5" stroke-linejoin="round"/>
<polygon id="yaw-052-face-15" points="912.31,449.39 912.31,434.64 926.89,433.65 926.89,448.39" fill="rgb(32,38,43)" stroke="#050a12" stroke-width="1.5" stroke-linejoin="round"/>
<polygon id="yaw-052-face-16" points="918.64,435.75 918.64,404.42 933.22,403.42 933.22,434.75" fill="rgb(18,22,26)" stroke="#050a12" stroke-width="1.5" stroke-linejoin="round"/>
<polygon id="yaw-052-face-17" points="494.32,348.05 625.39,353.05 841.79,377.19 722.11,373.46" fill="rgb(107,77,140)" stroke="#050a12" stroke-width="1.5" stroke-linejoin="round"/>
<polygon id="yaw-052-face-18" points="841.79,443.54 841.79,377.19 933.59,385.68 933.59,435.44" fill="rgb(69,50,89)" stroke="#050a12" stroke-width="1.5" stroke-linejoin="round"/>
<polygon id="yaw-052-face-19" points="894.32,420.22 894.32,396.26 917.64,394.67 917.64,418.63" fill="rgb(32,38,43)" stroke="#050a12" stroke-width="1.5" stroke-linejoin="round"/>
<polygon id="yaw-052-face-20" points="422.75,238.86 553.18,236.94 680.75,251.17 566.26,254.87" fill="rgb(25,30,37)" stroke="#050a12" stroke-width="1.5" stroke-linejoin="round"/>
<polygon id="yaw-052-face-21" points="808.35,496.39 779.20,488.50 806.53,491.55 835.69,499.44" fill="rgb(8,9,10)" stroke="#050a12" stroke-width="1.5" stroke-linejoin="round"/>
<polygon id="yaw-052-face-22" points="779.20,360.82 808.35,348.96 835.69,352.01 806.53,363.87" fill="rgb(10,12,14)" stroke="#050a12" stroke-width="1.5" stroke-linejoin="round"/>
<polygon id="yaw-052-face-23" points="835.69,352.01 864.84,359.90 886.19,385.43 894.00,421.75 886.19,459.15 864.84,487.58 835.69,499.44 806.53,491.55 785.19,466.02 777.37,429.70 785.19,392.30 806.53,363.87" fill="rgb(8,9,11)" stroke="#050a12" stroke-width="1.5" stroke-linejoin="round"/>
<polygon id="yaw-052-face-24" points="779.20,488.50 757.85,462.97 785.19,466.02 806.53,491.55" fill="rgb(8,9,10)" stroke="#050a12" stroke-width="1.5" stroke-linejoin="round"/>
<polygon id="yaw-052-face-25" points="757.85,389.26 779.20,360.82 806.53,363.87 785.19,392.30" fill="rgb(10,12,15)" stroke="#050a12" stroke-width="1.5" stroke-linejoin="round"/>
<polygon id="yaw-052-face-26" points="757.85,462.97 750.04,426.65 777.37,429.70 785.19,466.02" fill="rgb(9,10,12)" stroke="#050a12" stroke-width="1.5" stroke-linejoin="round"/>
<polygon id="yaw-052-face-27" points="722.11,452.71 722.11,373.46 841.79,377.19 841.79,443.54" fill="rgb(71,51,92)" stroke="#050a12" stroke-width="1.5" stroke-linejoin="round"/>
<polygon id="yaw-052-face-28" points="750.04,426.65 757.85,389.26 785.19,392.30 777.37,429.70" fill="rgb(10,11,14)" stroke="#050a12" stroke-width="1.5" stroke-linejoin="round"/>
<polygon id="yaw-052-face-29" points="165.83,501.99 135.22,493.70 163.69,496.88 194.30,505.16" fill="rgb(8,9,10)" stroke="#050a12" stroke-width="1.5" stroke-linejoin="round"/>
<polygon id="yaw-052-face-30" points="243.39,353.26 494.32,348.05 722.11,373.46 480.30,379.69" fill="rgb(109,78,142)" stroke="#050a12" stroke-width="1.5" stroke-linejoin="round"/>
<polygon id="yaw-052-face-31" points="194.30,350.35 224.92,358.64 247.33,385.45 255.53,423.59 247.33,462.85 224.92,492.71 194.30,505.16 163.69,496.88 141.28,470.07 133.08,431.93 141.28,392.67 163.69,362.81" fill="rgb(8,9,11)" stroke="#050a12" stroke-width="1.5" stroke-linejoin="round"/>
<polygon id="yaw-052-face-32" points="135.22,359.63 165.83,347.18 194.30,350.35 163.69,362.81" fill="rgb(10,12,14)" stroke="#050a12" stroke-width="1.5" stroke-linejoin="round"/>
<polygon id="yaw-052-face-33" points="716.60,309.54 753.05,307.06 778.10,309.85 741.66,312.34" fill="rgb(25,31,38)" stroke="#050a12" stroke-width="1.5" stroke-linejoin="round"/>
<polygon id="yaw-052-face-34" points="135.22,493.70 112.80,466.90 141.28,470.07 163.69,496.88" fill="rgb(8,9,10)" stroke="#050a12" stroke-width="1.5" stroke-linejoin="round"/>
<polygon id="yaw-052-face-35" points="112.80,389.49 135.22,359.63 163.69,362.81 141.28,392.67" fill="rgb(10,12,15)" stroke="#050a12" stroke-width="1.5" stroke-linejoin="round"/>
<polygon id="yaw-052-face-36" points="716.60,331.66 716.60,309.54 741.66,312.34 741.66,334.45" fill="rgb(24,29,35)" stroke="#050a12" stroke-width="1.5" stroke-linejoin="round"/>
<polygon id="yaw-052-face-37" points="741.66,334.45 741.66,312.34 778.10,309.85 778.10,331.97" fill="rgb(18,22,26)" stroke="#050a12" stroke-width="1.5" stroke-linejoin="round"/>
<polygon id="yaw-052-face-38" points="112.80,466.90 104.60,428.75 133.08,431.93 141.28,470.07" fill="rgb(9,10,12)" stroke="#050a12" stroke-width="1.5" stroke-linejoin="round"/>
<polygon id="yaw-052-face-39" points="297.92,361.22 422.75,238.86 566.26,254.87 486.99,382.31" fill="rgb(28,34,42)" stroke="#050a12" stroke-width="1.5" stroke-linejoin="round"/>
<polygon id="yaw-052-face-40" points="104.60,428.75 112.80,389.49 141.28,392.67 133.08,431.93" fill="rgb(10,11,14)" stroke="#050a12" stroke-width="1.5" stroke-linejoin="round"/>
<polygon id="yaw-052-face-41" points="486.99,382.31 566.26,254.87 680.75,251.17 774.14,377.50" fill="rgb(19,23,28)" stroke="#050a12" stroke-width="1.5" stroke-linejoin="round"/>
<polygon id="yaw-052-face-42" points="630.27,368.41 610.45,259.31 627.60,258.08 647.31,369.02" fill="rgb(20,24,30)" stroke="#050a12" stroke-width="1.5" stroke-linejoin="round"/>
<polygon id="yaw-052-face-43" points="149.18,353.93 306.63,343.21 345.35,347.53 187.91,358.25" fill="rgb(25,31,38)" stroke="#050a12" stroke-width="1.5" stroke-linejoin="round"/>
<polygon id="yaw-052-face-44" points="187.91,369.31 187.91,358.25 345.35,347.53 345.35,358.59" fill="rgb(18,22,26)" stroke="#050a12" stroke-width="1.5" stroke-linejoin="round"/>
<polygon id="yaw-052-face-45" points="482.44,449.70 482.44,425.74 768.17,406.28 768.17,430.24" fill="rgb(32,38,43)" stroke="#050a12" stroke-width="1.5" stroke-linejoin="round"/>
<polygon id="yaw-052-face-46" points="480.30,469.99 480.30,379.69 722.11,373.46 722.11,452.71" fill="rgb(73,52,94)" stroke="#050a12" stroke-width="1.5" stroke-linejoin="round"/>
<polygon id="yaw-052-face-47" points="115.42,358.08 243.39,353.26 480.30,379.69 354.61,384.77" fill="rgb(110,78,143)" stroke="#050a12" stroke-width="1.5" stroke-linejoin="round"/>
<polygon id="yaw-052-face-48" points="149.18,364.99 149.18,353.93 187.91,358.25 187.91,369.31" fill="rgb(24,29,35)" stroke="#050a12" stroke-width="1.5" stroke-linejoin="round"/>
<polygon id="yaw-052-face-49" points="503.99,430.00 503.99,383.93 573.96,379.17 573.96,425.24" fill="rgb(18,22,26)" stroke="#050a12" stroke-width="1.5" stroke-linejoin="round"/>
<polygon id="yaw-052-face-50" points="247.13,364.86 404.58,354.14 443.30,358.46 285.86,369.18" fill="rgb(25,31,38)" stroke="#050a12" stroke-width="1.5" stroke-linejoin="round"/>
<polygon id="yaw-052-face-51" points="120.53,471.78 146.77,469.99 162.71,471.77 136.47,473.56" fill="rgb(60,68,77)" stroke="#050a12" stroke-width="1.5" stroke-linejoin="round"/>
<polygon id="yaw-052-face-52" points="49.50,366.46 115.42,358.08 354.61,384.77 286.41,392.89" fill="rgb(112,80,146)" stroke="#050a12" stroke-width="1.5" stroke-linejoin="round"/>
<polygon id="yaw-052-face-53" points="136.47,491.99 136.47,473.56 162.71,471.77 162.71,490.20" fill="rgb(41,46,52)" stroke="#050a12" stroke-width="1.5" stroke-linejoin="round"/>
<polygon id="yaw-052-face-54" points="120.53,490.21 120.53,471.78 136.47,473.56 136.47,491.99" fill="rgb(56,64,72)" stroke="#050a12" stroke-width="1.5" stroke-linejoin="round"/>
<polygon id="yaw-052-face-55" points="285.86,380.24 285.86,369.18 443.30,358.46 443.30,369.52" fill="rgb(18,22,26)" stroke="#050a12" stroke-width="1.5" stroke-linejoin="round"/>
<polygon id="yaw-052-face-56" points="49.50,456.77 49.50,366.46 286.41,392.89 286.41,483.20" fill="rgb(103,74,134)" stroke="#050a12" stroke-width="1.5" stroke-linejoin="round"/>
<polygon id="yaw-052-face-57" points="45.81,421.59 60.39,420.60 281.35,445.25 266.77,446.24" fill="rgb(25,31,38)" stroke="#050a12" stroke-width="1.5" stroke-linejoin="round"/>
<polygon id="yaw-052-face-58" points="45.81,454.77 45.81,421.59 266.77,446.24 266.77,479.41" fill="rgb(24,29,35)" stroke="#050a12" stroke-width="1.5" stroke-linejoin="round"/>
<polygon id="yaw-052-face-59" points="161.53,476.36 187.77,474.57 203.72,476.35 177.48,478.13" fill="rgb(60,68,77)" stroke="#050a12" stroke-width="1.5" stroke-linejoin="round"/>
<polygon id="yaw-052-face-60" points="247.13,375.92 247.13,364.86 285.86,369.18 285.86,380.24" fill="rgb(24,29,35)" stroke="#050a12" stroke-width="1.5" stroke-linejoin="round"/>
<polygon id="yaw-052-face-61" points="177.48,496.56 177.48,478.13 203.72,476.35 203.72,494.78" fill="rgb(41,46,52)" stroke="#050a12" stroke-width="1.5" stroke-linejoin="round"/>
<polygon id="yaw-052-face-62" points="161.53,494.79 161.53,476.36 177.48,478.13 177.48,496.56" fill="rgb(56,64,72)" stroke="#050a12" stroke-width="1.5" stroke-linejoin="round"/>
<polygon id="yaw-052-face-63" points="354.61,478.76 354.61,384.77 480.30,379.69 480.30,469.99" fill="rgb(73,53,95)" stroke="#050a12" stroke-width="1.5" stroke-linejoin="round"/>
<polygon id="yaw-052-face-64" points="398.18,527.91 367.57,519.62 396.04,522.80 426.66,531.08" fill="rgb(8,9,10)" stroke="#050a12" stroke-width="1.5" stroke-linejoin="round"/>
<polygon id="yaw-052-face-65" points="426.66,376.27 457.27,384.56 479.68,411.37 487.88,449.51 479.68,488.77 457.27,518.63 426.66,531.08 396.04,522.80 373.63,495.99 365.43,457.85 373.63,418.59 396.04,388.73" fill="rgb(8,9,11)" stroke="#050a12" stroke-width="1.5" stroke-linejoin="round"/>
<polygon id="yaw-052-face-66" points="367.57,385.55 398.18,373.10 426.66,376.27 396.04,388.73" fill="rgb(10,12,14)" stroke="#050a12" stroke-width="1.5" stroke-linejoin="round"/>
<polygon id="yaw-052-face-67" points="367.57,519.62 345.16,492.81 373.63,495.99 396.04,522.80" fill="rgb(8,9,10)" stroke="#050a12" stroke-width="1.5" stroke-linejoin="round"/>
<polygon id="yaw-052-face-68" points="345.16,415.41 367.57,385.55 396.04,388.73 373.63,418.59" fill="rgb(10,12,15)" stroke="#050a12" stroke-width="1.5" stroke-linejoin="round"/>
<polygon id="yaw-052-face-69" points="345.16,492.81 336.95,454.67 365.43,457.85 373.63,495.99" fill="rgb(9,10,12)" stroke="#050a12" stroke-width="1.5" stroke-linejoin="round"/>
<polygon id="yaw-052-face-70" points="336.95,454.67 345.16,415.41 373.63,418.59 365.43,457.85" fill="rgb(10,11,14)" stroke="#050a12" stroke-width="1.5" stroke-linejoin="round"/>
<polygon id="yaw-052-face-71" points="323.22,460.74 323.22,436.79 352.37,434.80 352.37,458.76" fill="rgb(32,38,43)" stroke="#050a12" stroke-width="1.5" stroke-linejoin="round"/>
<polygon id="yaw-052-face-72" points="286.41,483.20 286.41,392.89 354.61,384.77 354.61,478.76" fill="rgb(74,54,96)" stroke="#050a12" stroke-width="1.5" stroke-linejoin="round"/>
<polygon id="yaw-052-face-73" points="266.77,479.41 266.77,446.24 281.35,445.25 281.35,478.42" fill="rgb(18,22,26)" stroke="#050a12" stroke-width="1.5" stroke-linejoin="round"/>
<polygon id="yaw-052-face-74" points="646.17,365.20 626.35,263.47 675.05,266.59 754.64,367.93" fill="rgb(9,16,24)" stroke="#050a12" stroke-width="2.2" stroke-linejoin="round"/>
<polygon id="yaw-052-face-75" points="309.99,349.95 432.54,253.14 553.27,266.61 471.72,367.99" fill="rgb(12,22,35)" stroke="#050a12" stroke-width="2.2" stroke-linejoin="round"/>
<polygon id="yaw-052-face-76" points="503.58,369.96 573.46,267.52 609.31,264.71 629.36,364.63" fill="rgb(10,16,24)" stroke="#050a12" stroke-width="2.2" stroke-linejoin="round"/>
<polygon id="yaw-052-face-77" points="836.37,382.49 853.50,387.13 866.04,402.13 870.63,423.47 866.04,445.44 853.50,462.14 836.37,469.11 819.24,464.47 806.70,449.48 802.11,428.13 806.70,406.17 819.24,389.46" fill="rgb(118,122,124)" stroke="#050a12" stroke-width="1.5" stroke-linejoin="round"/>
<polygon id="yaw-052-face-78" points="836.71,410.17 842.91,411.85 847.44,417.28 849.10,425.00 847.44,432.94 842.91,438.98 836.71,441.50 830.52,439.83 825.98,434.40 824.32,426.68 825.98,418.74 830.52,412.69" fill="rgb(35,38,42)" stroke="#050a12" stroke-width="1.5" stroke-linejoin="round"/>
<polygon id="yaw-052-face-79" points="427.34,407.68 445.56,412.61 458.90,428.57 463.78,451.27 458.90,474.64 445.56,492.42 427.34,499.83 409.12,494.90 395.78,478.94 390.89,456.24 395.78,432.87 409.12,415.09" fill="rgb(118,122,124)" stroke="#050a12" stroke-width="1.5" stroke-linejoin="round"/>
<polygon id="yaw-052-face-80" points="427.68,437.21 434.24,438.98 439.04,444.73 440.80,452.90 439.04,461.31 434.24,467.71 427.68,470.38 421.12,468.60 416.32,462.86 414.56,454.69 416.32,446.27 421.12,439.87" fill="rgb(35,38,42)" stroke="#050a12" stroke-width="1.5" stroke-linejoin="round"/>
<polygon id="yaw-052-face-81" points="444.59,325.08 473.75,323.10 477.17,323.48 448.01,325.46" fill="rgb(13,20,30)" stroke="#050a12" stroke-width="1.5" stroke-linejoin="round"/>
<polygon id="yaw-052-face-82" points="448.01,332.83 448.01,325.46 477.17,323.48 477.17,330.85" fill="rgb(10,15,21)" stroke="#050a12" stroke-width="1.5" stroke-linejoin="round"/>
<polygon id="yaw-052-face-83" points="444.59,332.45 444.59,325.08 448.01,325.46 448.01,332.83" fill="rgb(12,19,28)" stroke="#050a12" stroke-width="1.5" stroke-linejoin="round"/>
<polygon id="yaw-052-face-84" points="675.12,350.80 704.28,348.81 707.69,349.19 678.54,351.18" fill="rgb(13,20,30)" stroke="#050a12" stroke-width="1.5" stroke-linejoin="round"/>
<polygon id="yaw-052-face-85" points="678.54,358.55 678.54,351.18 707.69,349.19 707.69,356.57" fill="rgb(10,15,21)" stroke="#050a12" stroke-width="1.5" stroke-linejoin="round"/>
<polygon id="yaw-052-face-86" points="675.12,358.17 675.12,350.80 678.54,351.18 678.54,358.55" fill="rgb(12,19,28)" stroke="#050a12" stroke-width="1.5" stroke-linejoin="round"/>
<polygon id="yaw-052-face-87" points="57.14,420.41 57.14,357.75 262.15,380.62 262.15,443.28" fill="rgb(12,19,28)" stroke="#050a12" stroke-width="1.5" stroke-linejoin="round"/>
<polygon id="yaw-052-face-88" points="65.08,408.61 65.08,364.37 74.19,365.39 74.19,409.62" fill="rgb(232,51,77)" stroke="#050a12" stroke-width="1.5" stroke-linejoin="round"/>
<polygon id="yaw-052-face-89" points="81.03,410.38 81.03,366.15 90.14,367.17 90.14,411.40" fill="rgb(232,51,77)" stroke="#050a12" stroke-width="1.5" stroke-linejoin="round"/>
<polygon id="yaw-052-face-90" points="96.97,412.16 96.97,367.93 106.09,368.95 106.09,413.18" fill="rgb(232,51,77)" stroke="#050a12" stroke-width="1.5" stroke-linejoin="round"/>
<polygon id="yaw-052-face-91" points="210.87,424.87 210.87,380.64 219.98,381.65 219.98,425.88" fill="rgb(232,51,77)" stroke="#050a12" stroke-width="1.5" stroke-linejoin="round"/>
<polygon id="yaw-052-face-92" points="226.82,426.65 226.82,382.42 235.93,383.43 235.93,427.66" fill="rgb(232,51,77)" stroke="#050a12" stroke-width="1.5" stroke-linejoin="round"/>
<polygon id="yaw-052-face-93" points="242.76,428.43 242.76,384.19 251.87,385.21 251.87,429.44" fill="rgb(232,51,77)" stroke="#050a12" stroke-width="1.5" stroke-linejoin="round"/>
<polygon id="yaw-052-face-94" points="122.88,406.81 122.88,382.85 136.55,384.38 136.55,408.34" fill="rgb(234,217,178)" stroke="#050a12" stroke-width="1.5" stroke-linejoin="round"/>
<polygon id="yaw-052-face-95" points="135.12,456.15 135.12,428.50 180.68,433.58 180.68,461.23" fill="rgb(19,25,34)" stroke="#050a12" stroke-width="1.5" stroke-linejoin="round"/>
<polygon id="yaw-052-face-96" points="179.83,413.16 179.83,389.21 193.50,390.73 193.50,414.69" fill="rgb(234,217,178)" stroke="#050a12" stroke-width="1.5" stroke-linejoin="round"/>
  </g>
</svg>
