<?xml version="1.0" encoding="UTF-8"?>
<svg xmlns="http://www.w3.org/2000/svg" width="288" height="48" viewBox="0 0 288 48">
  <g transform="translate(0,0)">
    <ellipse cx="24" cy="45" rx="11" ry="2.6" fill="#08121d" opacity="0.45"/>
    <rect x="17" y="6" width="14" height="10" rx="2" fill="#a8f8ff" stroke="#183149" stroke-width="1"/>
    <rect x="19" y="9" width="10" height="3" rx="1" fill="#ff4dd7"/>
    <rect x="15" y="16" width="18" height="15" rx="2" fill="#59dbff" stroke="#183149" stroke-width="1"/>
    <rect x="11" y="18" width="4" height="10" rx="1" fill="#86f0ff"/>
    <rect x="33" y="18" width="4" height="10" rx="1" fill="#86f0ff"/>
    <rect x="17" y="30" width="5" height="13" rx="1" fill="#1f4b73"/>
    <rect x="26" y="30" width="5" height="13" rx="1" fill="#1f4b73"/>
    <rect x="19" y="20" width="10" height="3" rx="1" fill="#d8ff8d" opacity="0.85"/>
  </g>

  <g transform="translate(48,0)">
    <ellipse cx="24" cy="45" rx="11" ry="2.6" fill="#08121d" opacity="0.45"/>
    <rect x="17" y="5" width="14" height="10" rx="2" fill="#a8f8ff" stroke="#183149" stroke-width="1"/>
    <rect x="19" y="8" width="10" height="3" rx="1" fill="#ff4dd7"/>
    <rect x="15" y="15" width="18" height="15" rx="2" fill="#59dbff" stroke="#183149" stroke-width="1"/>
    <rect x="11" y="18" width="4" height="10" rx="1" fill="#86f0ff"/>
    <rect x="33" y="18" width="4" height="10" rx="1" fill="#86f0ff"/>
    <rect x="17" y="31" width="5" height="12" rx="1" fill="#1f4b73"/>
    <rect x="26" y="30" width="5" height="13" rx="1" fill="#1f4b73"/>
    <rect x="19" y="19" width="10" height="3" rx="1" fill="#d8ff8d" opacity="0.85"/>
  </g>

  <g transform="translate(96,0)">
    <ellipse cx="24" cy="45" rx="11" ry="2.6" fill="#08121d" opacity="0.45"/>
    <rect x="17" y="6" width="14" height="10" rx="2" fill="#a8f8ff" stroke="#183149" stroke-width="1"/>
    <rect x="19" y="9" width="10" height="3" rx="1" fill="#ff4dd7"/>
    <rect x="15" y="16" width="18" height="15" rx="2" fill="#59dbff" stroke="#183149" stroke-width="1"/>
    <rect x="10" y="17" width="4" height="11" rx="1" fill="#86f0ff"/>
    <rect x="34" y="19" width="4" height="9" rx="1" fill="#86f0ff"/>
    <rect x="17" y="30" width="5" height="13" rx="1" fill="#1f4b73"/>
    <rect x="26" y="31" width="5" height="12" rx="1" fill="#1f4b73"/>
    <rect x="19" y="20" width="10" height="3" rx="1" fill="#d8ff8d" opacity="0.85"/>
  </g>

  <g transform="translate(144,0)">
    <ellipse cx="24" cy="45" rx="11" ry="2.6" fill="#08121d" opacity="0.45"/>
    <rect x="17" y="7" width="14" height="10" rx="2" fill="#a8f8ff" stroke="#183149" stroke-width="1"/>
    <rect x="19" y="10" width="10" height="3" rx="1" fill="#ff4dd7"/>
    <rect x="15" y="17" width="18" height="15" rx="2" fill="#59dbff" stroke="#183149" stroke-width="1"/>
    <rect x="10" y="19" width="4" height="9" rx="1" fill="#86f0ff"/>
    <rect x="34" y="17" width="4" height="11" rx="1" fill="#86f0ff"/>
    <rect x="17" y="31" width="5" height="12" rx="1" fill="#1f4b73"/>
    <rect x="26" y="30" width="5" height="13" rx="1" fill="#1f4b73"/>
    <rect x="19" y="21" width="10" height="3" rx="1" fill="#d8ff8d" opacity="0.85"/>
  </g>

  <g transform="translate(192,0)">
    <ellipse cx="24" cy="45" rx="11" ry="2.6" fill="#08121d" opacity="0.45"/>
    <rect x="17" y="6" width="14" height="10" rx="2" fill="#a8f8ff" stroke="#183149" stroke-width="1"/>
    <rect x="19" y="9" width="10" height="3" rx="1" fill="#ff4dd7"/>
    <rect x="15" y="16" width="18" height="15" rx="2" fill="#59dbff" stroke="#183149" stroke-width="1"/>
    <rect x="11" y="18" width="4" height="10" rx="1" fill="#86f0ff"/>
    <rect x="33" y="18" width="4" height="10" rx="1" fill="#86f0ff"/>
    <rect x="17" y="30" width="5" height="13" rx="1" fill="#1f4b73"/>
    <rect x="26" y="30" width="5" height="13" rx="1" fill="#1f4b73"/>
    <rect x="19" y="20" width="10" height="3" rx="1" fill="#d8ff8d" opacity="0.85"/>
  </g>

  <g transform="translate(240,0)">
    <ellipse cx="24" cy="45" rx="11" ry="2.6" fill="#08121d" opacity="0.45"/>
    <rect x="17" y="6" width="14" height="10" rx="2" fill="#a8f8ff" stroke="#183149" stroke-width="1"/>
    <rect x="19" y="9" width="10" height="3" rx="1" fill="#ff4dd7"/>
    <rect x="15" y="16" width="18" height="15" rx="2" fill="#59dbff" stroke="#183149" stroke-width="1"/>
    <rect x="11" y="18" width="4" height="10" rx="1" fill="#86f0ff"/>
    <rect x="33" y="18" width="4" height="10" rx="1" fill="#86f0ff"/>
    <rect x="17" y="30" width="5" height="13" rx="1" fill="#1f4b73"/>
    <rect x="26" y="31" width="5" height="12" rx="1" fill="#1f4b73"/>
    <rect x="19" y="20" width="10" height="2" rx="1" fill="#ff4dd7" opacity="0.95"/>
  </g>
</svg>
