<?xml version="1.0" encoding="UTF-8"?>
<svg xmlns="http://www.w3.org/2000/svg" width="288" height="48" viewBox="0 0 288 48">
  <g transform="translate(0,0)">
    <ellipse cx="24" cy="45" rx="10" ry="2.4" fill="#08121d" opacity="0.4"/>
    <rect x="19" y="5" width="10" height="10" rx="4" fill="#f0c4a7" stroke="#4a2f31" stroke-width="1"/>
    <rect x="17" y="15" width="14" height="15" rx="2" fill="#2f5d9e"/>
    <rect x="14" y="17" width="3" height="10" rx="1" fill="#4e8ef0"/>
    <rect x="31" y="17" width="3" height="10" rx="1" fill="#4e8ef0"/>
    <rect x="18" y="30" width="5" height="13" rx="1" fill="#1b2a3e"/>
    <rect x="25" y="30" width="5" height="13" rx="1" fill="#1b2a3e"/>
    <rect x="20" y="8" width="8" height="2" rx="1" fill="#ff4dd7" opacity="0.9"/>
  </g>
  <g transform="translate(48,0)">
    <ellipse cx="24" cy="45" rx="10" ry="2.4" fill="#08121d" opacity="0.4"/>
    <rect x="19" y="4" width="10" height="10" rx="4" fill="#f0c4a7" stroke="#4a2f31" stroke-width="1"/>
    <rect x="17" y="14" width="14" height="15" rx="2" fill="#2f5d9e"/>
    <rect x="14" y="16" width="3" height="10" rx="1" fill="#4e8ef0"/>
    <rect x="31" y="16" width="3" height="10" rx="1" fill="#4e8ef0"/>
    <rect x="18" y="31" width="5" height="12" rx="1" fill="#1b2a3e"/>
    <rect x="25" y="30" width="5" height="13" rx="1" fill="#1b2a3e"/>
    <rect x="20" y="7" width="8" height="2" rx="1" fill="#ff4dd7" opacity="0.9"/>
  </g>
  <g transform="translate(96,0)">
    <ellipse cx="24" cy="45" rx="10" ry="2.4" fill="#08121d" opacity="0.4"/>
    <rect x="19" y="5" width="10" height="10" rx="4" fill="#f0c4a7" stroke="#4a2f31" stroke-width="1"/>
    <rect x="17" y="15" width="14" height="15" rx="2" fill="#2f5d9e"/>
    <rect x="13" y="16" width="3" height="10" rx="1" fill="#4e8ef0"/>
    <rect x="32" y="18" width="3" height="8" rx="1" fill="#4e8ef0"/>
    <rect x="18" y="30" width="5" height="13" rx="1" fill="#1b2a3e"/>
    <rect x="25" y="31" width="5" height="12" rx="1" fill="#1b2a3e"/>
    <rect x="20" y="8" width="8" height="2" rx="1" fill="#d8ff8d" opacity="0.9"/>
  </g>
  <g transform="translate(144,0)">
    <ellipse cx="24" cy="45" rx="10" ry="2.4" fill="#08121d" opacity="0.4"/>
    <rect x="19" y="6" width="10" height="10" rx="4" fill="#f0c4a7" stroke="#4a2f31" stroke-width="1"/>
    <rect x="17" y="16" width="14" height="15" rx="2" fill="#2f5d9e"/>
    <rect x="13" y="18" width="3" height="8" rx="1" fill="#4e8ef0"/>
    <rect x="32" y="16" width="3" height="10" rx="1" fill="#4e8ef0"/>
    <rect x="18" y="31" width="5" height="12" rx="1" fill="#1b2a3e"/>
    <rect x="25" y="30" width="5" height="13" rx="1" fill="#1b2a3e"/>
    <rect x="20" y="9" width="8" height="2" rx="1" fill="#d8ff8d" opacity="0.9"/>
  </g>
  <g transform="translate(192,0)">
    <ellipse cx="24" cy="45" rx="10" ry="2.4" fill="#08121d" opacity="0.4"/>
    <rect x="19" y="5" width="10" height="10" rx="4" fill="#f0c4a7" stroke="#4a2f31" stroke-width="1"/>
    <rect x="17" y="15" width="14" height="15" rx="2" fill="#2f5d9e"/>
    <rect x="14" y="17" width="3" height="10" rx="1" fill="#4e8ef0"/>
    <rect x="31" y="17" width="3" height="10" rx="1" fill="#4e8ef0"/>
    <rect x="18" y="30" width="5" height="13" rx="1" fill="#1b2a3e"/>
    <rect x="25" y="30" width="5" height="13" rx="1" fill="#1b2a3e"/>
    <rect x="20" y="8" width="8" height="2" rx="1" fill="#ff4dd7" opacity="0.9"/>
  </g>
  <g transform="translate(240,0)">
    <ellipse cx="24" cy="45" rx="10" ry="2.4" fill="#08121d" opacity="0.4"/>
    <rect x="19" y="5" width="10" height="10" rx="4" fill="#f0c4a7" stroke="#4a2f31" stroke-width="1"/>
    <rect x="17" y="15" width="14" height="15" rx="2" fill="#2f5d9e"/>
    <rect x="14" y="17" width="3" height="10" rx="1" fill="#4e8ef0"/>
    <rect x="31" y="17" width="3" height="10" rx="1" fill="#4e8ef0"/>
    <rect x="18" y="30" width="5" height="13" rx="1" fill="#1b2a3e"/>
    <rect x="25" y="31" width="5" height="12" rx="1" fill="#1b2a3e"/>
    <rect x="20" y="8" width="8" height="2" rx="1" fill="#ff4dd7" opacity="0.9"/>
  </g>
</svg>
