<?xml version="1.0" encoding="UTF-8"?>
<svg xmlns="http://www.w3.org/2000/svg" width="1440" height="320" viewBox="0 0 1440 320">
  <rect width="1440" height="320" fill="#05080d"/>
  
    <g transform="translate(0 0)">
      <rect x="8" y="8" width="344" height="284" rx="12" fill="#0b111b" stroke="#26364a"/>
      <g transform="translate(7.00 28) scale(0.34)">
<polygon id="sheet-front-0-face-0" points="643.25,410.44 643.25,413.49 608.25,413.49 608.25,410.44" fill="rgb(60,68,77)" stroke="#050a12" stroke-width="1.5" stroke-linejoin="round"/>
<polygon id="sheet-front-0-face-1" points="415.75,410.44 415.75,413.49 380.75,413.49 380.75,410.44" fill="rgb(60,68,77)" stroke="#050a12" stroke-width="1.5" stroke-linejoin="round"/>
<polygon id="sheet-front-0-face-2" points="688.75,369.93 688.75,372.37 335.25,372.37 335.25,369.93" fill="rgb(25,37,44)" stroke="#050a12" stroke-width="1.5" stroke-linejoin="round"/>
<polygon id="sheet-front-0-face-3" points="643.25,432.67 608.25,432.67 608.25,413.49 643.25,413.49" fill="rgb(52,59,67)" stroke="#050a12" stroke-width="1.5" stroke-linejoin="round"/>
<polygon id="sheet-front-0-face-4" points="415.75,432.67 380.75,432.67 380.75,413.49 415.75,413.49" fill="rgb(52,59,67)" stroke="#050a12" stroke-width="1.5" stroke-linejoin="round"/>
<polygon id="sheet-front-0-face-5" points="688.75,407.24 335.25,407.24 335.25,372.37 688.75,372.37" fill="rgb(22,32,38)" stroke="#050a12" stroke-width="1.5" stroke-linejoin="round"/>
<polygon id="sheet-front-0-face-6" points="667.75,246.54 667.75,251.73 356.25,251.73 356.25,246.54" fill="rgb(25,37,44)" stroke="#050a12" stroke-width="1.5" stroke-linejoin="round"/>
<polygon id="sheet-front-0-face-7" points="683.50,412.31 681.75,419.33 681.75,314.73 683.50,305.97" fill="rgb(16,67,71)" stroke="#050a12" stroke-width="1.5" stroke-linejoin="round"/>
<polygon id="sheet-front-0-face-8" points="340.50,412.31 340.50,305.97 342.25,314.73 342.25,419.33" fill="rgb(21,92,98)" stroke="#050a12" stroke-width="1.5" stroke-linejoin="round"/>
<polygon id="sheet-front-0-face-9" points="683.50,305.97 681.75,314.73 342.25,314.73 340.50,305.97" fill="rgb(24,114,121)" stroke="#050a12" stroke-width="1.5" stroke-linejoin="round"/>
<polygon id="sheet-front-0-face-10" points="622.25,259.45 622.25,261.28 604.75,261.28 604.75,259.45" fill="rgb(25,37,44)" stroke="#050a12" stroke-width="1.5" stroke-linejoin="round"/>
<polygon id="sheet-front-0-face-11" points="419.25,259.45 419.25,261.28 401.75,261.28 401.75,259.45" fill="rgb(25,37,44)" stroke="#050a12" stroke-width="1.5" stroke-linejoin="round"/>
<polygon id="sheet-front-0-face-12" points="622.25,317.06 604.75,317.06 604.75,261.28 622.25,261.28" fill="rgb(22,32,38)" stroke="#050a12" stroke-width="1.5" stroke-linejoin="round"/>
<polygon id="sheet-front-0-face-13" points="419.25,317.06 401.75,317.06 401.75,261.28 419.25,261.28" fill="rgb(22,32,38)" stroke="#050a12" stroke-width="1.5" stroke-linejoin="round"/>
<polygon id="sheet-front-0-face-14" points="667.75,269.16 356.25,269.16 356.25,251.73 667.75,251.73" fill="rgb(22,32,38)" stroke="#050a12" stroke-width="1.5" stroke-linejoin="round"/>
<polygon id="sheet-front-0-face-15" points="681.75,419.33 678.25,432.45 678.25,329.59 681.75,314.73" fill="rgb(16,67,71)" stroke="#050a12" stroke-width="1.5" stroke-linejoin="round"/>
<polygon id="sheet-front-0-face-16" points="342.25,419.33 342.25,314.73 345.75,329.59 345.75,432.45" fill="rgb(21,93,98)" stroke="#050a12" stroke-width="1.5" stroke-linejoin="round"/>
<polygon id="sheet-front-0-face-17" points="681.75,314.73 678.25,329.59 345.75,329.59 342.25,314.73" fill="rgb(24,114,121)" stroke="#050a12" stroke-width="1.5" stroke-linejoin="round"/>
<polygon id="sheet-front-0-face-18" points="701.88,470.00 701.88,476.45 658.13,476.45 658.13,470.00" fill="rgb(8,9,10)" stroke="#050a12" stroke-width="1.5" stroke-linejoin="round"/>
<polygon id="sheet-front-0-face-19" points="365.88,470.00 365.88,476.45 322.13,476.45 322.13,470.00" fill="rgb(8,9,10)" stroke="#050a12" stroke-width="1.5" stroke-linejoin="round"/>
<polygon id="sheet-front-0-face-20" points="701.88,333.49 701.88,346.19 658.13,346.19 658.13,333.49" fill="rgb(10,12,14)" stroke="#050a12" stroke-width="1.5" stroke-linejoin="round"/>
<polygon id="sheet-front-0-face-21" points="365.88,333.49 365.88,346.19 322.13,346.19 322.13,333.49" fill="rgb(10,12,14)" stroke="#050a12" stroke-width="1.5" stroke-linejoin="round"/>
<polygon id="sheet-front-0-face-22" points="701.88,446.12 701.88,470.00 658.13,470.00 658.13,446.12" fill="rgb(8,9,10)" stroke="#050a12" stroke-width="1.5" stroke-linejoin="round"/>
<polygon id="sheet-front-0-face-23" points="365.88,446.12 365.88,470.00 322.13,470.00 322.13,446.12" fill="rgb(8,9,10)" stroke="#050a12" stroke-width="1.5" stroke-linejoin="round"/>
<polygon id="sheet-front-0-face-24" points="701.88,346.19 701.88,374.65 658.13,374.65 658.13,346.19" fill="rgb(10,12,14)" stroke="#050a12" stroke-width="1.5" stroke-linejoin="round"/>
<polygon id="sheet-front-0-face-25" points="365.88,346.19 365.88,374.65 322.13,374.65 322.13,346.19" fill="rgb(10,12,14)" stroke="#050a12" stroke-width="1.5" stroke-linejoin="round"/>
<polygon id="sheet-front-0-face-26" points="701.88,411.22 701.88,446.12 658.13,446.12 658.13,411.22" fill="rgb(8,10,11)" stroke="#050a12" stroke-width="1.5" stroke-linejoin="round"/>
<polygon id="sheet-front-0-face-27" points="365.88,411.22 365.88,446.12 322.13,446.12 322.13,411.22" fill="rgb(8,10,11)" stroke="#050a12" stroke-width="1.5" stroke-linejoin="round"/>
<polygon id="sheet-front-0-face-28" points="701.88,374.65 701.88,411.22 658.13,411.22 658.13,374.65" fill="rgb(9,11,13)" stroke="#050a12" stroke-width="1.5" stroke-linejoin="round"/>
<polygon id="sheet-front-0-face-29" points="365.88,374.65 365.88,411.22 322.13,411.22 322.13,374.65" fill="rgb(9,11,13)" stroke="#050a12" stroke-width="1.5" stroke-linejoin="round"/>
<polygon id="sheet-front-0-face-30" points="652.88,334.14 623.48,250.46 623.65,248.79 653.05,332.47" fill="rgb(17,23,27)" stroke="#050a12" stroke-width="1.5" stroke-linejoin="round"/>
<polygon id="sheet-front-0-face-31" points="370.95,332.47 400.35,248.79 400.52,250.46 371.13,334.14" fill="rgb(24,35,41)" stroke="#050a12" stroke-width="1.5" stroke-linejoin="round"/>
<polygon id="sheet-front-0-face-32" points="653.75,324.93 645.00,363.06 613.50,254.32 620.50,231.00" fill="rgb(17,23,27)" stroke="#050a12" stroke-width="1.5" stroke-linejoin="round"/>
<polygon id="sheet-front-0-face-33" points="370.25,324.93 403.50,231.00 410.50,254.32 379.00,363.06" fill="rgb(24,34,41)" stroke="#050a12" stroke-width="1.5" stroke-linejoin="round"/>
<polygon id="sheet-front-0-face-34" points="620.50,231.00 613.50,254.32 410.50,254.32 403.50,231.00" fill="rgb(25,37,44)" stroke="#050a12" stroke-width="1.5" stroke-linejoin="round"/>
<polygon id="sheet-front-0-face-35" points="678.25,432.45 673.00,463.26 673.00,367.37 678.25,329.59" fill="rgb(16,67,71)" stroke="#050a12" stroke-width="1.5" stroke-linejoin="round"/>
<polygon id="sheet-front-0-face-36" points="345.75,432.45 345.75,329.59 351.00,367.37 351.00,463.26" fill="rgb(21,92,98)" stroke="#050a12" stroke-width="1.5" stroke-linejoin="round"/>
<polygon id="sheet-front-0-face-37" points="678.25,329.59 673.00,367.37 351.00,367.37 345.75,329.59" fill="rgb(24,114,121)" stroke="#050a12" stroke-width="1.5" stroke-linejoin="round"/>
<polygon id="sheet-front-0-face-38" points="699.25,308.48 699.25,312.60 660.75,312.60 660.75,308.48" fill="rgb(25,37,44)" stroke="#050a12" stroke-width="1.5" stroke-linejoin="round"/>
<polygon id="sheet-front-0-face-39" points="363.25,308.48 363.25,312.60 324.75,312.60 324.75,308.48" fill="rgb(25,37,44)" stroke="#050a12" stroke-width="1.5" stroke-linejoin="round"/>
<polygon id="sheet-front-0-face-40" points="645.00,363.06 379.00,363.06 410.50,254.32 613.50,254.32" fill="rgb(27,39,46)" stroke="#050a12" stroke-width="1.5" stroke-linejoin="round"/>
<polygon id="sheet-front-0-face-41" points="699.25,335.26 660.75,335.26 660.75,312.60 699.25,312.60" fill="rgb(22,32,38)" stroke="#050a12" stroke-width="1.5" stroke-linejoin="round"/>
<polygon id="sheet-front-0-face-42" points="363.25,335.26 324.75,335.26 324.75,312.60 363.25,312.60" fill="rgb(22,32,38)" stroke="#050a12" stroke-width="1.5" stroke-linejoin="round"/>
<polygon id="sheet-front-0-face-43" points="673.00,463.26 671.25,476.53 671.25,384.13 673.00,367.37" fill="rgb(16,67,71)" stroke="#050a12" stroke-width="1.5" stroke-linejoin="round"/>
<polygon id="sheet-front-0-face-44" points="351.00,463.26 351.00,367.37 352.75,384.13 352.75,476.53" fill="rgb(21,92,98)" stroke="#050a12" stroke-width="1.5" stroke-linejoin="round"/>
<polygon id="sheet-front-0-face-45" points="673.00,367.37 671.25,384.13 352.75,384.13 351.00,367.37" fill="rgb(24,114,121)" stroke="#050a12" stroke-width="1.5" stroke-linejoin="round"/>
<polygon id="sheet-front-0-face-46" points="701.88,514.08 701.88,520.52 658.13,520.52 658.13,514.08" fill="rgb(8,9,10)" stroke="#050a12" stroke-width="1.5" stroke-linejoin="round"/>
<polygon id="sheet-front-0-face-47" points="365.88,514.08 365.88,520.52 322.13,520.52 322.13,514.08" fill="rgb(8,9,10)" stroke="#050a12" stroke-width="1.5" stroke-linejoin="round"/>
<polygon id="sheet-front-0-face-48" points="701.88,377.57 701.88,390.27 658.13,390.27 658.13,377.57" fill="rgb(10,12,14)" stroke="#050a12" stroke-width="1.5" stroke-linejoin="round"/>
<polygon id="sheet-front-0-face-49" points="365.88,377.57 365.88,390.27 322.13,390.27 322.13,377.57" fill="rgb(10,12,14)" stroke="#050a12" stroke-width="1.5" stroke-linejoin="round"/>
<polygon id="sheet-front-0-face-50" points="701.88,490.20 701.88,514.08 658.13,514.08 658.13,490.20" fill="rgb(8,9,10)" stroke="#050a12" stroke-width="1.5" stroke-linejoin="round"/>
<polygon id="sheet-front-0-face-51" points="365.88,490.20 365.88,514.08 322.13,514.08 322.13,490.20" fill="rgb(8,9,10)" stroke="#050a12" stroke-width="1.5" stroke-linejoin="round"/>
<polygon id="sheet-front-0-face-52" points="701.88,390.27 701.88,418.73 658.13,418.73 658.13,390.27" fill="rgb(10,12,14)" stroke="#050a12" stroke-width="1.5" stroke-linejoin="round"/>
<polygon id="sheet-front-0-face-53" points="365.88,390.27 365.88,418.73 322.13,418.73 322.13,390.27" fill="rgb(10,12,14)" stroke="#050a12" stroke-width="1.5" stroke-linejoin="round"/>
<polygon id="sheet-front-0-face-54" points="701.88,455.30 701.88,490.20 658.13,490.20 658.13,455.30" fill="rgb(8,10,11)" stroke="#050a12" stroke-width="1.5" stroke-linejoin="round"/>
<polygon id="sheet-front-0-face-55" points="365.88,455.30 365.88,490.20 322.13,490.20 322.13,455.30" fill="rgb(8,10,11)" stroke="#050a12" stroke-width="1.5" stroke-linejoin="round"/>
<polygon id="sheet-front-0-face-56" points="701.88,418.73 701.88,455.30 658.13,455.30 658.13,418.73" fill="rgb(9,11,13)" stroke="#050a12" stroke-width="1.5" stroke-linejoin="round"/>
<polygon id="sheet-front-0-face-57" points="365.88,418.73 365.88,455.30 322.13,455.30 322.13,418.73" fill="rgb(9,11,13)" stroke="#050a12" stroke-width="1.5" stroke-linejoin="round"/>
<polygon id="sheet-front-0-face-58" points="671.25,476.53 669.50,483.70 669.50,393.04 671.25,384.13" fill="rgb(16,67,71)" stroke="#050a12" stroke-width="1.5" stroke-linejoin="round"/>
<polygon id="sheet-front-0-face-59" points="352.75,476.53 352.75,384.13 354.50,393.04 354.50,483.70" fill="rgb(21,92,98)" stroke="#050a12" stroke-width="1.5" stroke-linejoin="round"/>
<polygon id="sheet-front-0-face-60" points="671.25,384.13 669.50,393.04 354.50,393.04 352.75,384.13" fill="rgb(24,114,121)" stroke="#050a12" stroke-width="1.5" stroke-linejoin="round"/>
<polygon id="sheet-front-0-face-61" points="659.00,479.29 659.00,481.12 365.00,481.12 365.00,479.29" fill="rgb(38,52,59)" stroke="#050a12" stroke-width="1.5" stroke-linejoin="round"/>
<polygon id="sheet-front-0-face-62" points="669.50,483.70 354.50,483.70 354.50,393.04 669.50,393.04" fill="rgb(22,97,103)" stroke="#050a12" stroke-width="1.5" stroke-linejoin="round"/>
<polygon id="sheet-front-0-face-63" points="662.50,444.73 662.50,446.56 361.50,446.56 361.50,444.73" fill="rgb(25,37,44)" stroke="#050a12" stroke-width="1.5" stroke-linejoin="round"/>
<polygon id="sheet-front-0-face-64" points="659.00,498.56 365.00,498.56 365.00,481.12 659.00,481.12" fill="rgb(34,45,51)" stroke="#050a12" stroke-width="1.5" stroke-linejoin="round"/>
<polygon id="sheet-front-0-face-65" points="662.50,481.43 361.50,481.43 361.50,446.56 662.50,446.56" fill="rgb(22,32,38)" stroke="#050a12" stroke-width="1.5" stroke-linejoin="round"/>
<polygon id="sheet-front-0-face-66" points="652.00,328.98 622.60,254.02 623.13,247.30 652.35,313.12" fill="rgb(9,14,20)" stroke="#050a12" stroke-width="2.2" stroke-linejoin="round"/>
<polygon id="sheet-front-0-face-67" points="371.65,313.12 400.88,247.30 401.40,254.02 372.00,328.98" fill="rgb(11,19,30)" stroke="#050a12" stroke-width="2.2" stroke-linejoin="round"/>
<polygon id="sheet-front-0-face-68" points="646.40,347.28 619.63,268.79 622.42,255.69 651.83,330.66" fill="rgb(9,14,20)" stroke="#050a12" stroke-width="2.2" stroke-linejoin="round"/>
<polygon id="sheet-front-0-face-69" points="372.17,330.66 401.57,255.69 404.38,268.79 377.60,347.28" fill="rgb(11,19,30)" stroke="#050a12" stroke-width="2.2" stroke-linejoin="round"/>
<polygon id="sheet-front-0-face-70" points="625.75,349.28 398.25,349.28 422.75,266.69 601.25,266.69" fill="rgb(12,21,34)" stroke="#050a12" stroke-width="1.5" stroke-linejoin="round"/>
<polygon id="sheet-front-0-face-71" points="688.23,326.37 688.23,330.19 682.98,330.19 682.98,326.37" fill="rgb(13,20,30)" stroke="#050a12" stroke-width="1.5" stroke-linejoin="round"/>
<polygon id="sheet-front-0-face-72" points="341.02,326.37 341.02,330.19 335.77,330.19 335.77,326.37" fill="rgb(13,20,30)" stroke="#050a12" stroke-width="1.5" stroke-linejoin="round"/>
<polygon id="sheet-front-0-face-73" points="688.23,338.03 682.98,338.03 682.98,330.19 688.23,330.19" fill="rgb(12,18,26)" stroke="#050a12" stroke-width="1.5" stroke-linejoin="round"/>
<polygon id="sheet-front-0-face-74" points="341.02,338.03 335.77,338.03 335.77,330.19 341.02,330.19" fill="rgb(12,18,26)" stroke="#050a12" stroke-width="1.5" stroke-linejoin="round"/>
<polygon id="sheet-front-0-face-75" points="569.75,455.17 454.25,455.17 454.25,425.54 569.75,425.54" fill="rgb(12,18,26)" stroke="#050a12" stroke-width="1.5" stroke-linejoin="round"/>
<polygon id="sheet-front-0-face-76" points="662.50,427.14 564.50,427.14 564.50,387.05 662.50,387.05" fill="rgb(12,18,26)" stroke="#050a12" stroke-width="1.5" stroke-linejoin="round"/>
<polygon id="sheet-front-0-face-77" points="459.50,427.14 361.50,427.14 361.50,387.05 459.50,387.05" fill="rgb(12,18,26)" stroke="#050a12" stroke-width="1.5" stroke-linejoin="round"/>
<polygon id="sheet-front-0-face-78" points="653.75,416.77 587.25,416.77 587.25,390.62 653.75,390.62" fill="rgb(239,250,243)" stroke="#050a12" stroke-width="1.5" stroke-linejoin="round"/>
<polygon id="sheet-front-0-face-79" points="436.75,416.77 370.25,416.77 370.25,390.62 436.75,390.62" fill="rgb(239,250,243)" stroke="#050a12" stroke-width="1.5" stroke-linejoin="round"/>
<polygon id="sheet-front-0-face-80" points="579.38,418.55 563.63,418.55 563.63,392.40 579.38,392.40" fill="rgb(235,151,50)" stroke="#050a12" stroke-width="1.5" stroke-linejoin="round"/>
<polygon id="sheet-front-0-face-81" points="460.38,418.55 444.63,418.55 444.63,392.40 460.38,392.40" fill="rgb(235,151,50)" stroke="#050a12" stroke-width="1.5" stroke-linejoin="round"/>
      </g>
      <text x="24" y="38" fill="#d7e2ed" font-family="Consolas, monospace" font-size="18" font-weight="700">00° FRONT</text>
      <text x="336" y="38" text-anchor="end" fill="#8291a2" font-family="Consolas, monospace" font-size="13">AONAMI GT</text>
    </g>

    <g transform="translate(360 0)">
      <rect x="8" y="8" width="344" height="284" rx="12" fill="#0b111b" stroke="#26364a"/>
      <g transform="translate(7.00 28) scale(0.34)">
<polygon id="sheet-front-4-face-0" points="612.41,409.74 614.85,412.78 579.94,412.99 577.50,409.95" fill="rgb(60,68,77)" stroke="#050a12" stroke-width="1.5" stroke-linejoin="round"/>
<polygon id="sheet-front-4-face-1" points="577.50,429.13 577.50,409.95 579.94,412.99 579.94,432.17" fill="rgb(51,57,64)" stroke="#050a12" stroke-width="1.5" stroke-linejoin="round"/>
<polygon id="sheet-front-4-face-2" points="658.17,368.95 660.12,371.38 307.48,373.53 305.53,371.10" fill="rgb(25,37,44)" stroke="#050a12" stroke-width="1.5" stroke-linejoin="round"/>
<polygon id="sheet-front-4-face-3" points="385.47,411.12 387.91,414.16 352.99,414.37 350.55,411.33" fill="rgb(60,68,77)" stroke="#050a12" stroke-width="1.5" stroke-linejoin="round"/>
<polygon id="sheet-front-4-face-4" points="350.55,430.51 350.55,411.33 352.99,414.37 352.99,433.55" fill="rgb(51,57,64)" stroke="#050a12" stroke-width="1.5" stroke-linejoin="round"/>
<polygon id="sheet-front-4-face-5" points="614.85,431.96 579.94,432.17 579.94,412.99 614.85,412.78" fill="rgb(51,58,65)" stroke="#050a12" stroke-width="1.5" stroke-linejoin="round"/>
<polygon id="sheet-front-4-face-6" points="305.53,405.96 305.53,371.10 307.48,373.53 307.48,408.40" fill="rgb(22,31,37)" stroke="#050a12" stroke-width="1.5" stroke-linejoin="round"/>
<polygon id="sheet-front-4-face-7" points="660.12,406.25 307.48,408.40 307.48,373.53 660.12,371.38" fill="rgb(22,32,37)" stroke="#050a12" stroke-width="1.5" stroke-linejoin="round"/>
<polygon id="sheet-front-4-face-8" points="387.91,433.34 352.99,433.55 352.99,414.37 387.91,414.16" fill="rgb(51,58,65)" stroke="#050a12" stroke-width="1.5" stroke-linejoin="round"/>
<polygon id="sheet-front-4-face-9" points="578.03,314.75 578.03,258.96 579.50,260.79 579.50,316.57" fill="rgb(22,31,37)" stroke="#050a12" stroke-width="1.5" stroke-linejoin="round"/>
<polygon id="sheet-front-4-face-10" points="638.93,245.68 643.08,250.86 332.34,252.75 328.19,247.58" fill="rgb(25,37,44)" stroke="#050a12" stroke-width="1.5" stroke-linejoin="round"/>
<polygon id="sheet-front-4-face-11" points="595.49,258.86 596.96,260.68 579.50,260.79 578.03,258.96" fill="rgb(25,37,44)" stroke="#050a12" stroke-width="1.5" stroke-linejoin="round"/>
<polygon id="sheet-front-4-face-12" points="654.76,305.01 658.63,313.77 319.96,315.83 312.60,307.10" fill="rgb(24,114,121)" stroke="#050a12" stroke-width="1.5" stroke-linejoin="round"/>
<polygon id="sheet-front-4-face-13" points="596.96,316.47 579.50,316.57 579.50,260.79 596.96,260.68" fill="rgb(22,32,37)" stroke="#050a12" stroke-width="1.5" stroke-linejoin="round"/>
<polygon id="sheet-front-4-face-14" points="328.19,265.01 328.19,247.58 332.34,252.75 332.34,270.18" fill="rgb(22,31,37)" stroke="#050a12" stroke-width="1.5" stroke-linejoin="round"/>
<polygon id="sheet-front-4-face-15" points="375.53,315.98 375.53,260.20 376.99,262.02 376.99,317.81" fill="rgb(22,31,37)" stroke="#050a12" stroke-width="1.5" stroke-linejoin="round"/>
<polygon id="sheet-front-4-face-16" points="312.60,413.44 312.60,307.10 319.96,315.83 319.96,420.43" fill="rgb(21,95,100)" stroke="#050a12" stroke-width="1.5" stroke-linejoin="round"/>
<polygon id="sheet-front-4-face-17" points="392.99,260.09 394.45,261.92 376.99,262.02 375.53,260.20" fill="rgb(25,37,44)" stroke="#050a12" stroke-width="1.5" stroke-linejoin="round"/>
<polygon id="sheet-front-4-face-18" points="394.45,317.70 376.99,317.81 376.99,262.02 394.45,261.92" fill="rgb(22,32,37)" stroke="#050a12" stroke-width="1.5" stroke-linejoin="round"/>
<polygon id="sheet-front-4-face-19" points="643.08,268.29 332.34,270.18 332.34,252.75 643.08,250.86" fill="rgb(22,32,37)" stroke="#050a12" stroke-width="1.5" stroke-linejoin="round"/>
<polygon id="sheet-front-4-face-20" points="314.97,396.79 314.97,372.38 316.92,374.82 316.92,399.22" fill="rgb(32,43,49)" stroke="#050a12" stroke-width="1.5" stroke-linejoin="round"/>
<polygon id="sheet-front-4-face-21" points="640.31,332.66 642.82,345.35 644.65,373.80 645.32,410.37 644.65,445.27 642.82,469.15 640.31,475.61 637.81,462.92 635.98,434.47 635.31,397.90 635.98,362.99 637.81,339.11" fill="rgb(9,10,12)" stroke="#050a12" stroke-width="1.5" stroke-linejoin="round"/>
<polygon id="sheet-front-4-face-22" points="686.46,468.89 683.96,475.34 640.31,475.61 642.82,469.15" fill="rgb(8,9,10)" stroke="#050a12" stroke-width="1.5" stroke-linejoin="round"/>
<polygon id="sheet-front-4-face-23" points="658.63,313.77 665.64,328.62 333.95,330.64 319.96,315.83" fill="rgb(24,114,121)" stroke="#050a12" stroke-width="1.5" stroke-linejoin="round"/>
<polygon id="sheet-front-4-face-24" points="683.96,332.39 686.46,345.09 642.82,345.35 640.31,332.66" fill="rgb(10,11,14)" stroke="#050a12" stroke-width="1.5" stroke-linejoin="round"/>
<polygon id="sheet-front-4-face-25" points="305.13,334.70 307.63,347.39 309.47,375.84 310.14,412.41 309.47,447.32 307.63,471.20 305.13,477.65 302.63,464.96 300.80,436.51 300.13,399.94 300.80,365.04 302.63,341.16" fill="rgb(9,10,12)" stroke="#050a12" stroke-width="1.5" stroke-linejoin="round"/>
<polygon id="sheet-front-4-face-26" points="319.96,420.43 319.96,315.83 333.95,330.64 333.95,433.50" fill="rgb(21,95,100)" stroke="#050a12" stroke-width="1.5" stroke-linejoin="round"/>
<polygon id="sheet-front-4-face-27" points="351.28,470.93 348.77,477.39 305.13,477.65 307.63,471.20" fill="rgb(8,9,10)" stroke="#050a12" stroke-width="1.5" stroke-linejoin="round"/>
<polygon id="sheet-front-4-face-28" points="688.29,445.01 686.46,468.89 642.82,469.15 644.65,445.27" fill="rgb(8,9,10)" stroke="#050a12" stroke-width="1.5" stroke-linejoin="round"/>
<polygon id="sheet-front-4-face-29" points="348.77,334.43 351.28,347.13 307.63,347.39 305.13,334.70" fill="rgb(10,11,14)" stroke="#050a12" stroke-width="1.5" stroke-linejoin="round"/>
<polygon id="sheet-front-4-face-30" points="686.46,345.09 688.29,373.53 644.65,373.80 642.82,345.35" fill="rgb(10,12,14)" stroke="#050a12" stroke-width="1.5" stroke-linejoin="round"/>
<polygon id="sheet-front-4-face-31" points="688.96,410.11 688.29,445.01 644.65,445.27 645.32,410.37" fill="rgb(8,9,11)" stroke="#050a12" stroke-width="1.5" stroke-linejoin="round"/>
<polygon id="sheet-front-4-face-32" points="353.11,447.05 351.28,470.93 307.63,471.20 309.47,447.32" fill="rgb(8,9,10)" stroke="#050a12" stroke-width="1.5" stroke-linejoin="round"/>
<polygon id="sheet-front-4-face-33" points="688.29,373.53 688.96,410.11 645.32,410.37 644.65,373.80" fill="rgb(9,11,13)" stroke="#050a12" stroke-width="1.5" stroke-linejoin="round"/>
<polygon id="sheet-front-4-face-34" points="351.28,347.13 353.11,375.57 309.47,375.84 307.63,347.39" fill="rgb(10,12,14)" stroke="#050a12" stroke-width="1.5" stroke-linejoin="round"/>
<polygon id="sheet-front-4-face-35" points="353.78,412.15 353.11,447.05 309.47,447.32 310.14,412.41" fill="rgb(8,9,11)" stroke="#050a12" stroke-width="1.5" stroke-linejoin="round"/>
<polygon id="sheet-front-4-face-36" points="353.11,375.57 353.78,412.15 310.14,412.41 309.47,375.84" fill="rgb(9,11,13)" stroke="#050a12" stroke-width="1.5" stroke-linejoin="round"/>
<polygon id="sheet-front-4-face-37" points="368.36,333.33 397.69,249.47 399.21,251.15 369.88,335.00" fill="rgb(24,35,42)" stroke="#050a12" stroke-width="1.5" stroke-linejoin="round"/>
<polygon id="sheet-front-4-face-38" points="353.26,325.84 394.97,231.69 417.83,254.91 392.51,363.83" fill="rgb(24,35,41)" stroke="#050a12" stroke-width="1.5" stroke-linejoin="round"/>
<polygon id="sheet-front-4-face-39" points="611.45,230.37 620.33,253.68 417.83,254.91 394.97,231.69" fill="rgb(25,37,44)" stroke="#050a12" stroke-width="1.5" stroke-linejoin="round"/>
<polygon id="sheet-front-4-face-40" points="665.64,328.62 685.06,366.36 363.84,368.31 333.95,330.64" fill="rgb(24,114,121)" stroke="#050a12" stroke-width="1.5" stroke-linejoin="round"/>
<polygon id="sheet-front-4-face-41" points="333.95,433.50 333.95,330.64 363.84,368.31 363.84,464.20" fill="rgb(21,94,100)" stroke="#050a12" stroke-width="1.5" stroke-linejoin="round"/>
<polygon id="sheet-front-4-face-42" points="327.91,412.92 327.91,388.51 352.20,418.79 352.20,443.20" fill="rgb(32,43,49)" stroke="#050a12" stroke-width="1.5" stroke-linejoin="round"/>
<polygon id="sheet-front-4-face-43" points="706.67,307.32 709.96,311.43 671.56,311.66 668.26,307.55" fill="rgb(25,37,44)" stroke="#050a12" stroke-width="1.5" stroke-linejoin="round"/>
<polygon id="sheet-front-4-face-44" points="668.26,330.22 668.26,307.55 671.56,311.66 671.56,334.33" fill="rgb(22,31,37)" stroke="#050a12" stroke-width="1.5" stroke-linejoin="round"/>
<polygon id="sheet-front-4-face-45" points="657.86,362.21 392.51,363.83 417.83,254.91 620.33,253.68" fill="rgb(26,38,46)" stroke="#050a12" stroke-width="1.5" stroke-linejoin="round"/>
<polygon id="sheet-front-4-face-46" points="709.96,334.09 671.56,334.33 671.56,311.66 709.96,311.43" fill="rgb(22,32,37)" stroke="#050a12" stroke-width="1.5" stroke-linejoin="round"/>
<polygon id="sheet-front-4-face-47" points="371.49,309.36 374.78,313.47 336.38,313.70 333.08,309.60" fill="rgb(25,37,44)" stroke="#050a12" stroke-width="1.5" stroke-linejoin="round"/>
<polygon id="sheet-front-4-face-48" points="333.08,332.26 333.08,309.60 336.38,313.70 336.38,336.37" fill="rgb(22,31,37)" stroke="#050a12" stroke-width="1.5" stroke-linejoin="round"/>
<polygon id="sheet-front-4-face-49" points="374.78,336.13 336.38,336.37 336.38,313.70 374.78,313.47" fill="rgb(22,32,37)" stroke="#050a12" stroke-width="1.5" stroke-linejoin="round"/>
<polygon id="sheet-front-4-face-50" points="675.59,376.63 678.09,389.32 679.93,417.77 680.60,454.34 679.93,489.25 678.09,513.13 675.59,519.58 673.09,506.89 671.26,478.44 670.59,441.87 671.26,406.96 673.09,383.09" fill="rgb(9,10,12)" stroke="#050a12" stroke-width="1.5" stroke-linejoin="round"/>
<polygon id="sheet-front-4-face-51" points="721.74,512.86 719.24,519.32 675.59,519.58 678.09,513.13" fill="rgb(8,9,10)" stroke="#050a12" stroke-width="1.5" stroke-linejoin="round"/>
<polygon id="sheet-front-4-face-52" points="685.06,366.36 693.93,383.09 376.21,385.03 363.84,368.31" fill="rgb(24,114,121)" stroke="#050a12" stroke-width="1.5" stroke-linejoin="round"/>
<polygon id="sheet-front-4-face-53" points="719.24,376.36 721.74,389.06 678.09,389.32 675.59,376.63" fill="rgb(10,11,14)" stroke="#050a12" stroke-width="1.5" stroke-linejoin="round"/>
<polygon id="sheet-front-4-face-54" points="363.84,464.20 363.84,368.31 376.21,385.03 376.21,477.42" fill="rgb(21,94,100)" stroke="#050a12" stroke-width="1.5" stroke-linejoin="round"/>
<polygon id="sheet-front-4-face-55" points="340.41,378.67 342.91,391.37 344.74,419.81 345.42,456.39 344.74,491.29 342.91,515.17 340.41,521.63 337.91,508.93 336.08,480.48 335.41,443.91 336.08,409.01 337.91,385.13" fill="rgb(9,10,12)" stroke="#050a12" stroke-width="1.5" stroke-linejoin="round"/>
<polygon id="sheet-front-4-face-56" points="386.56,514.90 384.05,521.36 340.41,521.63 342.91,515.17" fill="rgb(8,9,10)" stroke="#050a12" stroke-width="1.5" stroke-linejoin="round"/>
<polygon id="sheet-front-4-face-57" points="723.57,488.98 721.74,512.86 678.09,513.13 679.93,489.25" fill="rgb(8,9,10)" stroke="#050a12" stroke-width="1.5" stroke-linejoin="round"/>
<polygon id="sheet-front-4-face-58" points="384.05,378.41 386.56,391.10 342.91,391.37 340.41,378.67" fill="rgb(10,11,14)" stroke="#050a12" stroke-width="1.5" stroke-linejoin="round"/>
<polygon id="sheet-front-4-face-59" points="721.74,389.06 723.57,417.50 679.93,417.77 678.09,389.32" fill="rgb(10,12,14)" stroke="#050a12" stroke-width="1.5" stroke-linejoin="round"/>
<polygon id="sheet-front-4-face-60" points="724.24,454.08 723.57,488.98 679.93,489.25 680.60,454.34" fill="rgb(8,9,11)" stroke="#050a12" stroke-width="1.5" stroke-linejoin="round"/>
<polygon id="sheet-front-4-face-61" points="388.39,491.02 386.56,514.90 342.91,515.17 344.74,491.29" fill="rgb(8,9,10)" stroke="#050a12" stroke-width="1.5" stroke-linejoin="round"/>
<polygon id="sheet-front-4-face-62" points="723.57,417.50 724.24,454.08 680.60,454.34 679.93,417.77" fill="rgb(9,11,13)" stroke="#050a12" stroke-width="1.5" stroke-linejoin="round"/>
<polygon id="sheet-front-4-face-63" points="386.56,391.10 388.39,419.55 344.74,419.81 342.91,391.37" fill="rgb(10,12,14)" stroke="#050a12" stroke-width="1.5" stroke-linejoin="round"/>
<polygon id="sheet-front-4-face-64" points="389.06,456.12 388.39,491.02 344.74,491.29 345.42,456.39" fill="rgb(8,9,11)" stroke="#050a12" stroke-width="1.5" stroke-linejoin="round"/>
<polygon id="sheet-front-4-face-65" points="388.39,419.55 389.06,456.12 345.42,456.39 344.74,419.81" fill="rgb(9,11,13)" stroke="#050a12" stroke-width="1.5" stroke-linejoin="round"/>
<polygon id="sheet-front-4-face-66" points="363.06,456.74 363.06,432.33 365.26,435.07 365.26,459.48" fill="rgb(32,43,49)" stroke="#050a12" stroke-width="1.5" stroke-linejoin="round"/>
<polygon id="sheet-front-4-face-67" points="693.93,383.09 697.93,392.00 383.69,393.91 376.21,385.03" fill="rgb(24,114,121)" stroke="#050a12" stroke-width="1.5" stroke-linejoin="round"/>
<polygon id="sheet-front-4-face-68" points="376.21,477.42 376.21,385.03 383.69,393.91 383.69,484.56" fill="rgb(21,95,100)" stroke="#050a12" stroke-width="1.5" stroke-linejoin="round"/>
<polygon id="sheet-front-4-face-69" points="686.72,478.31 688.18,480.14 394.90,481.93 393.44,480.10" fill="rgb(38,52,59)" stroke="#050a12" stroke-width="1.5" stroke-linejoin="round"/>
<polygon id="sheet-front-4-face-70" points="697.93,482.65 383.69,484.56 383.69,393.91 697.93,392.00" fill="rgb(21,96,101)" stroke="#050a12" stroke-width="1.5" stroke-linejoin="round"/>
<polygon id="sheet-front-4-face-71" points="690.45,443.73 691.92,445.56 391.65,447.39 390.19,445.56" fill="rgb(25,37,44)" stroke="#050a12" stroke-width="1.5" stroke-linejoin="round"/>
<polygon id="sheet-front-4-face-72" points="393.44,497.53 393.44,480.10 394.90,481.93 394.90,499.36" fill="rgb(32,43,49)" stroke="#050a12" stroke-width="1.5" stroke-linejoin="round"/>
<polygon id="sheet-front-4-face-73" points="688.18,497.57 394.90,499.36 394.90,481.93 688.18,480.14" fill="rgb(33,44,50)" stroke="#050a12" stroke-width="1.5" stroke-linejoin="round"/>
<polygon id="sheet-front-4-face-74" points="691.92,480.42 391.65,482.25 391.65,447.39 691.92,445.56" fill="rgb(22,32,37)" stroke="#050a12" stroke-width="1.5" stroke-linejoin="round"/>
<polygon id="sheet-front-4-face-75" points="390.19,480.43 390.19,445.56 391.65,447.39 391.65,482.25" fill="rgb(22,31,37)" stroke="#050a12" stroke-width="1.5" stroke-linejoin="round"/>
<polygon id="sheet-front-4-face-76" points="356.37,314.02 392.84,248.00 398.74,254.70 369.41,329.84" fill="rgb(11,19,30)" stroke="#050a12" stroke-width="2.2" stroke-linejoin="round"/>
<polygon id="sheet-front-4-face-77" points="370.93,331.51 400.26,256.37 410.74,269.42 389.65,348.06" fill="rgb(11,20,31)" stroke="#050a12" stroke-width="2.2" stroke-linejoin="round"/>
<polygon id="sheet-front-4-face-78" points="638.79,348.55 411.85,349.93 430.18,267.21 608.25,266.13" fill="rgb(12,21,33)" stroke="#050a12" stroke-width="1.5" stroke-linejoin="round"/>
<polygon id="sheet-front-4-face-79" points="304.08,362.60 305.61,370.34 306.73,387.69 307.14,409.99 306.73,431.27 305.61,445.83 304.08,449.77 302.56,442.03 301.44,424.68 301.03,402.38 301.44,381.10 302.56,366.54" fill="rgb(149,150,148)" stroke="#050a12" stroke-width="1.5" stroke-linejoin="round"/>
<polygon id="sheet-front-4-face-80" points="303.56,390.50 304.11,393.28 304.51,399.53 304.66,407.56 304.51,415.22 304.11,420.46 303.56,421.88 303.01,419.09 302.61,412.85 302.46,404.82 302.61,397.16 303.01,391.91" fill="rgb(40,45,48)" stroke="#050a12" stroke-width="1.5" stroke-linejoin="round"/>
<polygon id="sheet-front-4-face-81" points="339.36,406.57 340.89,414.31 342.01,431.66 342.41,453.96 342.01,475.24 340.89,489.80 339.36,493.74 337.84,486.00 336.72,468.65 336.31,446.35 336.72,425.07 337.84,410.51" fill="rgb(149,150,148)" stroke="#050a12" stroke-width="1.5" stroke-linejoin="round"/>
<polygon id="sheet-front-4-face-82" points="338.84,434.47 339.39,437.25 339.79,443.50 339.94,451.53 339.79,459.19 339.39,464.43 338.84,465.85 338.29,463.06 337.89,456.82 337.74,448.79 337.89,441.13 338.29,435.89" fill="rgb(40,45,48)" stroke="#050a12" stroke-width="1.5" stroke-linejoin="round"/>
<polygon id="sheet-front-4-face-83" points="683.47,333.18 683.47,325.33 686.53,329.14 686.53,336.98" fill="rgb(12,17,25)" stroke="#050a12" stroke-width="1.5" stroke-linejoin="round"/>
<polygon id="sheet-front-4-face-84" points="688.71,325.30 691.76,329.10 686.53,329.14 683.47,325.33" fill="rgb(13,20,30)" stroke="#050a12" stroke-width="1.5" stroke-linejoin="round"/>
<polygon id="sheet-front-4-face-85" points="691.76,336.95 686.53,336.98 686.53,329.14 691.76,329.10" fill="rgb(12,18,26)" stroke="#050a12" stroke-width="1.5" stroke-linejoin="round"/>
<polygon id="sheet-front-4-face-86" points="337.12,335.29 337.12,327.44 340.17,331.25 340.17,339.09" fill="rgb(12,17,25)" stroke="#050a12" stroke-width="1.5" stroke-linejoin="round"/>
<polygon id="sheet-front-4-face-87" points="342.36,327.41 345.41,331.21 340.17,331.25 337.12,327.44" fill="rgb(13,20,30)" stroke="#050a12" stroke-width="1.5" stroke-linejoin="round"/>
<polygon id="sheet-front-4-face-88" points="345.41,339.06 340.17,339.09 340.17,331.25 345.41,331.21" fill="rgb(12,18,26)" stroke="#050a12" stroke-width="1.5" stroke-linejoin="round"/>
<polygon id="sheet-front-4-face-89" points="359.68,420.27 359.68,388.89 363.10,393.15 363.10,424.53" fill="rgb(12,17,25)" stroke="#050a12" stroke-width="1.5" stroke-linejoin="round"/>
<polygon id="sheet-front-4-face-90" points="691.03,426.14 593.27,426.74 593.27,386.64 691.03,386.04" fill="rgb(12,18,26)" stroke="#050a12" stroke-width="1.5" stroke-linejoin="round"/>
<polygon id="sheet-front-4-face-91" points="598.61,454.73 483.40,455.44 483.40,425.80 598.61,425.10" fill="rgb(12,18,26)" stroke="#050a12" stroke-width="1.5" stroke-linejoin="round"/>
<polygon id="sheet-front-4-face-92" points="488.52,427.37 390.76,427.97 390.76,387.87 488.52,387.28" fill="rgb(12,18,26)" stroke="#050a12" stroke-width="1.5" stroke-linejoin="round"/>
<polygon id="sheet-front-4-face-93" points="682.37,415.82 616.03,416.23 616.03,390.08 682.37,389.67" fill="rgb(239,250,243)" stroke="#050a12" stroke-width="1.5" stroke-linejoin="round"/>
<polygon id="sheet-front-4-face-94" points="465.90,417.14 399.56,417.55 399.56,391.40 465.90,390.99" fill="rgb(239,250,243)" stroke="#050a12" stroke-width="1.5" stroke-linejoin="round"/>
<polygon id="sheet-front-4-face-95" points="608.20,418.05 592.49,418.15 592.49,392.00 608.20,391.90" fill="rgb(235,151,50)" stroke="#050a12" stroke-width="1.5" stroke-linejoin="round"/>
<polygon id="sheet-front-4-face-96" points="489.49,418.77 473.78,418.87 473.78,392.72 489.49,392.62" fill="rgb(235,151,50)" stroke="#050a12" stroke-width="1.5" stroke-linejoin="round"/>
      </g>
      <text x="24" y="38" fill="#d7e2ed" font-family="Consolas, monospace" font-size="18" font-weight="700">04° FRONT</text>
      <text x="336" y="38" text-anchor="end" fill="#8291a2" font-family="Consolas, monospace" font-size="13">AONAMI GT</text>
    </g>
</svg>
