<?xml version="1.0" encoding="UTF-8"?>
<svg xmlns="http://www.w3.org/2000/svg" width="1024" height="640" viewBox="0 0 1024 640">
  <title>Aonami GT front view at 0 degrees yaw</title>
  <desc>Original late-1990s-inspired grand tourer with a low teal body and solid graphite trim. Rendered from the front view.</desc>
  <g>
<polygon id="front-yaw-000-face-0" points="643.25,410.44 643.25,413.49 608.25,413.49 608.25,410.44" fill="rgb(60,68,77)" stroke="#050a12" stroke-width="1.5" stroke-linejoin="round"/>
<polygon id="front-yaw-000-face-1" points="415.75,410.44 415.75,413.49 380.75,413.49 380.75,410.44" fill="rgb(60,68,77)" stroke="#050a12" stroke-width="1.5" stroke-linejoin="round"/>
<polygon id="front-yaw-000-face-2" points="688.75,369.93 688.75,372.37 335.25,372.37 335.25,369.93" fill="rgb(25,37,44)" stroke="#050a12" stroke-width="1.5" stroke-linejoin="round"/>
<polygon id="front-yaw-000-face-3" points="643.25,432.67 608.25,432.67 608.25,413.49 643.25,413.49" fill="rgb(52,59,67)" stroke="#050a12" stroke-width="1.5" stroke-linejoin="round"/>
<polygon id="front-yaw-000-face-4" points="415.75,432.67 380.75,432.67 380.75,413.49 415.75,413.49" fill="rgb(52,59,67)" stroke="#050a12" stroke-width="1.5" stroke-linejoin="round"/>
<polygon id="front-yaw-000-face-5" points="688.75,407.24 335.25,407.24 335.25,372.37 688.75,372.37" fill="rgb(22,32,38)" stroke="#050a12" stroke-width="1.5" stroke-linejoin="round"/>
<polygon id="front-yaw-000-face-6" points="667.75,246.54 667.75,251.73 356.25,251.73 356.25,246.54" fill="rgb(25,37,44)" stroke="#050a12" stroke-width="1.5" stroke-linejoin="round"/>
<polygon id="front-yaw-000-face-7" points="683.50,412.31 681.75,419.33 681.75,314.73 683.50,305.97" fill="rgb(16,67,71)" stroke="#050a12" stroke-width="1.5" stroke-linejoin="round"/>
<polygon id="front-yaw-000-face-8" points="340.50,412.31 340.50,305.97 342.25,314.73 342.25,419.33" fill="rgb(21,92,98)" stroke="#050a12" stroke-width="1.5" stroke-linejoin="round"/>
<polygon id="front-yaw-000-face-9" points="683.50,305.97 681.75,314.73 342.25,314.73 340.50,305.97" fill="rgb(24,114,121)" stroke="#050a12" stroke-width="1.5" stroke-linejoin="round"/>
<polygon id="front-yaw-000-face-10" points="622.25,259.45 622.25,261.28 604.75,261.28 604.75,259.45" fill="rgb(25,37,44)" stroke="#050a12" stroke-width="1.5" stroke-linejoin="round"/>
<polygon id="front-yaw-000-face-11" points="419.25,259.45 419.25,261.28 401.75,261.28 401.75,259.45" fill="rgb(25,37,44)" stroke="#050a12" stroke-width="1.5" stroke-linejoin="round"/>
<polygon id="front-yaw-000-face-12" points="622.25,317.06 604.75,317.06 604.75,261.28 622.25,261.28" fill="rgb(22,32,38)" stroke="#050a12" stroke-width="1.5" stroke-linejoin="round"/>
<polygon id="front-yaw-000-face-13" points="419.25,317.06 401.75,317.06 401.75,261.28 419.25,261.28" fill="rgb(22,32,38)" stroke="#050a12" stroke-width="1.5" stroke-linejoin="round"/>
<polygon id="front-yaw-000-face-14" points="667.75,269.16 356.25,269.16 356.25,251.73 667.75,251.73" fill="rgb(22,32,38)" stroke="#050a12" stroke-width="1.5" stroke-linejoin="round"/>
<polygon id="front-yaw-000-face-15" points="681.75,419.33 678.25,432.45 678.25,329.59 681.75,314.73" fill="rgb(16,67,71)" stroke="#050a12" stroke-width="1.5" stroke-linejoin="round"/>
<polygon id="front-yaw-000-face-16" points="342.25,419.33 342.25,314.73 345.75,329.59 345.75,432.45" fill="rgb(21,93,98)" stroke="#050a12" stroke-width="1.5" stroke-linejoin="round"/>
<polygon id="front-yaw-000-face-17" points="681.75,314.73 678.25,329.59 345.75,329.59 342.25,314.73" fill="rgb(24,114,121)" stroke="#050a12" stroke-width="1.5" stroke-linejoin="round"/>
<polygon id="front-yaw-000-face-18" points="701.88,470.00 701.88,476.45 658.13,476.45 658.13,470.00" fill="rgb(8,9,10)" stroke="#050a12" stroke-width="1.5" stroke-linejoin="round"/>
<polygon id="front-yaw-000-face-19" points="365.88,470.00 365.88,476.45 322.13,476.45 322.13,470.00" fill="rgb(8,9,10)" stroke="#050a12" stroke-width="1.5" stroke-linejoin="round"/>
<polygon id="front-yaw-000-face-20" points="701.88,333.49 701.88,346.19 658.13,346.19 658.13,333.49" fill="rgb(10,12,14)" stroke="#050a12" stroke-width="1.5" stroke-linejoin="round"/>
<polygon id="front-yaw-000-face-21" points="365.88,333.49 365.88,346.19 322.13,346.19 322.13,333.49" fill="rgb(10,12,14)" stroke="#050a12" stroke-width="1.5" stroke-linejoin="round"/>
<polygon id="front-yaw-000-face-22" points="701.88,446.12 701.88,470.00 658.13,470.00 658.13,446.12" fill="rgb(8,9,10)" stroke="#050a12" stroke-width="1.5" stroke-linejoin="round"/>
<polygon id="front-yaw-000-face-23" points="365.88,446.12 365.88,470.00 322.13,470.00 322.13,446.12" fill="rgb(8,9,10)" stroke="#050a12" stroke-width="1.5" stroke-linejoin="round"/>
<polygon id="front-yaw-000-face-24" points="701.88,346.19 701.88,374.65 658.13,374.65 658.13,346.19" fill="rgb(10,12,14)" stroke="#050a12" stroke-width="1.5" stroke-linejoin="round"/>
<polygon id="front-yaw-000-face-25" points="365.88,346.19 365.88,374.65 322.13,374.65 322.13,346.19" fill="rgb(10,12,14)" stroke="#050a12" stroke-width="1.5" stroke-linejoin="round"/>
<polygon id="front-yaw-000-face-26" points="701.88,411.22 701.88,446.12 658.13,446.12 658.13,411.22" fill="rgb(8,10,11)" stroke="#050a12" stroke-width="1.5" stroke-linejoin="round"/>
<polygon id="front-yaw-000-face-27" points="365.88,411.22 365.88,446.12 322.13,446.12 322.13,411.22" fill="rgb(8,10,11)" stroke="#050a12" stroke-width="1.5" stroke-linejoin="round"/>
<polygon id="front-yaw-000-face-28" points="701.88,374.65 701.88,411.22 658.13,411.22 658.13,374.65" fill="rgb(9,11,13)" stroke="#050a12" stroke-width="1.5" stroke-linejoin="round"/>
<polygon id="front-yaw-000-face-29" points="365.88,374.65 365.88,411.22 322.13,411.22 322.13,374.65" fill="rgb(9,11,13)" stroke="#050a12" stroke-width="1.5" stroke-linejoin="round"/>
<polygon id="front-yaw-000-face-30" points="652.88,334.14 623.48,250.46 623.65,248.79 653.05,332.47" fill="rgb(17,23,27)" stroke="#050a12" stroke-width="1.5" stroke-linejoin="round"/>
<polygon id="front-yaw-000-face-31" points="370.95,332.47 400.35,248.79 400.52,250.46 371.13,334.14" fill="rgb(24,35,41)" stroke="#050a12" stroke-width="1.5" stroke-linejoin="round"/>
<polygon id="front-yaw-000-face-32" points="653.75,324.93 645.00,363.06 613.50,254.32 620.50,231.00" fill="rgb(17,23,27)" stroke="#050a12" stroke-width="1.5" stroke-linejoin="round"/>
<polygon id="front-yaw-000-face-33" points="370.25,324.93 403.50,231.00 410.50,254.32 379.00,363.06" fill="rgb(24,34,41)" stroke="#050a12" stroke-width="1.5" stroke-linejoin="round"/>
<polygon id="front-yaw-000-face-34" points="620.50,231.00 613.50,254.32 410.50,254.32 403.50,231.00" fill="rgb(25,37,44)" stroke="#050a12" stroke-width="1.5" stroke-linejoin="round"/>
<polygon id="front-yaw-000-face-35" points="678.25,432.45 673.00,463.26 673.00,367.37 678.25,329.59" fill="rgb(16,67,71)" stroke="#050a12" stroke-width="1.5" stroke-linejoin="round"/>
<polygon id="front-yaw-000-face-36" points="345.75,432.45 345.75,329.59 351.00,367.37 351.00,463.26" fill="rgb(21,92,98)" stroke="#050a12" stroke-width="1.5" stroke-linejoin="round"/>
<polygon id="front-yaw-000-face-37" points="678.25,329.59 673.00,367.37 351.00,367.37 345.75,329.59" fill="rgb(24,114,121)" stroke="#050a12" stroke-width="1.5" stroke-linejoin="round"/>
<polygon id="front-yaw-000-face-38" points="699.25,308.48 699.25,312.60 660.75,312.60 660.75,308.48" fill="rgb(25,37,44)" stroke="#050a12" stroke-width="1.5" stroke-linejoin="round"/>
<polygon id="front-yaw-000-face-39" points="363.25,308.48 363.25,312.60 324.75,312.60 324.75,308.48" fill="rgb(25,37,44)" stroke="#050a12" stroke-width="1.5" stroke-linejoin="round"/>
<polygon id="front-yaw-000-face-40" points="645.00,363.06 379.00,363.06 410.50,254.32 613.50,254.32" fill="rgb(27,39,46)" stroke="#050a12" stroke-width="1.5" stroke-linejoin="round"/>
<polygon id="front-yaw-000-face-41" points="699.25,335.26 660.75,335.26 660.75,312.60 699.25,312.60" fill="rgb(22,32,38)" stroke="#050a12" stroke-width="1.5" stroke-linejoin="round"/>
<polygon id="front-yaw-000-face-42" points="363.25,335.26 324.75,335.26 324.75,312.60 363.25,312.60" fill="rgb(22,32,38)" stroke="#050a12" stroke-width="1.5" stroke-linejoin="round"/>
<polygon id="front-yaw-000-face-43" points="673.00,463.26 671.25,476.53 671.25,384.13 673.00,367.37" fill="rgb(16,67,71)" stroke="#050a12" stroke-width="1.5" stroke-linejoin="round"/>
<polygon id="front-yaw-000-face-44" points="351.00,463.26 351.00,367.37 352.75,384.13 352.75,476.53" fill="rgb(21,92,98)" stroke="#050a12" stroke-width="1.5" stroke-linejoin="round"/>
<polygon id="front-yaw-000-face-45" points="673.00,367.37 671.25,384.13 352.75,384.13 351.00,367.37" fill="rgb(24,114,121)" stroke="#050a12" stroke-width="1.5" stroke-linejoin="round"/>
<polygon id="front-yaw-000-face-46" points="701.88,514.08 701.88,520.52 658.13,520.52 658.13,514.08" fill="rgb(8,9,10)" stroke="#050a12" stroke-width="1.5" stroke-linejoin="round"/>
<polygon id="front-yaw-000-face-47" points="365.88,514.08 365.88,520.52 322.13,520.52 322.13,514.08" fill="rgb(8,9,10)" stroke="#050a12" stroke-width="1.5" stroke-linejoin="round"/>
<polygon id="front-yaw-000-face-48" points="701.88,377.57 701.88,390.27 658.13,390.27 658.13,377.57" fill="rgb(10,12,14)" stroke="#050a12" stroke-width="1.5" stroke-linejoin="round"/>
<polygon id="front-yaw-000-face-49" points="365.88,377.57 365.88,390.27 322.13,390.27 322.13,377.57" fill="rgb(10,12,14)" stroke="#050a12" stroke-width="1.5" stroke-linejoin="round"/>
<polygon id="front-yaw-000-face-50" points="701.88,490.20 701.88,514.08 658.13,514.08 658.13,490.20" fill="rgb(8,9,10)" stroke="#050a12" stroke-width="1.5" stroke-linejoin="round"/>
<polygon id="front-yaw-000-face-51" points="365.88,490.20 365.88,514.08 322.13,514.08 322.13,490.20" fill="rgb(8,9,10)" stroke="#050a12" stroke-width="1.5" stroke-linejoin="round"/>
<polygon id="front-yaw-000-face-52" points="701.88,390.27 701.88,418.73 658.13,418.73 658.13,390.27" fill="rgb(10,12,14)" stroke="#050a12" stroke-width="1.5" stroke-linejoin="round"/>
<polygon id="front-yaw-000-face-53" points="365.88,390.27 365.88,418.73 322.13,418.73 322.13,390.27" fill="rgb(10,12,14)" stroke="#050a12" stroke-width="1.5" stroke-linejoin="round"/>
<polygon id="front-yaw-000-face-54" points="701.88,455.30 701.88,490.20 658.13,490.20 658.13,455.30" fill="rgb(8,10,11)" stroke="#050a12" stroke-width="1.5" stroke-linejoin="round"/>
<polygon id="front-yaw-000-face-55" points="365.88,455.30 365.88,490.20 322.13,490.20 322.13,455.30" fill="rgb(8,10,11)" stroke="#050a12" stroke-width="1.5" stroke-linejoin="round"/>
<polygon id="front-yaw-000-face-56" points="701.88,418.73 701.88,455.30 658.13,455.30 658.13,418.73" fill="rgb(9,11,13)" stroke="#050a12" stroke-width="1.5" stroke-linejoin="round"/>
<polygon id="front-yaw-000-face-57" points="365.88,418.73 365.88,455.30 322.13,455.30 322.13,418.73" fill="rgb(9,11,13)" stroke="#050a12" stroke-width="1.5" stroke-linejoin="round"/>
<polygon id="front-yaw-000-face-58" points="671.25,476.53 669.50,483.70 669.50,393.04 671.25,384.13" fill="rgb(16,67,71)" stroke="#050a12" stroke-width="1.5" stroke-linejoin="round"/>
<polygon id="front-yaw-000-face-59" points="352.75,476.53 352.75,384.13 354.50,393.04 354.50,483.70" fill="rgb(21,92,98)" stroke="#050a12" stroke-width="1.5" stroke-linejoin="round"/>
<polygon id="front-yaw-000-face-60" points="671.25,384.13 669.50,393.04 354.50,393.04 352.75,384.13" fill="rgb(24,114,121)" stroke="#050a12" stroke-width="1.5" stroke-linejoin="round"/>
<polygon id="front-yaw-000-face-61" points="659.00,479.29 659.00,481.12 365.00,481.12 365.00,479.29" fill="rgb(38,52,59)" stroke="#050a12" stroke-width="1.5" stroke-linejoin="round"/>
<polygon id="front-yaw-000-face-62" points="669.50,483.70 354.50,483.70 354.50,393.04 669.50,393.04" fill="rgb(22,97,103)" stroke="#050a12" stroke-width="1.5" stroke-linejoin="round"/>
<polygon id="front-yaw-000-face-63" points="662.50,444.73 662.50,446.56 361.50,446.56 361.50,444.73" fill="rgb(25,37,44)" stroke="#050a12" stroke-width="1.5" stroke-linejoin="round"/>
<polygon id="front-yaw-000-face-64" points="659.00,498.56 365.00,498.56 365.00,481.12 659.00,481.12" fill="rgb(34,45,51)" stroke="#050a12" stroke-width="1.5" stroke-linejoin="round"/>
<polygon id="front-yaw-000-face-65" points="662.50,481.43 361.50,481.43 361.50,446.56 662.50,446.56" fill="rgb(22,32,38)" stroke="#050a12" stroke-width="1.5" stroke-linejoin="round"/>
<polygon id="front-yaw-000-face-66" points="652.00,328.98 622.60,254.02 623.13,247.30 652.35,313.12" fill="rgb(9,14,20)" stroke="#050a12" stroke-width="2.2" stroke-linejoin="round"/>
<polygon id="front-yaw-000-face-67" points="371.65,313.12 400.88,247.30 401.40,254.02 372.00,328.98" fill="rgb(11,19,30)" stroke="#050a12" stroke-width="2.2" stroke-linejoin="round"/>
<polygon id="front-yaw-000-face-68" points="646.40,347.28 619.63,268.79 622.42,255.69 651.83,330.66" fill="rgb(9,14,20)" stroke="#050a12" stroke-width="2.2" stroke-linejoin="round"/>
<polygon id="front-yaw-000-face-69" points="372.17,330.66 401.57,255.69 404.38,268.79 377.60,347.28" fill="rgb(11,19,30)" stroke="#050a12" stroke-width="2.2" stroke-linejoin="round"/>
<polygon id="front-yaw-000-face-70" points="625.75,349.28 398.25,349.28 422.75,266.69 601.25,266.69" fill="rgb(12,21,34)" stroke="#050a12" stroke-width="1.5" stroke-linejoin="round"/>
<polygon id="front-yaw-000-face-71" points="688.23,326.37 688.23,330.19 682.98,330.19 682.98,326.37" fill="rgb(13,20,30)" stroke="#050a12" stroke-width="1.5" stroke-linejoin="round"/>
<polygon id="front-yaw-000-face-72" points="341.02,326.37 341.02,330.19 335.77,330.19 335.77,326.37" fill="rgb(13,20,30)" stroke="#050a12" stroke-width="1.5" stroke-linejoin="round"/>
<polygon id="front-yaw-000-face-73" points="688.23,338.03 682.98,338.03 682.98,330.19 688.23,330.19" fill="rgb(12,18,26)" stroke="#050a12" stroke-width="1.5" stroke-linejoin="round"/>
<polygon id="front-yaw-000-face-74" points="341.02,338.03 335.77,338.03 335.77,330.19 341.02,330.19" fill="rgb(12,18,26)" stroke="#050a12" stroke-width="1.5" stroke-linejoin="round"/>
<polygon id="front-yaw-000-face-75" points="569.75,455.17 454.25,455.17 454.25,425.54 569.75,425.54" fill="rgb(12,18,26)" stroke="#050a12" stroke-width="1.5" stroke-linejoin="round"/>
<polygon id="front-yaw-000-face-76" points="662.50,427.14 564.50,427.14 564.50,387.05 662.50,387.05" fill="rgb(12,18,26)" stroke="#050a12" stroke-width="1.5" stroke-linejoin="round"/>
<polygon id="front-yaw-000-face-77" points="459.50,427.14 361.50,427.14 361.50,387.05 459.50,387.05" fill="rgb(12,18,26)" stroke="#050a12" stroke-width="1.5" stroke-linejoin="round"/>
<polygon id="front-yaw-000-face-78" points="653.75,416.77 587.25,416.77 587.25,390.62 653.75,390.62" fill="rgb(239,250,243)" stroke="#050a12" stroke-width="1.5" stroke-linejoin="round"/>
<polygon id="front-yaw-000-face-79" points="436.75,416.77 370.25,416.77 370.25,390.62 436.75,390.62" fill="rgb(239,250,243)" stroke="#050a12" stroke-width="1.5" stroke-linejoin="round"/>
<polygon id="front-yaw-000-face-80" points="579.38,418.55 563.63,418.55 563.63,392.40 579.38,392.40" fill="rgb(235,151,50)" stroke="#050a12" stroke-width="1.5" stroke-linejoin="round"/>
<polygon id="front-yaw-000-face-81" points="460.38,418.55 444.63,418.55 444.63,392.40 460.38,392.40" fill="rgb(235,151,50)" stroke="#050a12" stroke-width="1.5" stroke-linejoin="round"/>
  </g>
</svg>
