<?xml version="1.0" encoding="UTF-8"?>
<svg xmlns="http://www.w3.org/2000/svg" viewBox="0 0 288 48">

  <g transform="translate(0,0)">
    <rect x="0" y="0" width="48" height="48" fill="#120f26"/>
    <ellipse cx="24" cy="39.36" rx="11.52" ry="3.84" fill="#2c1f4f" opacity="0.35"/>
    <ellipse cx="22.238954344542783" cy="28.958954344542782" rx="9.120000000000001" ry="9.600000000000001" fill="#3fd8ff" stroke="#2c1f4f" stroke-width="1"/>
    <circle cx="22.278692930678478" cy="26.558954344542784" r="1.44" fill="#120f26"/>
    <circle cx="25.638692930678477" cy="26.558954344542784" r="1.44" fill="#120f26"/>
    <rect x="14.558954344542784" y="36.71843151681417" width="4.800000000000001" height="7.68" rx="1.44" fill="#dcff8a"/>
    <rect x="25.118954344542782" y="36.55947717227139" width="4.800000000000001" height="7.68" rx="1.44" fill="#dcff8a"/>
  </g>
  <g transform="translate(48,0)">
    <rect x="0" y="0" width="48" height="48" fill="#120f26"/>
    <ellipse cx="24" cy="39.36" rx="11.52" ry="3.84" fill="#2c1f4f" opacity="0.35"/>
    <ellipse cx="18.480192799930222" cy="25.200192799930214" rx="9.120000000000001" ry="9.600000000000001" fill="#3fd8ff" stroke="#2c1f4f" stroke-width="1"/>
    <circle cx="17.580240999912775" cy="22.800192799930215" r="1.44" fill="#120f26"/>
    <circle cx="20.940240999912774" cy="22.800192799930215" r="1.44" fill="#120f26"/>
    <rect x="10.800192799930223" y="31.080289199895322" width="4.800000000000001" height="7.68" rx="1.44" fill="#dcff8a"/>
    <rect x="21.36019279993022" y="34.68009639996511" width="4.800000000000001" height="7.68" rx="1.44" fill="#dcff8a"/>
  </g>
  <g transform="translate(96,0)">
    <rect x="0" y="0" width="48" height="48" fill="#120f26"/>
    <ellipse cx="24" cy="39.36" rx="11.52" ry="3.84" fill="#2c1f4f" opacity="0.35"/>
    <ellipse cx="19.696242452867494" cy="26.416242452867493" rx="9.120000000000001" ry="9.600000000000001" fill="#3fd8ff" stroke="#2c1f4f" stroke-width="1"/>
    <circle cx="19.10030306608437" cy="24.016242452867495" r="1.44" fill="#120f26"/>
    <circle cx="22.460303066084368" cy="24.016242452867495" r="1.44" fill="#120f26"/>
    <rect x="12.016242452867495" y="32.90436367930124" width="4.800000000000001" height="7.68" rx="1.44" fill="#dcff8a"/>
    <rect x="22.576242452867493" y="35.288121226433745" width="4.800000000000001" height="7.68" rx="1.44" fill="#dcff8a"/>
  </g>
  <g transform="translate(144,0)">
    <rect x="0" y="0" width="48" height="48" fill="#120f26"/>
    <ellipse cx="24" cy="39.36" rx="11.52" ry="3.84" fill="#2c1f4f" opacity="0.35"/>
    <ellipse cx="24.20656401500281" cy="30.92656401500281" rx="9.120000000000001" ry="9.600000000000001" fill="#3fd8ff" stroke="#2c1f4f" stroke-width="1"/>
    <circle cx="24.738205018753515" cy="28.526564015002812" r="1.44" fill="#120f26"/>
    <circle cx="28.098205018753514" cy="28.526564015002812" r="1.44" fill="#120f26"/>
    <rect x="16.526564015002812" y="39.66984602250422" width="4.800000000000001" height="7.68" rx="1.44" fill="#dcff8a"/>
    <rect x="27.08656401500281" y="37.5432820075014" width="4.800000000000001" height="7.68" rx="1.44" fill="#dcff8a"/>
  </g>
  <g transform="translate(192,0)">
    <rect x="0" y="0" width="48" height="48" fill="#120f26"/>
    <ellipse cx="24" cy="39.36" rx="11.52" ry="3.84" fill="#2c1f4f" opacity="0.35"/>
    <ellipse cx="25.778046387656673" cy="32.498046387656686" rx="9.120000000000001" ry="9.600000000000001" fill="#3fd8ff" stroke="#2c1f4f" stroke-width="1"/>
    <circle cx="26.702557984570845" cy="30.098046387656687" r="1.44" fill="#120f26"/>
    <circle cx="30.062557984570844" cy="30.098046387656687" r="1.44" fill="#120f26"/>
    <rect x="18.098046387656673" y="42.02706958148503" width="4.800000000000001" height="7.68" rx="1.44" fill="#dcff8a"/>
    <rect x="28.658046387656672" y="38.32902319382834" width="4.800000000000001" height="7.68" rx="1.44" fill="#dcff8a"/>
  </g>
  <g transform="translate(240,0)">
    <rect x="0" y="0" width="48" height="48" fill="#120f26"/>
    <ellipse cx="24" cy="39.36" rx="11.52" ry="3.84" fill="#2c1f4f" opacity="0.35"/>
    <ellipse cx="22.238954344542776" cy="28.958954344542782" rx="9.120000000000001" ry="9.600000000000001" fill="#3fd8ff" stroke="#2c1f4f" stroke-width="1"/>
    <circle cx="22.278692930678474" cy="26.558954344542784" r="1.44" fill="#120f26"/>
    <circle cx="25.638692930678474" cy="26.558954344542784" r="1.44" fill="#120f26"/>
    <rect x="14.558954344542776" y="36.71843151681418" width="4.800000000000001" height="7.68" rx="1.44" fill="#dcff8a"/>
    <rect x="25.118954344542775" y="36.559477172271386" width="4.800000000000001" height="7.68" rx="1.44" fill="#dcff8a"/>
  </g>
</svg>
